<svg width="40" height="40" viewBox="0 0 40 40" fill="none" xmlns="http://www.w3.org/2000/svg">
<g clip-path="url(#clip0_122_4496)">
<path d="M39.9958 29.8734C39.9481 28.4415 39.4945 27.0824 38.6841 25.9432C37.8094 24.7138 36.5552 23.8089 35.0571 23.3265L31.0458 22.0347C30.6352 21.9025 30.1949 22.1281 30.0627 22.5388C29.9304 22.9495 30.1561 23.3897 30.5668 23.5219L34.5781 24.8137C37.3251 25.6983 38.3711 28.0343 38.4341 29.9255C38.4972 31.8167 37.6089 34.2171 34.9268 35.2826L27.5403 38.2169C26.1405 38.7732 24.9716 38.1557 24.3446 37.3925C23.7176 36.6292 23.339 35.3629 24.1564 34.0975C25.8378 31.4948 25.987 28.1739 24.5458 25.4308L23.3202 23.0984C24.0761 22.2886 24.5401 21.2029 24.5401 20.0102C24.5401 19.2681 24.3597 18.5679 24.042 17.9491L26.1571 16.8377C28.4017 15.6583 31.1193 15.7803 33.2491 17.1563C34.8737 18.2058 36.8893 18.0908 38.3838 16.8631C39.8783 15.6354 40.3826 13.6806 39.6686 11.8831L36.7342 4.49664C36.1531 3.03391 35.1668 1.84275 33.8818 1.05181C32.6912 0.319006 31.3056 -0.0432572 29.873 0.00455503C28.441 0.0522891 27.082 0.50588 25.9428 1.31627C24.7133 2.19095 23.8084 3.44516 23.326 4.94328L19.9322 15.482C19.2222 15.494 18.5519 15.67 17.9568 15.9739L16.8372 13.8431C15.6578 11.5985 15.7799 8.88099 17.1559 6.75116C18.2054 5.12656 18.0902 3.1111 16.8626 1.6165C15.635 0.121742 13.6803 -0.382552 11.8828 0.331506L4.49626 3.26586C3.03353 3.84695 1.84237 4.83328 1.05144 6.11827C0.318628 7.30889 -0.0435574 8.69513 0.00417668 10.1271C0.0519108 11.559 0.505502 12.9181 1.31589 14.0573C2.19057 15.2867 3.44478 16.1916 4.9429 16.6741L10.1469 18.3499C10.2265 18.3755 10.3072 18.3877 10.3866 18.3877C10.7167 18.3877 11.0234 18.1768 11.13 17.8457C11.2623 17.435 11.0366 16.9948 10.6259 16.8626L5.42188 15.1868C2.67486 14.3022 1.62885 11.9662 1.56589 10.075C1.50284 8.18388 2.39112 5.78343 5.07321 4.71797L12.4597 1.78361C13.8596 1.22759 15.0285 1.84486 15.6554 2.60806C16.2824 3.37125 16.661 4.63765 15.8436 5.90304C14.1622 8.50568 14.013 11.8266 15.4542 14.5697L16.6935 16.9284C15.9411 17.7375 15.4796 18.8207 15.4796 20.0101C15.4796 20.7427 15.6555 21.4345 15.9655 22.0475L13.8427 23.1629C11.5982 24.3422 8.88053 24.2202 6.7507 22.8442C5.1261 21.7947 3.11056 21.9098 1.61604 23.1375C0.12152 24.3652 -0.382774 26.32 0.331284 28.1175L3.26564 35.504C3.84673 36.9667 4.83306 38.1579 6.11805 38.9488C7.23921 39.6389 8.53374 40.0002 9.8767 40.0002C9.9599 40.0002 10.0433 39.9988 10.1269 39.996C11.5589 39.9483 12.9179 39.4947 14.0571 38.6843C15.2866 37.8097 16.1915 36.5554 16.6739 35.0573L20.0611 24.5392C20.7779 24.5312 21.4549 24.3557 22.0555 24.0504L23.1627 26.1575C24.3421 28.4022 24.2201 31.1197 22.844 33.2495C21.7945 34.8741 21.9097 36.8897 23.1373 38.3842C23.9948 39.4281 25.2068 39.9889 26.4725 39.9889C27.0188 39.9889 27.5753 39.8843 28.1173 39.669L35.5037 36.7347C36.9665 36.1536 38.1576 35.1672 38.9486 33.8823C39.6814 32.6917 40.0436 31.3054 39.9958 29.8734ZM15.1866 34.5783C14.302 37.3254 11.966 38.3714 10.0748 38.4343C8.18366 38.4968 5.78321 37.6091 4.71774 34.927L1.78339 27.5406C1.22722 26.1406 1.84463 24.9718 2.60783 24.3448C3.37111 23.7179 4.63751 23.3393 5.90281 24.1566C8.50546 25.838 11.8263 25.9872 14.5695 24.546L16.9147 23.3137C17.3672 23.7379 17.9062 24.0704 18.5025 24.2815L15.1866 34.5783ZM20.0099 22.978C18.3734 22.978 17.0421 21.6466 17.0421 20.0102C17.0421 18.3738 18.3735 17.0424 20.0099 17.0424C21.6463 17.0424 22.9777 18.3738 22.9777 20.0102C22.9777 21.6466 21.6464 22.978 20.0099 22.978ZM23.0847 16.687C22.6304 16.2665 22.0903 15.9382 21.4937 15.7307L24.8134 5.4221C25.698 2.67509 28.034 1.62908 29.9252 1.56611C31.8164 1.50259 34.2168 2.39134 35.2823 5.07343L38.2166 12.4599C38.7728 13.8599 38.1554 15.0286 37.3922 15.6556C36.629 16.2826 35.3626 16.6613 34.0972 15.8438C31.4945 14.1624 28.1737 14.0132 25.4305 15.4545L23.0847 16.687Z" fill="black"/>
<path d="M27.5016 20.9835C27.3562 20.8382 27.1547 20.7546 26.9492 20.7546C26.7437 20.7546 26.5422 20.8382 26.3969 20.9835C26.2516 21.1289 26.168 21.3304 26.168 21.5359C26.168 21.7414 26.2516 21.9429 26.3969 22.0882C26.5422 22.2335 26.7437 22.3171 26.9492 22.3171C27.1547 22.3171 27.3562 22.2335 27.5016 22.0882C27.6469 21.9429 27.7305 21.7414 27.7305 21.5359C27.7305 21.3304 27.6469 21.1289 27.5016 20.9835Z" fill="black"/>
<path d="M13.9566 18.025C13.8105 17.8797 13.6098 17.7961 13.4043 17.7961C13.198 17.7961 12.9973 17.8797 12.852 18.025C12.7059 18.1703 12.623 18.3719 12.623 18.5773C12.623 18.7836 12.7059 18.9851 12.852 19.1304C12.9973 19.2758 13.198 19.3586 13.4043 19.3586C13.6098 19.3586 13.8113 19.2758 13.9566 19.1304C14.1019 18.9844 14.1855 18.7836 14.1855 18.5773C14.1855 18.3719 14.1019 18.1711 13.9566 18.025Z" fill="black"/>
</g>
<defs>
<clipPath id="clip0_122_4496">
<rect width="40" height="40" fill="white"/>
</clipPath>
</defs>
</svg>
