<svg width="33" height="33" viewBox="0 0 33 33" fill="none" xmlns="http://www.w3.org/2000/svg">
<g clip-path="url(#clip0_122_4523)">
<path d="M30.8651 18.8161C31.1321 18.8161 31.3485 18.5997 31.3485 18.3327V4.62928C31.3485 3.29478 30.2628 2.20907 28.9283 2.20907H26.8615V1.46998C26.8615 0.65942 26.2021 0 25.3915 0H25.1696C24.359 0 23.6996 0.65942 23.6996 1.46998V2.20907H9.30077V1.46998C9.30077 0.65942 8.64135 0 7.83078 0H7.60887C6.79831 0 6.13889 0.65942 6.13889 1.46998V2.20907H4.07207C2.73757 2.20907 1.65186 3.29478 1.65186 4.62928V30.583C1.65186 31.9158 2.73609 33 4.06885 33H28.9315C30.2643 33 31.3485 31.9158 31.3485 30.583V20.2663C31.3485 19.9994 31.1321 19.7829 30.8651 19.7829C30.5981 19.7829 30.3817 19.9994 30.3817 20.2663V22.5955C30.3817 23.204 29.8866 23.699 29.2781 23.699H26.0514C24.9098 23.699 23.9811 24.6278 23.9811 25.7694V28.9961C23.9811 29.6046 23.486 30.0997 22.8775 30.0997H4.07207C3.27066 30.0997 2.61865 29.4477 2.61865 28.6463V10.0839H6.16731C6.43428 10.0839 6.65071 9.86752 6.65071 9.60055C6.65071 9.33359 6.43428 9.11715 6.16731 9.11715H2.61865V4.62928C2.61865 3.82787 3.27066 3.17586 4.07207 3.17586H6.13882V4.59718C6.13882 5.40775 6.79824 6.06717 7.60881 6.06717C7.87577 6.06717 8.09221 5.85073 8.09221 5.58377C8.09221 5.3168 7.87577 5.10037 7.60881 5.10037C7.33134 5.10037 7.10562 4.87465 7.10562 4.59718V3.17586H23.6996V4.59718C23.6996 5.40775 24.359 6.06717 25.1696 6.06717C25.4365 6.06717 25.653 5.85073 25.653 5.58377C25.653 5.3168 25.4365 5.10037 25.1696 5.10037C24.8921 5.10037 24.6664 4.87465 24.6664 4.59718V3.17586H28.9283C29.7297 3.17586 30.3817 3.82787 30.3817 4.62928V9.11709H8.10091C7.83394 9.11709 7.61751 9.33352 7.61751 9.60049C7.61751 9.86745 7.83394 10.0839 8.10091 10.0839H30.3817V18.3327C30.3817 18.5997 30.5981 18.8161 30.8651 18.8161V18.8161ZM24.9479 28.996V25.7693C24.9479 25.1608 25.4429 24.6658 26.0514 24.6658H29.2781C29.446 24.6658 29.6092 24.6451 29.7656 24.6072L24.8893 29.4835C24.9273 29.3271 24.9479 29.164 24.9479 28.996ZM4.07207 31.0664H23.6712C24.3177 31.0664 24.9255 30.8147 25.3826 30.3575L30.3817 25.3584V30.5829C30.3817 31.3826 29.7312 32.0331 28.9315 32.0331H4.06885C3.26918 32.0331 2.61865 31.3826 2.61865 30.5829V30.5799C3.02368 30.8852 3.52705 31.0664 4.07207 31.0664V31.0664ZM8.33397 2.20907H7.10569V1.46998C7.10569 1.19251 7.3314 0.966797 7.60887 0.966797H7.83078C8.10825 0.966797 8.33397 1.19251 8.33397 1.46998V2.20907ZM25.8947 2.20907H24.6664V1.46998C24.6664 1.19251 24.8921 0.966797 25.1696 0.966797H25.3915C25.669 0.966797 25.8947 1.19251 25.8947 1.46998V2.20907ZM16.6806 17.5215C16.6806 16.011 15.4515 14.7822 13.9406 14.7822C12.6342 14.7822 11.5036 15.7112 11.2521 16.991C11.2007 17.2529 11.3713 17.5071 11.6333 17.5585C11.8953 17.6099 12.1493 17.4393 12.2008 17.1773C12.3634 16.3497 13.0951 15.7489 13.9407 15.7489C14.9184 15.7489 15.7139 16.544 15.7139 17.5214C15.7139 18.4988 14.9184 19.2938 13.9407 19.2938C13.6737 19.2938 13.4573 19.5103 13.4573 19.7772C13.4573 20.0442 13.6737 20.2606 13.9407 20.2606C14.9184 20.2606 15.7139 21.0557 15.7139 22.0331C15.7139 23.0105 14.9184 23.8056 13.9407 23.8056C13.061 23.8056 12.306 23.1501 12.1847 22.2809C12.1733 22.1994 12.1676 22.1161 12.1676 22.0331C12.1676 21.7661 11.9511 21.5497 11.6842 21.5497C11.4172 21.5497 11.2008 21.7661 11.2008 22.0331C11.2008 22.1606 11.2097 22.2889 11.2272 22.4145C11.4148 23.7587 12.5814 24.7724 13.9407 24.7724C15.4515 24.7724 16.6807 23.5436 16.6807 22.0331C16.6807 21.0983 16.2096 20.2718 15.4926 19.7772C16.2095 19.2828 16.6806 18.4562 16.6806 17.5215ZM21.3162 24.5831C21.5832 24.5831 21.7996 24.3667 21.7996 24.0997V15.2836C21.7996 15.0167 21.5832 14.8002 21.3162 14.8002H19.4313C19.1643 14.8002 18.9479 15.0167 18.9479 15.2836C18.9479 15.5506 19.1643 15.767 19.4313 15.767H20.8328V24.0997C20.8328 24.3667 21.0493 24.5831 21.3162 24.5831Z" fill="black"/>
</g>
<defs>
<clipPath id="clip0_122_4523">
<rect width="33" height="33" fill="white"/>
</clipPath>
</defs>
</svg>
