<svg width="40" height="40" viewBox="0 0 40 40" fill="none" xmlns="http://www.w3.org/2000/svg">
<g clip-path="url(#clip0_122_4470)">
<path d="M36.5483 33.7384L33.6849 28.9684C32.3649 26.7667 31.6666 24.2467 31.6666 21.6784V17.5C31.6666 11.0684 26.4316 5.83337 19.9999 5.83337C13.5683 5.83337 8.33327 11.0684 8.33327 17.5V21.6784C8.33327 24.2467 7.63491 26.7667 6.31491 28.9684L3.45155 33.7384C3.29655 33.995 3.29319 34.3167 3.43991 34.5767C3.58827 34.8384 3.86655 35.0001 4.16655 35.0001H35.8332C36.1332 35.0001 36.4116 34.8385 36.5598 34.5767C36.7066 34.3167 36.7033 33.995 36.5483 33.7384ZM5.63827 33.3334L7.74327 29.825C9.21991 27.365 9.99991 24.5484 9.99991 21.6784V17.5C9.99991 11.985 14.4849 7.50001 19.9999 7.50001C25.5149 7.50001 29.9999 11.985 29.9999 17.5V21.6784C29.9999 24.5484 30.7799 27.365 32.2549 29.825L34.3616 33.3334H5.63827Z" fill="black"/>
<path d="M19.9999 0C18.1615 0 16.6665 1.495 16.6665 3.33336V6.66672C16.6665 7.12664 17.0399 7.5 17.4999 7.5C17.9599 7.5 18.3332 7.12664 18.3332 6.66664V3.33336C18.3332 2.41336 19.0799 1.66672 19.9999 1.66672C20.9199 1.66672 21.6665 2.41336 21.6665 3.33336V6.66672C21.6665 7.12664 22.0399 7.5 22.4999 7.5C22.9599 7.5 23.3332 7.12664 23.3332 6.66664V3.33336C23.3332 1.495 21.8382 0 19.9999 0Z" fill="black"/>
<path d="M23.6068 33.745C23.3718 33.3484 22.8635 33.2184 22.4652 33.4467C22.0668 33.68 21.9336 34.1917 22.1668 34.5883C22.3835 34.9567 22.5018 35.3983 22.5018 35.8333C22.5018 37.2117 21.3802 38.3333 20.0018 38.3333C18.6235 38.3333 17.5019 37.2117 17.5019 35.8333C17.5019 35.3983 17.6202 34.9567 17.8369 34.5883C18.0685 34.1899 17.9352 33.6799 17.5385 33.4467C17.1369 33.2183 16.6301 33.3483 16.3969 33.745C16.0285 34.375 15.8335 35.0967 15.8335 35.8334C15.8336 38.1317 17.7019 40 20.0002 40C22.2986 40 24.1668 38.1317 24.1702 35.8334C24.1702 35.0967 23.9752 34.375 23.6068 33.745Z" fill="black"/>
</g>
<defs>
<clipPath id="clip0_122_4470">
<rect width="40" height="40" fill="white"/>
</clipPath>
</defs>
</svg>
