<svg width="180" height="95" viewBox="0 0 180 95" fill="none" xmlns="http://www.w3.org/2000/svg">
<path d="M165.9 47.6C162.7 47.6 159.7 48.5 157.1 50.1C155.7 40.9 147.7 33.8 138 33.8C136.8 33.8 135.7 33.9 134.5 34.1C136 31 136.9 27.5 136.9 23.8C136.9 10.7 126.3 0 113.1 0C100.7 0 90.5 9.5 89.4 21.7C87.5 20.6 85.2 20 82.8 20C79 20 75.5 21.6 73 24.1C69.1 18.8 62.7 15.3 55.6 15.3C43.7 15.3 34 25 34 37V37.1C25 37.9 17.8 44.8 16.3 53.6C15.2 53.3 14.1 53.2 13 53.2C5.8 53.2 0 59 0 66.2C0 73.4 5.8 79.2 13 79.2C16.1 79.2 18.9 78.1 21.1 76.3C22.5 77.6 24.2 78.4 26.2 78.6C27.1 83.4 31.4 87.1 36.5 87.1C39.7 87.1 42.6 85.6 44.5 83.4C48 88.6 53.9 92 60.6 92C67.3 92 73.2 88.6 76.7 83.4C80.7 89.9 87.8 94.2 96 94.2C104.8 94.2 112.5 89.1 116.2 81.8C119.5 86.7 125.1 90 131.5 90C138.6 90 144.8 86 147.8 80C149 80.4 150.3 80.7 151.6 80.7C154 80.7 156.1 80 157.9 78.7C160.2 80 162.9 80.7 165.8 80.7C174.9 80.7 182.3 73.3 182.3 64.2C182.4 55 175 47.6 165.9 47.6Z" fill="white" fill-opacity="0.3"/>
</svg>
