<svg width="10" height="13" viewBox="0 0 10 13" fill="none" xmlns="http://www.w3.org/2000/svg">
<path d="M5.424 12.16C3.99467 12.16 2.90667 11.776 2.16 11.008C1.424 10.24 1.02933 9.17867 0.976 7.824C0.965333 7.536 0.96 7.06667 0.96 6.416C0.96 5.75467 0.965333 5.27467 0.976 4.976C1.02933 3.632 1.42933 2.576 2.176 1.808C2.92267 1.02933 4.00533 0.639999 5.424 0.639999C6.37333 0.639999 7.17867 0.810666 7.84 1.152C8.50133 1.48267 9.00267 1.92 9.344 2.464C9.68533 3.008 9.872 3.58933 9.904 4.208V4.24C9.904 4.32533 9.86667 4.4 9.792 4.464C9.728 4.51733 9.65333 4.544 9.568 4.544H8.688C8.47467 4.544 8.34133 4.42133 8.288 4.176C8.10667 3.376 7.78133 2.816 7.312 2.496C6.84267 2.16533 6.21333 2 5.424 2C3.58933 2 2.64 3.01867 2.576 5.056C2.56533 5.344 2.56 5.78667 2.56 6.384C2.56 6.98133 2.56533 7.43467 2.576 7.744C2.64 9.78133 3.58933 10.8 5.424 10.8C6.21333 10.8 6.84267 10.64 7.312 10.32C7.792 9.98933 8.11733 9.424 8.288 8.624C8.32 8.48533 8.368 8.38933 8.432 8.336C8.496 8.28267 8.58133 8.256 8.688 8.256H9.568C9.664 8.256 9.744 8.288 9.808 8.352C9.88267 8.40533 9.91467 8.48 9.904 8.576C9.872 9.20533 9.68533 9.792 9.344 10.336C9.00267 10.88 8.50133 11.3227 7.84 11.664C7.17867 11.9947 6.37333 12.16 5.424 12.16Z" fill="#E9EEFA"/>
</svg>
