<svg width="39" height="39" viewBox="0 0 39 39" fill="none" xmlns="http://www.w3.org/2000/svg">
<path d="M38.1522 18.6522H32.1742C31.9834 15.784 30.8439 13.1778 29.0592 11.1396L33.6646 6.5342C33.9961 6.2027 33.9961 5.66687 33.6646 5.33537C33.3331 5.00387 32.7973 5.00387 32.4658 5.33537L27.8604 9.94076C25.8222 8.15609 23.216 7.01661 20.3478 6.82585V0.847826C20.3478 0.379826 19.9688 0 19.5 0C19.0312 0 18.6522 0.379826 18.6522 0.847826V6.82585C15.784 7.01661 13.1778 8.15609 11.1396 9.94076L6.5342 5.33537C6.2027 5.00387 5.66687 5.00387 5.33537 5.33537C5.00387 5.66687 5.00387 6.2027 5.33537 6.5342L9.94076 11.1396C8.15609 13.1778 7.01661 15.784 6.82585 18.6522H0.847826C0.378978 18.6522 0 19.032 0 19.5C0 19.968 0.378978 20.3478 0.847826 20.3478H7.62874C7.62959 20.3478 7.63043 20.3478 7.63043 20.3478H7.63213H31.367C31.3679 20.3478 31.3687 20.3478 31.3687 20.3478H31.3704H38.1522C38.621 20.3478 39 19.968 39 19.5C39 19.032 38.621 18.6522 38.1522 18.6522ZM8.5215 18.6522C8.95728 12.97 13.7093 8.47826 19.5 8.47826C25.2907 8.47826 30.0427 12.97 30.4785 18.6522H8.5215Z" fill="black"/>
<path d="M25.1863 32.4658C24.8548 32.1343 24.319 32.1343 23.9875 32.4658L20.3478 36.1055V24.587C20.3478 24.119 19.9688 23.7391 19.4999 23.7391C19.0311 23.7391 18.6521 24.119 18.6521 24.587V36.1055L15.0124 32.4658C14.6809 32.1343 14.1451 32.1343 13.8136 32.4658C13.4821 32.7973 13.4821 33.3331 13.8136 33.6646L18.8997 38.7507C18.9777 38.8296 19.0718 38.8915 19.1761 38.9347C19.2795 38.9771 19.3897 39 19.4999 39C19.6101 39 19.7204 38.9771 19.8238 38.9347C19.9281 38.8915 20.0213 38.8296 20.1002 38.7507L25.1863 33.6646C25.5178 33.3331 25.5178 32.7973 25.1863 32.4658Z" fill="black"/>
</svg>
