<svg width="45" height="28" viewBox="0 0 45 28" fill="none" xmlns="http://www.w3.org/2000/svg">
<path d="M4.10742 14.5616C6.74577 20.7654 16.3698 22.9726 22.6059 20.3479C27.5827 18.26 29.9213 12.5335 27.8226 7.58233C26.1436 3.61547 21.5265 1.73644 17.539 3.43652C14.361 4.74886 12.8619 8.41746 14.2111 11.6088C12.4122 7.40338 14.391 2.57156 18.6183 0.811829C23.895 -1.3953 29.9513 1.05044 32.1699 6.29982C34.9282 12.8317 31.8701 20.3777 25.2742 23.1515C17.0293 26.5815 7.55527 22.7638 4.10742 14.5616Z" fill="url(#paint0_radial_54_8656)"/>
<path d="M11.453 21.0935C15.4105 23.5094 20.4174 24.0463 25.0045 22.1374C27.9127 20.9146 30.1613 18.6478 31.3306 15.7547C32.4998 12.8616 32.4998 9.67017 31.2706 6.77705C29.2619 2.06454 23.7753 -0.172412 19.0383 1.82593C18.2288 2.15402 17.4792 2.66106 16.8496 3.22775C16.28 3.55584 15.7703 3.94358 15.3206 4.39097C16.1601 2.98915 17.4193 1.91541 18.9483 1.25924C23.9552 -0.828585 29.7116 1.49784 31.8103 6.47879C33.0995 9.52104 33.1295 12.8616 31.8702 15.9336C30.671 19.0057 28.3025 21.3918 25.2444 22.6743C19.518 25.0604 13.1619 23.8077 8.78467 19.99C9.62414 20.4374 10.5236 20.7953 11.453 21.0935Z" fill="url(#paint1_radial_54_8656)"/>
<path d="M28.1226 23.0621C28.992 21.0041 32.2 20.2584 34.2687 21.1532C35.9177 21.8392 36.6972 23.748 36.0076 25.3885C35.438 26.7008 33.9089 27.3272 32.5898 26.7605C31.5404 26.3131 31.0307 25.0902 31.4805 24.0463C30.8808 25.4481 31.5404 27.0289 32.9495 27.6254C34.6885 28.3711 36.7272 27.536 37.4467 25.806C38.3761 23.6287 37.3568 21.1234 35.1682 20.1988C32.4399 19.0654 29.2918 20.3479 28.1226 23.0621Z" fill="url(#paint2_radial_54_8656)"/>
<path d="M15.8604 17.8425C18.9784 19.3039 23.5955 16.9775 25.0646 13.8756C26.2339 11.4 25.1545 8.44726 22.6661 7.28405C20.6574 6.35944 18.2888 7.2244 17.3594 9.19291C16.6099 10.7737 17.2995 12.6826 18.8885 13.3984C20.1777 13.9949 21.6767 13.458 22.2763 12.1755C22.756 11.1614 22.3363 9.4017 21.3169 8.92448C22.5462 9.49117 23.0858 10.9526 22.5162 12.1755C21.7966 13.6966 19.9678 14.3826 18.4088 13.6668C16.49 12.772 15.6505 10.4754 16.5499 8.56657C17.6892 6.18048 20.5374 5.13657 22.9659 6.26996C25.964 7.67179 27.2832 11.2509 25.8741 14.2335C24.1052 17.9618 19.608 19.6022 15.8604 17.8425Z" fill="url(#paint3_radial_54_8656)"/>
<path d="M32.0498 21.869C33.0992 21.3918 34.6582 22.1673 35.1379 23.2112C35.5276 24.0463 35.1679 25.0306 34.3284 25.4183C33.6688 25.7165 32.8593 25.4481 32.5295 24.7621C32.2897 24.2253 32.4995 23.5989 33.0392 23.3305C33.4589 23.1217 33.9686 23.3006 34.1785 23.748C34.3284 24.0761 34.2085 24.6726 33.8487 24.8516C34.2684 24.6726 34.4483 24.1656 34.2384 23.748C33.9986 23.241 33.369 23.0024 32.8593 23.241C32.1997 23.5393 31.9299 24.3147 32.2297 24.9709C32.6194 25.7762 33.5789 26.1341 34.3883 25.7464C35.4077 25.2692 35.8275 24.0761 35.3777 23.062C34.8081 21.8093 33.309 21.2725 32.0498 21.869Z" fill="url(#paint4_radial_54_8656)"/>
<path d="M0 21.9287C2.30856 19.9601 8.78451 20.676 10.7933 22.9726C7.94503 19.6917 3.26796 19.0952 0 21.9287Z" fill="url(#paint5_radial_54_8656)"/>
<path d="M4.82715 23.062C6.20629 21.869 10.0739 22.3164 11.2731 23.6884C9.56419 21.7497 6.77593 21.3918 4.82715 23.062Z" fill="url(#paint6_radial_54_8656)"/>
<path d="M44.7317 10.0281C33.3388 8.62624 35.6774 15.4266 35.6774 15.4266C38.3157 12.8019 41.4937 11.9369 41.4937 11.9369C37.866 13.7265 34.8379 16.8284 34.8379 16.8284L34.3882 18.4688L36.4569 16.1722C40.2045 21.2128 44.7317 10.0281 44.7317 10.0281Z" fill="#94C63D"/>
<path d="M43.9823 10.893C44.0723 10.6843 44.1622 10.5053 44.2522 10.3264C40.4146 9.90879 37.7462 10.4457 36.577 11.9071C36.0073 12.623 35.8574 13.4283 35.8574 14.1143C35.8574 14.2037 35.8574 14.2932 35.8574 14.3827C35.8874 13.7862 36.0973 13.1002 36.577 12.5037C37.7462 11.072 40.2947 10.5351 43.9823 10.893Z" fill="url(#paint7_linear_54_8656)"/>
<path d="M44.7317 10.0281C33.3388 8.62624 35.6774 15.4266 35.6774 15.4266C38.3157 12.8019 41.4937 11.9369 41.4937 11.9369C37.866 13.7265 34.8379 16.8284 34.8379 16.8284L34.3882 18.4688L36.4569 16.1722C40.2045 21.2128 44.7317 10.0281 44.7317 10.0281Z" fill="#94C63D"/>
<path d="M43.9823 10.893C44.0723 10.6843 44.1622 10.5053 44.2522 10.3264C40.4146 9.90879 37.7462 10.4457 36.577 11.9071C36.0073 12.623 35.8574 13.4283 35.8574 14.1143C35.8574 14.2037 35.8574 14.2932 35.8574 14.3827C35.8874 13.7862 36.0973 13.1002 36.577 12.5037C37.7462 11.072 40.2947 10.5351 43.9823 10.893Z" fill="url(#paint8_linear_54_8656)"/>
<path d="M13.9411 14.0248C13.9411 14.0248 14.2709 13.5774 15.2003 13.637C15.2003 13.637 14.8406 13.3089 15.1704 13.1002C15.1704 13.1002 12.9517 14.0844 11.8424 15.2476C11.8424 15.2476 12.8618 13.9651 13.6713 13.5177C13.6713 13.5177 10.6432 11.6983 9.80371 17.5442C9.86367 17.5144 15.1404 16.0529 13.9411 14.0248Z" fill="#94C63D"/>
<path d="M11.9923 14.144C12.2322 14.0247 12.472 13.9949 12.7119 13.9949C12.8618 13.8458 13.0117 13.6966 13.1916 13.5773C12.8918 13.4879 12.472 13.458 12.0223 13.6668C11.1828 14.0546 10.5832 15.2774 10.2534 17.1565C10.2834 17.1565 10.3134 17.1266 10.3434 17.1266C10.6432 15.5459 11.2128 14.502 11.9923 14.144Z" fill="url(#paint9_linear_54_8656)"/>
<path d="M13.9411 14.0248C13.9411 14.0248 14.2709 13.5774 15.2003 13.637C15.2003 13.637 14.8406 13.3089 15.1704 13.1002C15.1704 13.1002 12.9517 14.0844 11.8424 15.2476C11.8424 15.2476 12.8618 13.9651 13.6713 13.5177C13.6713 13.5177 10.6432 11.6983 9.80371 17.5442C9.86367 17.5144 15.1404 16.0529 13.9411 14.0248Z" fill="#94C63D"/>
<path d="M11.9923 14.144C12.2322 14.0247 12.472 13.9949 12.7119 13.9949C12.8618 13.8458 13.0117 13.6966 13.1916 13.5773C12.8918 13.4879 12.472 13.458 12.0223 13.6668C11.1828 14.0546 10.5832 15.2774 10.2534 17.1565C10.2834 17.1565 10.3134 17.1266 10.3434 17.1266C10.6432 15.5459 11.2128 14.502 11.9923 14.144Z" fill="url(#paint10_linear_54_8656)"/>
<defs>
<radialGradient id="paint0_radial_54_8656" cx="0" cy="0" r="1" gradientUnits="userSpaceOnUse" gradientTransform="translate(18.7616 12.0705) rotate(180) scale(13.4461 13.3765)">
<stop offset="0.005618" stop-color="#A9D1EF"/>
<stop offset="0.5393" stop-color="#1998D5"/>
<stop offset="1" stop-color="#0073BB"/>
</radialGradient>
<radialGradient id="paint1_radial_54_8656" cx="0" cy="0" r="1" gradientUnits="userSpaceOnUse" gradientTransform="translate(33.5534 10.6898) rotate(180) scale(23.9439 23.8199)">
<stop offset="0.005618" stop-color="#A9D1EF"/>
<stop offset="0.5393" stop-color="#1998D5"/>
<stop offset="1" stop-color="#0073BB"/>
</radialGradient>
<radialGradient id="paint2_radial_54_8656" cx="0" cy="0" r="1" gradientUnits="userSpaceOnUse" gradientTransform="translate(32.8632 23.7552) rotate(180) scale(4.46962 4.44648)">
<stop offset="0.005618" stop-color="#A9D1EF"/>
<stop offset="0.5393" stop-color="#1998D5"/>
<stop offset="1" stop-color="#0073BB"/>
</radialGradient>
<radialGradient id="paint3_radial_54_8656" cx="0" cy="0" r="1" gradientUnits="userSpaceOnUse" gradientTransform="translate(21.2769 12.0299) rotate(180) scale(5.86625 5.83588)">
<stop offset="0.005618" stop-color="#A9D1EF"/>
<stop offset="0.5393" stop-color="#1998D5"/>
<stop offset="1" stop-color="#0073BB"/>
</radialGradient>
<radialGradient id="paint4_radial_54_8656" cx="0" cy="0" r="1" gradientUnits="userSpaceOnUse" gradientTransform="translate(33.7523 23.7046) rotate(180) scale(1.97537 1.96514)">
<stop offset="0.005618" stop-color="#A9D1EF"/>
<stop offset="0.5393" stop-color="#1998D5"/>
<stop offset="1" stop-color="#0073BB"/>
</radialGradient>
<radialGradient id="paint5_radial_54_8656" cx="0" cy="0" r="1" gradientUnits="userSpaceOnUse" gradientTransform="translate(8.68441 25.7025) rotate(180) scale(4.70206 4.67772)">
<stop offset="0.005618" stop-color="#A9D1EF"/>
<stop offset="0.5393" stop-color="#1998D5"/>
<stop offset="1" stop-color="#0073BB"/>
</radialGradient>
<radialGradient id="paint6_radial_54_8656" cx="0" cy="0" r="1" gradientUnits="userSpaceOnUse" gradientTransform="translate(8.68456 25.7017) rotate(180) scale(4.70207 4.6777)">
<stop offset="0.005618" stop-color="#A9D1EF"/>
<stop offset="0.5393" stop-color="#1998D5"/>
<stop offset="1" stop-color="#0073BB"/>
</radialGradient>
<linearGradient id="paint7_linear_54_8656" x1="35.7854" y1="12.2665" x2="44.2015" y2="12.2665" gradientUnits="userSpaceOnUse">
<stop stop-color="#B7D333"/>
<stop offset="0.228" stop-color="#C5DB54"/>
<stop offset="0.7268" stop-color="#EAEFA7"/>
<stop offset="1" stop-color="#FFFBD7"/>
</linearGradient>
<linearGradient id="paint8_linear_54_8656" x1="35.7854" y1="12.2665" x2="44.2015" y2="12.2665" gradientUnits="userSpaceOnUse">
<stop stop-color="#B7D333"/>
<stop offset="0.3431" stop-color="#BDD754"/>
<stop offset="1" stop-color="#CBE19C"/>
</linearGradient>
<linearGradient id="paint9_linear_54_8656" x1="10.0783" y1="15.3264" x2="13.0331" y2="15.3264" gradientUnits="userSpaceOnUse">
<stop stop-color="#B7D333"/>
<stop offset="0.228" stop-color="#C5DB54"/>
<stop offset="0.7268" stop-color="#EAEFA7"/>
<stop offset="1" stop-color="#FFFBD7"/>
</linearGradient>
<linearGradient id="paint10_linear_54_8656" x1="10.0783" y1="15.3264" x2="13.0331" y2="15.3264" gradientUnits="userSpaceOnUse">
<stop stop-color="#B7D333"/>
<stop offset="0.3431" stop-color="#BDD754"/>
<stop offset="1" stop-color="#CBE19C"/>
</linearGradient>
</defs>
</svg>
