<svg width="60" height="62" viewBox="0 0 60 62" fill="none" xmlns="http://www.w3.org/2000/svg">
<path d="M14.4519 54.5683C9.04092 54.5683 4.58887 50.0955 4.58887 44.6593V9.90899C4.58887 4.47281 9.04092 0 14.4519 0H17.8765C21.0272 0 23.8354 1.51387 25.6848 3.8535C25.7533 3.8535 25.7533 3.8535 25.8217 3.8535C26.9861 3.8535 28.1505 4.47281 28.6985 5.50499L30.5478 8.73918C30.7533 8.67037 30.9587 8.60155 31.2327 8.53274V4.81687C31.2327 2.95893 32.7396 1.44506 34.5889 1.44506C36.4382 1.44506 37.945 2.95893 37.945 4.81687V8.53274C38.1505 8.60155 38.356 8.67037 38.63 8.73918L40.4108 5.50499C41.0272 4.47281 42.1231 3.8535 43.2875 3.8535C43.9039 3.8535 44.4519 3.99112 44.9313 4.33518C45.6848 4.81687 46.2327 5.50499 46.5067 6.39956C46.7122 7.29412 46.6437 8.18868 46.1642 8.94562L44.3149 12.1798C44.4519 12.3174 44.6574 12.5239 44.7943 12.6615L48.0135 10.8036C48.493 10.5283 49.1094 10.3219 49.6574 10.3219C50.8218 10.3219 51.9861 10.9412 52.5341 11.9734C53.4245 13.556 52.8765 15.6204 51.3012 16.5838L48.082 18.4417C48.1505 18.6482 48.219 18.8546 48.2875 19.1299H52.0546C53.9039 19.1299 55.4108 20.6437 55.4108 22.5017C55.4108 24.3596 53.9039 25.8735 52.0546 25.8735H48.356C48.2875 26.0799 48.219 26.2863 48.1505 26.5616L51.3697 28.4195C52.945 29.3141 53.493 31.3785 52.6026 33.03C51.9861 34.0622 50.8902 34.6815 49.7259 34.6815C49.1094 34.6815 48.5615 34.5438 48.082 34.1998L44.8628 32.3418C44.7259 32.4795 44.5204 32.6859 44.3834 32.8235L46.2327 36.0577C46.7122 36.8147 46.7807 37.7092 46.5752 38.6038C46.3697 39.4983 45.8217 40.1865 44.9998 40.6681C44.5204 40.9434 43.9039 41.1498 43.356 41.1498C42.1916 41.1498 41.0272 40.5305 40.4793 39.4983L38.63 36.2642C38.4245 36.333 38.219 36.4018 37.945 36.4706V40.1865C37.945 42.0444 36.4382 43.5583 34.5889 43.5583C32.7396 43.5583 31.2327 42.0444 31.2327 40.1865V36.4706C31.0272 36.4018 30.8217 36.333 30.5478 36.2642L28.6985 39.4983C28.4245 39.9112 28.1505 40.2553 27.7396 40.5305V44.7969C27.7396 50.2331 23.2875 54.7059 17.8765 54.7059H14.4519V54.5683Z" fill="white"/>
<path d="M52.0546 21.5383H46.2327C46.0957 20.0244 45.7532 18.5794 45.1368 17.2719L50.1368 14.3818C50.5478 14.1065 50.6847 13.6249 50.4793 13.1432C50.2053 12.7303 49.7258 12.5927 49.2464 12.7991L44.2464 15.6892C43.4245 14.4506 42.3971 13.4184 41.1642 12.5927L44.0409 7.56936C44.3149 7.15649 44.1094 6.60599 43.6984 6.33074C43.2875 6.05549 42.7395 6.26192 42.4656 6.6748L39.5889 11.6981C38.2875 11.0788 36.8491 10.6659 35.3423 10.5971V4.81686C35.3423 4.33518 34.9313 3.9223 34.4519 3.9223C33.9724 3.9223 33.5615 4.33518 33.5615 4.81686V10.6659C32.0546 10.8035 30.6162 11.1476 29.3149 11.7669L26.4382 6.74361C26.3012 6.33074 25.7532 6.19311 25.3423 6.39955C24.9313 6.6748 24.7943 7.15649 24.9998 7.63817L27.8765 12.6615C26.6436 13.4872 25.6163 14.5194 24.7943 15.758L19.7943 12.8679C19.3834 12.5927 18.8354 12.7991 18.5615 13.212C18.2875 13.6249 18.493 14.1754 18.9039 14.4506L23.9039 17.3407C23.2875 18.6482 22.8765 20.0932 22.808 21.6071H16.9861C16.5067 21.6071 16.0957 22.02 16.0957 22.5017C16.0957 22.9833 16.5067 23.3962 16.9861 23.3962H22.808C22.945 24.9101 23.2875 26.3552 23.9039 27.6626L18.9039 30.5527C18.493 30.828 18.356 31.3097 18.5615 31.7913C18.8354 32.2042 19.3149 32.3418 19.7943 32.1354L24.7943 29.2453C25.6163 30.4839 26.6436 31.5161 27.8765 32.3418L24.9998 37.3651C24.7258 37.778 24.9313 38.3285 25.3423 38.6038C25.7532 38.879 26.3012 38.6726 26.5752 38.2597L29.4519 33.2364C30.7532 33.8557 32.1916 34.2686 33.6984 34.3374V40.1865C33.6984 40.6681 34.1094 41.081 34.5889 41.081C35.0683 41.081 35.4793 40.6681 35.4793 40.1865V34.3374C36.9861 34.1998 38.4245 33.8557 39.7258 33.2364L42.6026 38.2597C42.8765 38.6726 43.356 38.8102 43.8354 38.6038C44.2464 38.3285 44.3834 37.8468 44.1779 37.3651L41.3012 32.3418C42.5341 31.5161 43.5615 30.4839 44.3834 29.2453L49.3834 32.1354C49.7943 32.4107 50.3423 32.2042 50.6162 31.7913C50.8902 31.3785 50.6847 30.828 50.2738 30.5527L45.1368 27.525C45.7532 26.2175 46.1642 24.7725 46.2327 23.2586H52.0546C52.5341 23.2586 52.945 22.8457 52.945 22.364C52.945 21.9512 52.5341 21.5383 52.0546 21.5383Z" fill="url(#paint0_linear_106_39)"/>
<path d="M34.7259 11.4229C35.6848 11.4229 36.6437 11.6293 37.5341 11.8357C38.4245 12.111 39.2464 12.5238 39.9314 12.9367C41.3697 13.8313 42.3971 15.0011 43.0821 16.1021C43.767 17.2031 44.1095 18.1665 44.2464 18.8546C44.3149 19.1987 44.3149 19.4739 44.3834 19.6803C44.3834 19.8868 44.3834 19.9556 44.3834 19.9556C44.3834 19.9556 44.3834 19.8868 44.3149 19.6803C44.2464 19.4739 44.178 19.2675 44.041 18.9234C43.8355 18.3041 43.356 17.4095 42.6711 16.4462C41.9177 15.4828 40.8903 14.5194 39.5204 13.7625C38.8355 13.4184 38.0821 13.0744 37.2601 12.8679C36.4382 12.6615 35.5478 12.5239 34.6574 12.5239C33.767 12.5239 32.8766 12.6615 32.1232 12.8679C31.3012 13.1432 30.5478 13.4184 29.8629 13.8313C28.493 14.5882 27.3971 15.5516 26.6437 16.515C25.8903 17.4783 25.4793 18.3729 25.2738 18.9922C25.1369 19.3363 25.1369 19.6115 25.1369 19.7492C25.1369 19.9556 25.0684 20.0244 25.0684 20.0244C25.0684 20.0244 25.0684 19.9556 25.0684 19.7492C25.0684 19.5427 25.0684 19.2675 25.1369 18.9234C25.2053 18.2353 25.5478 17.2031 26.2327 16.1709C26.9177 15.1387 27.9451 13.9689 29.3834 13.0743C30.0684 12.5927 30.8903 12.2486 31.7807 11.9734C32.7396 11.5605 33.6985 11.4229 34.7259 11.4229Z" fill="white"/>
<path d="M17.0547 52.091H15.2739C10.7533 52.091 7.05469 48.3751 7.05469 43.8335V10.7347C7.05469 6.1931 10.7533 2.47723 15.2739 2.47723H17.0547C21.5752 2.47723 25.2739 6.1931 25.2739 10.7347V43.8335C25.2739 48.3751 21.5752 52.091 17.0547 52.091Z" fill="url(#paint1_linear_106_39)"/>
<path opacity="0.5" d="M22.5342 41.425H9.79443V10.253C9.79443 7.4317 12.0547 5.16089 14.8629 5.16089H17.5342C20.3424 5.16089 22.6027 7.4317 22.6027 10.253V41.425H22.5342Z" fill="url(#paint2_linear_106_39)"/>
<path d="M20.7532 18.7858C21.0957 18.7858 21.3696 18.5105 21.3696 18.1664C21.3696 17.8224 21.0957 17.5471 20.7532 17.5471H18.3559V14.4506H20.7532C21.0957 14.4506 21.3696 14.1753 21.3696 13.8313C21.3696 13.4872 21.0957 13.212 20.7532 13.212H18.3559V10.0466C18.3559 8.67034 17.26 7.56934 15.8902 7.56934C14.5203 7.56934 13.4244 8.67034 13.4244 10.0466V13.212H11.2326C10.8902 13.212 10.6162 13.4872 10.6162 13.8313C10.6162 14.1753 10.8902 14.4506 11.2326 14.4506H13.4244V17.5471H11.2326C10.8902 17.5471 10.6162 17.8224 10.6162 18.1664C10.6162 18.5105 10.8902 18.7858 11.2326 18.7858H13.4244V21.8823H11.2326C10.8902 21.8823 10.6162 22.1576 10.6162 22.5016C10.6162 22.8457 10.8902 23.1209 11.2326 23.1209H13.4244V26.2175H11.2326C10.8902 26.2175 10.6162 26.4928 10.6162 26.8368C10.6162 27.1809 10.8902 27.4561 11.2326 27.4561H13.4244V30.5527H11.2326C10.8902 30.5527 10.6162 30.8279 10.6162 31.172C10.6162 31.5161 10.8902 31.7913 11.2326 31.7913H13.4244V34.8879H11.2326C10.8902 34.8879 10.6162 35.1631 10.6162 35.5072C10.6162 35.8512 10.8902 36.1265 11.2326 36.1265H13.4244V39.4983C11.7806 40.3929 10.7532 42.0444 10.7532 43.9711C10.7532 46.7924 13.0135 49.0632 15.8217 49.0632C18.6299 49.0632 20.8902 46.7924 20.8902 43.9711C20.8902 42.182 19.9313 40.5305 18.4244 39.6359V36.1265H20.8217C21.1642 36.1265 21.4381 35.8512 21.4381 35.5072C21.4381 35.1631 21.1642 34.8879 20.8217 34.8879H18.4244V31.7913H20.8217C21.1642 31.7913 21.4381 31.5161 21.4381 31.172C21.4381 30.8279 21.1642 30.5527 20.8217 30.5527H18.4244V27.4561H20.8217C21.1642 27.4561 21.4381 27.1809 21.4381 26.8368C21.4381 26.4928 21.1642 26.2175 20.8217 26.2175H18.4244V23.1209H20.8217C21.1642 23.1209 21.4381 22.8457 21.4381 22.5016C21.4381 22.1576 21.1642 21.8823 20.8217 21.8823H18.4244V18.7858H20.7532Z" fill="url(#paint3_linear_106_39)"/>
<path d="M17.1917 40.3929V18.0289C16.4382 18.0289 15.5478 18.0289 14.7259 18.0289V40.2553C13.1506 40.737 12.0547 42.182 12.0547 43.9023C12.0547 46.0355 13.767 47.687 15.8218 47.687C17.9451 47.687 19.5889 45.9667 19.5889 43.9023C19.6574 42.3197 18.63 40.9434 17.1917 40.3929Z" fill="url(#paint4_linear_106_39)"/>
<path d="M17.1918 9.97782C17.1918 9.2897 16.6439 8.7392 15.959 8.7392C15.274 8.7392 14.7261 9.2897 14.7261 9.97782V18.0289C15.548 18.0289 16.4384 18.0289 17.1918 18.0289V9.97782Z" fill="white"/>
<path opacity="0.6" d="M18.4933 43.1454C18.4933 44.5216 17.3289 45.6914 15.9591 45.6914C14.5892 45.6914 13.4248 44.5216 13.4248 43.1454C13.4248 41.7691 14.5892 40.5993 15.9591 40.5993C17.3974 40.5993 18.4933 41.7691 18.4933 43.1454Z" fill="url(#paint5_linear_106_39)"/>
<path opacity="0.6" d="M16.575 18.5106H15.4106V39.7048H16.575V18.5106Z" fill="url(#paint6_linear_106_39)"/>
<path opacity="0.5" d="M16.1643 52.091C15.2739 52.091 14.3835 52.091 13.4246 51.9534C12.5342 51.8157 11.6438 51.5405 10.8903 51.0588C10.1369 50.6459 9.52048 50.0954 9.04102 49.5449C8.56157 48.9944 8.15061 48.4439 7.87664 47.8246C7.32869 46.7236 7.12321 45.6914 7.12321 45.0033C7.05472 44.6593 7.12321 44.384 7.12321 44.2464C7.12321 44.0399 7.12321 43.9711 7.12321 43.9711C7.12321 43.9711 7.12322 44.0399 7.19171 44.2464C7.19171 44.4528 7.2602 44.6593 7.32869 45.0033C7.46568 45.6914 7.73965 46.586 8.35609 47.6182C8.63006 48.0999 9.10952 48.5816 9.58897 49.0633C10.0684 49.5449 10.6849 49.9578 11.3698 50.3019C12.0547 50.6459 12.8081 50.8524 13.6301 50.99C14.3835 51.0588 15.3424 51.0588 16.2328 51.0588C17.1232 51.0588 18.0821 51.1276 18.8355 50.99C19.6575 50.9212 20.4109 50.6459 21.0958 50.3019C21.7808 49.9578 22.3287 49.5449 22.8766 49.0633C23.3561 48.5816 23.7671 48.0999 24.1095 47.6182C24.726 46.6548 25.0684 45.6914 25.1369 45.0033C25.2054 44.6593 25.2054 44.384 25.2739 44.2464C25.2739 44.0399 25.3424 43.9711 25.3424 43.9711C25.3424 43.9711 25.3424 44.0399 25.3424 44.2464C25.3424 44.4528 25.3424 44.6593 25.3424 45.0033C25.2739 45.6914 25.1369 46.7236 24.589 47.8246C24.315 48.3751 23.904 48.9256 23.4246 49.5449C22.9451 50.0954 22.3287 50.5771 21.5753 51.0588C20.8218 51.4717 19.9999 51.8157 19.041 51.9534C17.9451 52.091 17.0547 52.091 16.1643 52.091Z" fill="#56BEFF"/>
<path d="M16.1643 5.0921C16.7807 5.0921 17.3972 5.0921 17.9451 5.0921C18.5616 5.0921 19.178 5.22973 19.7259 5.50498C20.8218 5.98666 21.5753 6.81241 21.9862 7.56935C22.3972 8.32629 22.5342 9.01441 22.5342 9.4961C22.5342 9.70254 22.5342 9.90897 22.5342 10.0466C22.5342 10.1842 22.5342 10.253 22.5342 10.253C22.5342 10.253 22.5342 10.1842 22.5342 10.0466C22.5342 9.90897 22.4657 9.77135 22.3972 9.56491C22.2602 9.15204 22.0547 8.53272 21.5753 7.91341C21.0958 7.2941 20.4109 6.7436 19.452 6.39954C18.9725 6.1931 18.4931 6.12429 17.9451 6.12429C17.3287 6.12429 16.7807 6.12429 16.1643 6.12429C15.5479 6.12429 14.9314 6.12429 14.3835 6.12429C13.8355 6.12429 13.3561 6.1931 12.8766 6.33073C11.9177 6.60598 11.2328 7.22529 10.7533 7.8446C10.2739 8.46391 10.0684 9.08322 9.93142 9.4961C9.86293 9.70254 9.86293 9.90897 9.79443 9.97778C9.79443 10.1154 9.79443 10.1842 9.79443 10.1842C9.79443 10.1842 9.79443 10.1154 9.79443 9.97778C9.79443 9.84016 9.79443 9.70253 9.79443 9.42728C9.79443 8.9456 9.93142 8.25747 10.3424 7.50054C10.7533 6.7436 11.5068 5.91785 12.6027 5.43616C13.0821 5.29854 13.6985 5.16091 14.3835 5.0921C14.9314 5.0921 15.5479 5.0921 16.1643 5.0921Z" fill="white"/>
<defs>
<linearGradient id="paint0_linear_106_39" x1="34.5497" y1="40.9071" x2="34.5497" y2="3.95471" gradientUnits="userSpaceOnUse">
<stop offset="0.0588235" stop-color="#FF9D00"/>
<stop offset="0.2957" stop-color="#FFA400"/>
<stop offset="0.6377" stop-color="#FFB700"/>
<stop offset="0.6952" stop-color="#FFBB00"/>
</linearGradient>
<linearGradient id="paint1_linear_106_39" x1="4.6966" y1="7.34537" x2="27.7821" y2="47.1452" gradientUnits="userSpaceOnUse">
<stop stop-color="#C2E8FF"/>
<stop offset="1" stop-color="#38B3FF"/>
</linearGradient>
<linearGradient id="paint2_linear_106_39" x1="16.159" y1="5.19316" x2="16.159" y2="41.4232" gradientUnits="userSpaceOnUse">
<stop offset="0.0534759" stop-color="white"/>
<stop offset="0.2359" stop-color="#C0C0C0"/>
<stop offset="0.5477" stop-color="#5A5A5A"/>
<stop offset="0.7645" stop-color="#191919"/>
<stop offset="0.8663"/>
</linearGradient>
<linearGradient id="paint3_linear_106_39" x1="6.4395" y1="12.6516" x2="24.9279" y2="44.5259" gradientUnits="userSpaceOnUse">
<stop stop-color="#7ACDFF"/>
<stop offset="0.1573" stop-color="#74C8FC"/>
<stop offset="0.3736" stop-color="#62BAF2"/>
<stop offset="0.6239" stop-color="#45A2E3"/>
<stop offset="0.898" stop-color="#1D82CD"/>
<stop offset="1" stop-color="#0C74C4"/>
</linearGradient>
<linearGradient id="paint4_linear_106_39" x1="12.0498" y1="32.9075" x2="19.6522" y2="32.9075" gradientUnits="userSpaceOnUse">
<stop offset="0.1337" stop-color="#EE1F00"/>
<stop offset="0.3007" stop-color="#F12D00"/>
<stop offset="0.6161" stop-color="#F75200"/>
<stop offset="0.9144" stop-color="#FF7B00"/>
</linearGradient>
<linearGradient id="paint5_linear_106_39" x1="15.9927" y1="40.5973" x2="15.9927" y2="45.681" gradientUnits="userSpaceOnUse">
<stop offset="0.0534759" stop-color="#FFFF5F"/>
<stop offset="0.2359" stop-color="#C0C048"/>
<stop offset="0.5477" stop-color="#5A5A21"/>
<stop offset="0.7645" stop-color="#191909"/>
<stop offset="0.8663"/>
</linearGradient>
<linearGradient id="paint6_linear_106_39" x1="15.9919" y1="18.5085" x2="15.9919" y2="39.6683" gradientUnits="userSpaceOnUse">
<stop offset="0.0534759" stop-color="#FFFF5F"/>
<stop offset="0.2359" stop-color="#C0C048"/>
<stop offset="0.5477" stop-color="#5A5A21"/>
<stop offset="0.7645" stop-color="#191909"/>
<stop offset="0.8663"/>
</linearGradient>
</defs>
</svg>
