<svg width="36" height="27" viewBox="0 0 36 27" fill="none" xmlns="http://www.w3.org/2000/svg">
<path d="M29.3254 6.99903C29.3522 6.84175 29.3522 6.65825 29.3522 6.50097C29.3522 2.90971 26.2427 0 22.4363 0C19.3537 0 16.7267 1.93981 15.8421 4.58738C14.8503 3.87961 13.5637 3.46019 12.1966 3.46019C9.03351 3.46019 6.46016 5.68835 6.46016 8.41456C6.46016 8.65049 6.48697 8.88641 6.51377 9.12233C2.76098 9.69903 0 11.7437 0 14.1291C0 16.9864 3.94043 19.3194 8.79226 19.3194C10.5078 19.3194 12.0894 19.0311 13.4296 18.533C14.8771 19.1883 16.6731 19.5553 18.6031 19.5553C20.4527 19.5553 22.1683 19.2146 23.589 18.6117C24.8488 19.2932 26.3768 19.6602 28.0119 19.6602C32.4348 19.6602 36 16.8029 36 13.2903C36 10.1447 33.105 7.49709 29.3254 6.99903Z" fill="url(#paint0_radial_54_7952)"/>
<path d="M16.4317 5.03302L16.2173 5.66215L15.6544 5.26894C14.7698 4.63981 13.6439 4.29904 12.4913 4.29904C9.78393 4.29904 7.55906 6.18642 7.55906 8.49321C7.55906 8.67671 7.58586 8.88642 7.61267 9.09613L7.69308 9.56797L7.23739 9.64661C3.85987 10.1709 1.50098 11.9272 1.50098 13.8932C1.50098 16.3311 5.01252 18.3233 9.30142 18.3233C10.8025 18.3233 12.25 18.0874 13.5099 17.6155L13.6976 17.5369L13.8852 17.6155C15.2523 18.2185 16.8606 18.533 18.5762 18.533C20.2113 18.533 21.7661 18.2447 23.0795 17.6942L23.294 17.6155L23.5084 17.7204C24.6611 18.3495 26.0282 18.6641 27.4489 18.6641C31.3357 18.6641 34.4987 16.1738 34.4987 13.1068C34.4987 10.3806 32.0326 8.10001 28.6283 7.62816L28.1726 7.57574L28.2262 6.68447C28.2262 3.56506 25.5188 1.02234 22.2218 1.02234C19.5412 1.02234 17.2091 2.64758 16.4317 5.03302Z" fill="url(#paint1_radial_54_7952)"/>
<path d="M33.5875 12.9233C33.5875 10.7214 31.4966 8.83402 28.6016 8.46703L27.2077 8.28354C27.2077 8.28354 27.2882 6.55344 27.2882 6.50101C27.2882 3.93208 25.0633 1.86121 22.3023 1.86121C20.8816 1.86121 19.5949 2.41169 18.6567 3.32917C19.4341 2.85732 20.3723 2.56897 21.3641 2.56897C24.0983 2.56897 26.35 4.63985 26.35 7.20878C26.35 7.26121 26.2695 8.9913 26.2695 8.9913L27.6634 9.1748C30.5585 9.568 32.6493 11.4292 32.6493 13.6311C32.6493 14.6797 32.1668 15.6233 31.3894 16.4098C32.7297 15.5709 33.5875 14.3127 33.5875 12.9233Z" fill="url(#paint2_radial_54_7952)"/>
<path d="M19.0052 6.23878C19.0052 6.13392 19.032 6.02907 19.032 5.898C19.032 3.56499 17.0216 1.67761 14.5555 1.67761C12.545 1.67761 10.8563 2.93586 10.2934 4.66596C9.65004 4.19412 8.81906 3.93198 7.93447 3.93198C5.87044 3.93198 4.20849 5.37373 4.20849 7.13004C4.20849 7.28732 4.23529 7.4446 4.23529 7.60188C1.79598 7.99509 0 9.30577 0 10.8786C0 12.7397 2.54654 14.2339 5.6828 14.2339C6.78183 14.2339 7.82725 14.0504 8.68503 13.7359C9.62323 14.1553 10.7759 14.3912 12.0357 14.3912C13.242 14.3912 14.341 14.1553 15.2524 13.7883C16.0834 14.2339 17.0484 14.4698 18.1206 14.4698C20.9888 14.4698 23.2941 12.6087 23.2941 10.3281C23.3209 8.28344 21.4445 6.57955 19.0052 6.23878Z" fill="url(#paint3_radial_54_7952)"/>
<path d="M10.6417 4.98058L10.5077 5.4L10.1592 5.13786C9.59627 4.71845 8.84571 4.50874 8.12195 4.50874C6.35278 4.50874 4.93208 5.74078 4.93208 7.23495C4.93208 7.36602 4.93208 7.49709 4.95889 7.62816L5.0125 7.94272L4.69083 7.99515C2.49277 8.28349 0.964844 9.43689 0.964844 10.7214C0.964844 12.2942 3.24332 13.5786 6.03111 13.5786C6.99612 13.5786 7.93432 13.4214 8.76529 13.1068L8.89932 13.0544L9.00654 13.1068C9.89113 13.5 10.9366 13.7097 12.0356 13.7097C13.081 13.7097 14.0996 13.5262 14.9574 13.1592L15.0914 13.1068L15.2255 13.1854C15.976 13.5786 16.8606 13.7884 17.772 13.7884C20.2917 13.7884 22.3558 12.1631 22.3558 10.1971C22.3558 8.44078 20.7474 6.9466 18.5494 6.65825L18.2545 6.63204L18.2813 6.05534C18.2813 4.03689 16.5389 2.38544 14.3945 2.38544C12.6521 2.38544 11.151 3.40777 10.6417 4.98058Z" fill="url(#paint4_radial_54_7952)"/>
<path d="M21.7663 10.0659C21.7663 8.65041 20.3992 7.41837 18.5496 7.18245L17.665 7.05138C17.665 7.05138 17.7186 5.9242 17.7186 5.89799C17.7186 4.24653 16.2711 2.88342 14.502 2.88342C13.5906 2.88342 12.7328 3.25041 12.1431 3.82711C12.6524 3.51255 13.2689 3.35527 13.9122 3.35527C15.6814 3.35527 17.1289 4.69216 17.1289 6.36983C17.1289 6.42226 17.0753 7.52323 17.0753 7.52323L17.9599 7.6543C19.8363 7.89022 21.1766 9.12226 21.1766 10.5378C21.1766 11.2193 20.8817 11.8223 20.3724 12.3203C21.2034 11.796 21.7663 10.9834 21.7663 10.0659Z" fill="url(#paint5_radial_54_7952)"/>
<defs>
<radialGradient id="paint0_radial_54_7952" cx="0" cy="0" r="1" gradientUnits="userSpaceOnUse" gradientTransform="translate(24.6053 24.041) scale(28.282 27.6574)">
<stop offset="0.005618" stop-color="#A9D1EF"/>
<stop offset="0.5393" stop-color="#1998D5"/>
<stop offset="1" stop-color="#0073BB"/>
</radialGradient>
<radialGradient id="paint1_radial_54_7952" cx="0" cy="0" r="1" gradientUnits="userSpaceOnUse" gradientTransform="translate(29.5951 6.77449) scale(17.9135 17.5178)">
<stop offset="0.005618" stop-color="#A9D1EF"/>
<stop offset="0.5393" stop-color="#1998D5"/>
<stop offset="1" stop-color="#0073BB"/>
</radialGradient>
<radialGradient id="paint2_radial_54_7952" cx="0" cy="0" r="1" gradientUnits="userSpaceOnUse" gradientTransform="translate(29.477 7.94453) scale(21.4792 21.0048)">
<stop stop-color="#CBEBFB"/>
<stop offset="0.7767" stop-color="#BDCDDA"/>
<stop offset="1" stop-color="#B9C4D0"/>
</radialGradient>
<radialGradient id="paint3_radial_54_7952" cx="0" cy="0" r="1" gradientUnits="userSpaceOnUse" gradientTransform="translate(15.8429 17.1838) scale(18.3268 17.922)">
<stop offset="0.005618" stop-color="#A9D1EF"/>
<stop offset="0.5393" stop-color="#1998D5"/>
<stop offset="1" stop-color="#0073BB"/>
</radialGradient>
<radialGradient id="paint4_radial_54_7952" cx="0" cy="0" r="1" gradientUnits="userSpaceOnUse" gradientTransform="translate(19.0763 5.99483) scale(11.6079 11.3515)">
<stop offset="0.005618" stop-color="#A9D1EF"/>
<stop offset="0.5393" stop-color="#1998D5"/>
<stop offset="1" stop-color="#0073BB"/>
</radialGradient>
<radialGradient id="paint5_radial_54_7952" cx="0" cy="0" r="1" gradientUnits="userSpaceOnUse" gradientTransform="translate(18.9573 6.7553) scale(13.9178 13.6104)">
<stop stop-color="#CBEBFB"/>
<stop offset="0.7767" stop-color="#BDCDDA"/>
<stop offset="1" stop-color="#B9C4D0"/>
</radialGradient>
</defs>
</svg>
