<svg width="30" height="30" viewBox="0 0 30 30" fill="none" xmlns="http://www.w3.org/2000/svg">
<path d="M14.9998 4.8913C15.3585 4.8913 15.652 4.59782 15.652 4.23912V3.91304C15.652 3.55434 15.3585 3.26086 14.9998 3.26086C14.6411 3.26086 14.3477 3.55434 14.3477 3.91304V4.23912C14.3477 4.59782 14.6411 4.8913 14.9998 4.8913Z" fill="black"/>
<path d="M14.9998 25.1087C14.6411 25.1087 14.3477 25.4022 14.3477 25.7609V26.087C14.3477 26.4457 14.6411 26.7391 14.9998 26.7391C15.3585 26.7391 15.652 26.4457 15.652 26.087V25.7609C15.652 25.4022 15.3585 25.1087 14.9998 25.1087Z" fill="black"/>
<path d="M4.239 14.3478H3.91291C3.55422 14.3478 3.26074 14.6413 3.26074 15C3.26074 15.3587 3.55422 15.6522 3.91291 15.6522H4.239C4.5977 15.6522 4.89117 15.3587 4.89117 15C4.89117 14.6413 4.5977 14.3478 4.239 14.3478Z" fill="black"/>
<path d="M26.0871 14.3478H25.7611C25.4024 14.3478 25.1089 14.6413 25.1089 15C25.1089 15.3587 25.4024 15.6522 25.7611 15.6522H26.0871C26.4458 15.6522 26.7393 15.3587 26.7393 15C26.7393 14.6413 26.4458 14.3478 26.0871 14.3478Z" fill="black"/>
<path d="M7.63067 6.71738C7.3698 6.45651 6.9785 6.45651 6.71763 6.71738C6.45676 6.97825 6.45676 7.36955 6.71763 7.63042L6.94589 7.85868C7.07632 7.98912 7.23937 8.05434 7.40241 8.05434C7.56545 8.05434 7.7285 7.98912 7.85893 7.85868C8.1198 7.59781 8.1198 7.20651 7.85893 6.94564L7.63067 6.71738Z" fill="black"/>
<path d="M6.94589 22.1413L6.71763 22.3696C6.45676 22.6305 6.45676 23.0218 6.71763 23.2826C6.84806 23.4131 7.0111 23.4783 7.17415 23.4783C7.33719 23.4783 7.50024 23.4131 7.63067 23.2826L7.85893 23.0544C8.1198 22.7935 8.1198 22.4022 7.85893 22.1413C7.59806 21.8805 7.20676 21.8805 6.94589 22.1413Z" fill="black"/>
<path d="M22.3692 6.71738L22.141 6.94564C21.8801 7.20651 21.8801 7.59781 22.141 7.85868C22.2714 7.98912 22.4344 8.05434 22.5975 8.05434C22.7605 8.05434 22.9236 7.98912 23.054 7.85868L23.2823 7.63042C23.5432 7.36955 23.5432 6.97825 23.2823 6.71738C23.0214 6.45651 22.6301 6.45651 22.3692 6.71738Z" fill="black"/>
<path d="M15.652 14.7391V8.80433C15.652 8.44564 15.3585 8.15216 14.9998 8.15216C14.6411 8.15216 14.3477 8.44564 14.3477 8.80433V15C14.3477 15.163 14.4129 15.3261 14.5433 15.4565L21.6846 22.5978C21.815 22.7282 21.9781 22.7935 22.1411 22.7935C22.3042 22.7935 22.4672 22.7282 22.5976 22.5978C22.8585 22.3369 22.8585 21.9456 22.5976 21.6848L15.652 14.7391Z" fill="black"/>
<path d="M15 0C6.71739 0 0 6.71739 0 15C0 23.2826 6.71739 30 15 30C23.2826 30 30 23.2826 30 15C30 6.71739 23.2826 0 15 0ZM15 28.6957C7.43478 28.6957 1.30435 22.5652 1.30435 15C1.30435 7.43478 7.43478 1.30435 15 1.30435C22.5652 1.30435 28.6957 7.43478 28.6957 15C28.6957 22.5652 22.5652 28.6957 15 28.6957Z" fill="black"/>
</svg>
