<svg width="31" height="31" viewBox="0 0 31 31" fill="none" xmlns="http://www.w3.org/2000/svg">
<g clip-path="url(#clip0_63_2681)">
<path d="M29.8213 23.826C27.0609 28.132 22.2372 30.988 16.7457 30.9999C8.23807 31.0183 1.25247 24.1366 1.1496 15.6296C1.05285 7.62515 6.99982 0.989394 14.7137 0.00163242C14.8786 -0.0194984 14.986 0.169105 14.8858 0.301703C13.0259 2.7636 11.9232 5.82878 11.9232 9.15226C11.9232 17.2694 18.5032 23.8493 26.6202 23.8493C27.6498 23.8493 28.6541 23.7437 29.6238 23.542C29.7866 23.5082 29.9111 23.6861 29.8213 23.826Z" fill="url(#paint0_linear_63_2681)"/>
<path d="M29.6239 23.5418C29.7864 23.508 29.9109 23.6855 29.8213 23.8253C27.0552 28.1406 22.2172 31 16.7112 31C8.11569 31 1.14844 24.0321 1.14844 15.4372C1.14844 11.9977 2.26395 8.81907 4.15368 6.24255C3.72465 7.64997 3.49003 9.14203 3.48064 10.6878C3.42815 19.348 10.3835 26.3474 19.0439 26.347C22.1821 26.3469 25.1031 25.4181 27.5468 23.8198C28.2542 23.7763 28.9476 23.6825 29.6239 23.5418Z" fill="#204EC7"/>
</g>
<defs>
<linearGradient id="paint0_linear_63_2681" x1="15.4999" y1="0" x2="15.4999" y2="30.9999" gradientUnits="userSpaceOnUse">
<stop stop-color="#204EC7"/>
<stop offset="1" stop-color="#C4D0F1"/>
</linearGradient>
<clipPath id="clip0_63_2681">
<rect width="31" height="31" fill="white"/>
</clipPath>
</defs>
</svg>
