<svg width="246" height="59" viewBox="0 0 246 59" fill="none" xmlns="http://www.w3.org/2000/svg">
<path d="M245.4 58.1C238.7 47.8 227.2 41 214 41C205 41 196.7 44.2 190.2 49.5C187.2 36.3 175.4 26.5 161.3 26.5C158.6 26.5 156.1 26.9 153.6 27.5C146.5 14.5 132.6 5.7 116.8 5.7C96.5 5.7 79.6 20.1 75.7 39.2C70.1 33.7 62.5 30.3 54 30.3C44.8 30.3 36.6 34.3 30.9 40.6C24.7 29.9 13.2 22.7 0 22.7C-11.9 22.7 -22.5 28.6 -28.9 37.5C-34.7 33 -41.9 30.2 -49.8 30.2C-51.8 30.2 -53.7 30.4 -55.6 30.7C-60.9 18.9 -72.7 10.6 -86.5 10.6C-100 10.6 -111.7 18.6 -117.1 30.1C-122.1 25.5 -128.7 22.6 -136.1 22.6C-138.7 22.6 -141.1 23 -143.5 23.6C-148 10 -160.9 0 -176.2 0C-191.5 0 -204.4 10 -208.9 23.7C-212.7 21.5 -217.2 20.2 -222 20.2C-235.3 20.2 -246.3 30.3 -247.7 43.2C-251.2 41.8 -255 41 -258.9 41C-270.9 41 -281.2 48 -286 58.1H245.4Z" fill="white" fill-opacity="0.3"/>
</svg>
