<svg width="24" height="30" viewBox="0 0 24 30" fill="none" xmlns="http://www.w3.org/2000/svg">
<path d="M19.5519 4.84349C19.5519 4.71993 19.5764 4.62109 19.5764 4.49753C19.5764 2.00165 17.5234 0 14.9817 0C12.9043 0 11.169 1.33443 10.5825 3.1631C9.92261 2.66886 9.06721 2.37232 8.13849 2.37232C6.03666 2.37232 4.30143 3.90445 4.30143 5.78254C4.30143 5.95552 4.32587 6.10379 4.35031 6.27677C1.85743 6.69687 0 8.08072 0 9.76112C0 11.7381 2.61507 13.3443 5.86558 13.3443C7.01426 13.3443 8.06517 13.1466 8.96945 12.8007C9.94705 13.2455 11.1202 13.5173 12.4155 13.5173C13.6619 13.5173 14.7862 13.2702 15.7393 12.8748C16.5947 13.3443 17.5967 13.6161 18.6721 13.6161C21.6049 13.6161 24 11.6392 24 9.21746C24 6.99341 22.0937 5.18946 19.5519 4.84349Z" fill="url(#paint0_radial_54_6925)"/>
<path d="M10.9734 3.48432L10.8268 3.92913L10.4602 3.65731C9.87364 3.2125 9.11601 2.96538 8.35837 2.96538C6.54981 2.96538 5.08342 4.2751 5.08342 5.85665C5.08342 5.98021 5.08342 6.12848 5.10786 6.27675L5.15674 6.598L4.83902 6.64742C2.59055 7.0181 1.00195 8.22897 1.00195 9.58811C1.00195 11.2685 3.34819 12.6277 6.20766 12.6277C7.20969 12.6277 8.18729 12.4547 9.01825 12.1334L9.14045 12.084L9.26265 12.1334C10.1669 12.5535 11.2423 12.7759 12.391 12.7759C13.4663 12.7759 14.5172 12.5782 15.3971 12.1828L15.5437 12.1087L15.6903 12.1828C16.4724 12.6029 17.3767 12.8253 18.3054 12.8253C20.896 12.8253 23.0223 11.1202 23.0223 8.99503C23.0223 7.11694 21.3848 5.53539 19.1119 5.21414L18.8187 5.16472L18.8431 4.54693C18.8187 2.47114 17.0101 0.716614 14.8105 0.716614C13.0264 0.716614 11.4867 1.82864 10.9734 3.48432Z" fill="url(#paint1_radial_54_6925)"/>
<path d="M22.387 8.89623C22.387 7.38882 20.9939 6.0791 19.0632 5.80727L18.1344 5.68371C18.1344 5.68371 18.1833 4.49755 18.1833 4.44812C18.1833 2.69359 16.6925 1.26031 14.8595 1.26031C13.9063 1.26031 13.0509 1.63099 12.4399 2.27349C12.9532 1.95224 13.5886 1.75455 14.2485 1.75455C16.1059 1.77926 17.5968 3.21254 17.5968 4.96707C17.5968 5.01649 17.5479 6.20265 17.5479 6.20265L18.4766 6.32621C20.4074 6.59804 21.8004 7.88305 21.8004 9.41517C21.8004 10.1318 21.4827 10.799 20.9695 11.318C21.8249 10.7249 22.387 9.8847 22.387 8.89623Z" fill="url(#paint2_radial_54_6925)"/>
<path d="M12.6843 4.29988C12.6843 4.22575 12.6843 4.15161 12.6843 4.07748C12.6843 2.47122 11.3401 1.1615 9.70265 1.1615C8.35845 1.1615 7.23422 2.02641 6.84318 3.21257C6.40326 2.89132 5.86558 2.69362 5.25458 2.69362C3.88595 2.69362 2.78615 3.68209 2.78615 4.91768C2.78615 5.01652 2.78615 5.14008 2.81059 5.23893C1.19756 5.51076 0 6.42509 0 7.48769C0 8.7727 1.71079 9.81059 3.78819 9.81059C4.52138 9.81059 5.2057 9.68703 5.79226 9.46463C6.4277 9.76117 7.18534 9.93415 8.04073 9.93415C8.84725 9.93415 9.58045 9.78588 10.1914 9.51405C10.7291 9.81059 11.389 9.98358 12.0978 9.98358C14.0041 9.98358 15.5438 8.69857 15.5438 7.14173C15.5682 5.70845 14.3218 4.52229 12.6843 4.29988Z" fill="url(#paint3_radial_54_6925)"/>
<path d="M7.11186 3.43501L7.0141 3.70684L6.7697 3.53386C6.37866 3.26203 5.88986 3.08905 5.40106 3.08905C4.22795 3.08905 3.27479 3.92925 3.27479 4.96714C3.27479 5.06599 3.27479 5.14012 3.29923 5.23897L3.32367 5.46137L3.10371 5.48608C1.63732 5.7332 0.61084 6.49926 0.61084 7.38889C0.61084 8.4762 2.12611 9.36582 3.98355 9.36582C4.61899 9.36582 5.25442 9.26697 5.81654 9.04457L5.88986 9.01986L5.96318 9.04457C6.54974 9.3164 7.2585 9.46467 7.99169 9.46467C8.70045 9.46467 9.36033 9.34111 9.94689 9.09399L10.0446 9.04457L10.1424 9.09399C10.6556 9.36582 11.2422 9.51409 11.8532 9.51409C13.5396 9.51409 14.9082 8.40206 14.9082 7.04292C14.9082 5.83205 13.8328 4.79416 12.3664 4.59646L12.1709 4.57175L12.1954 4.17636C12.1954 2.79251 11.0222 1.65577 9.60473 1.65577C8.45605 1.63106 7.45402 2.3477 7.11186 3.43501Z" fill="url(#paint4_radial_54_6925)"/>
<path d="M14.5171 6.94405C14.5171 5.95558 13.6128 5.11538 12.3663 4.9424L11.7798 4.86827C11.7798 4.86827 11.8042 4.1022 11.8042 4.07749C11.8042 2.94075 10.8266 2.00171 9.65351 2.00171C9.04251 2.00171 8.48039 2.24883 8.08936 2.64421C8.43151 2.42181 8.82255 2.29825 9.26247 2.29825C10.46 2.29825 11.4132 3.23729 11.4132 4.37403C11.4132 4.39874 11.3887 5.1648 11.3887 5.1648L11.9753 5.23894C13.2217 5.41192 14.126 6.25212 14.126 7.24059C14.126 7.71011 13.9305 8.13021 13.5883 8.47617C14.1505 8.13021 14.5171 7.56184 14.5171 6.94405Z" fill="url(#paint5_radial_54_6925)"/>
<path d="M7.45423 12.4053V12.776C7.45423 13.888 7.86971 14.9753 8.23631 15.9391C8.55403 16.7793 8.82287 17.4712 8.82287 18.1384C8.82287 19.7199 7.55199 21.005 5.98784 21.005C4.42368 21.005 3.17725 19.7199 3.17725 18.1631C3.17725 16.7545 4.83916 13.3938 6.62328 12.3311L7.45423 11.8369V12.4053Z" fill="url(#paint6_radial_54_6925)"/>
<path d="M7.11223 12.8007C7.11223 13.9868 7.55215 15.0988 7.91874 16.0873C8.21202 16.8781 8.48086 17.57 8.48086 18.1631C8.48086 19.547 7.35663 20.6837 5.98799 20.6837C4.61935 20.6837 3.49512 19.547 3.49512 18.1631C3.49512 16.8287 5.13259 13.5914 6.79451 12.603L7.11223 12.4053V12.8007Z" fill="url(#paint7_radial_54_6925)"/>
<path d="M7.8211 17.4958C7.8211 17.0263 7.6989 16.4827 7.52782 15.8649C7.84554 16.6804 8.13882 17.4217 8.13882 18.0148C8.13882 19.2751 7.11234 20.313 5.8659 20.313C5.81702 20.313 5.7437 20.313 5.69482 20.313C6.86794 20.2141 7.8211 18.9785 7.8211 17.4958Z" fill="#D1DCEE"/>
<path d="M5.62155 14.9011C5.59711 14.8517 5.59711 14.7282 5.67043 14.654C5.71931 14.5552 5.79263 14.5305 5.84151 14.5799C5.86595 14.6293 5.86595 14.7529 5.79263 14.827C5.74375 14.9259 5.67043 14.9506 5.62155 14.9011Z" fill="#F1E6DD"/>
<path d="M4.88832 16.1861C4.83944 16.112 4.88832 15.9143 4.98608 15.766C5.08384 15.6177 5.20604 15.5683 5.27936 15.6425C5.32824 15.7166 5.3038 15.9143 5.1816 16.0626C5.08384 16.2108 4.9372 16.2602 4.88832 16.1861Z" fill="#F1E6DD"/>
<path d="M11.2913 10.0083V10.2307C11.2913 10.8979 11.5357 11.5651 11.7557 12.1335C11.9512 12.6277 12.1223 13.0725 12.1223 13.4679C12.1223 14.4069 11.3646 15.1977 10.4115 15.1977C9.48276 15.1977 8.70068 14.4317 8.70068 13.4679C8.70068 12.603 9.70272 10.6013 10.7781 9.95883L11.2669 9.66229V10.0083H11.2913Z" fill="url(#paint8_radial_54_6925)"/>
<path d="M11.0955 10.2306C11.0955 10.9473 11.3644 11.6145 11.5843 12.2076C11.7554 12.6771 11.9265 13.0972 11.9265 13.4679C11.9265 14.3081 11.2422 14.9753 10.4357 14.9753C9.62914 14.9753 8.94482 14.2834 8.94482 13.4679C8.94482 12.6771 9.92242 10.7249 10.9245 10.1318L11.12 10.0082V10.2306H11.0955Z" fill="url(#paint9_radial_54_6925)"/>
<path d="M11.5116 13.0479C11.5116 12.7513 11.4383 12.4301 11.3405 12.0594C11.536 12.5536 11.7071 12.9984 11.7071 13.3444C11.7071 14.1105 11.0961 14.7283 10.3385 14.7283C10.314 14.7283 10.2652 14.7283 10.2407 14.7283C10.9495 14.7035 11.5116 13.9622 11.5116 13.0479Z" fill="#D1DCEE"/>
<path d="M10.1918 11.491C10.1673 11.4662 10.1918 11.3921 10.2162 11.3427C10.2406 11.2933 10.2895 11.2686 10.314 11.2933C10.3384 11.318 10.314 11.3921 10.2895 11.4415C10.2651 11.5157 10.2162 11.5404 10.1918 11.491Z" fill="#F1E6DD"/>
<path d="M9.75178 12.2817C9.72734 12.2323 9.75177 12.1334 9.80065 12.0346C9.87398 11.9357 9.9473 11.911 9.97174 11.9604C9.99618 12.0099 9.97174 12.1087 9.92286 12.2076C9.84953 12.2817 9.77622 12.3064 9.75178 12.2817Z" fill="#F1E6DD"/>
<path d="M11.731 15.8402V16.0132C11.731 16.5074 11.9266 17.0016 12.0732 17.4464C12.2198 17.8171 12.342 18.1384 12.342 18.4349C12.342 19.1516 11.7799 19.7199 11.0712 19.7199C10.3624 19.7199 9.80029 19.1516 9.80029 18.4349C9.80029 17.7924 10.5579 16.285 11.3644 15.8155L11.731 15.5684V15.8402Z" fill="url(#paint10_radial_54_6925)"/>
<path d="M11.5843 16.0132C11.5843 16.5321 11.7798 17.0511 11.9509 17.4959C12.0975 17.8419 12.1952 18.1631 12.1952 18.4349C12.1952 19.0527 11.682 19.5717 11.071 19.5717C10.46 19.5717 9.94678 19.0527 9.94678 18.4349C9.94678 17.8419 10.68 16.3839 11.4376 15.9391L11.5843 15.8649V16.0132Z" fill="url(#paint11_radial_54_6925)"/>
<path d="M11.9019 18.1137C11.9019 17.8913 11.853 17.6441 11.7553 17.3723C11.9019 17.743 12.0241 18.0642 12.0241 18.3361C12.0241 18.9044 11.5598 19.374 10.9976 19.374C10.9732 19.374 10.9488 19.374 10.9243 19.374C11.462 19.3245 11.9019 18.7809 11.9019 18.1137Z" fill="#D1DCEE"/>
<path d="M10.9003 16.9522C10.8758 16.9275 10.9003 16.8781 10.9247 16.8287C10.9491 16.7792 10.9736 16.7792 10.998 16.804C11.0225 16.8287 10.998 16.8781 10.9736 16.9275C10.9491 16.9522 10.9247 16.9769 10.9003 16.9522Z" fill="#F1E6DD"/>
<path d="M10.5823 17.5206C10.5579 17.4711 10.5823 17.397 10.6312 17.3229C10.6801 17.2487 10.729 17.224 10.7534 17.2735C10.7779 17.2982 10.7534 17.397 10.7045 17.4711C10.6557 17.5453 10.6068 17.57 10.5823 17.5206Z" fill="#F1E6DD"/>
<path d="M14.9576 19.7694V19.9424C14.9576 20.4366 15.1531 20.9308 15.2998 21.3757C15.4464 21.7463 15.5686 22.0676 15.5686 22.3641C15.5686 23.0808 15.0065 23.6491 14.2977 23.6491C13.589 23.6491 13.0269 23.0808 13.0269 22.3641C13.0269 21.7216 13.7845 20.2142 14.591 19.7447L14.9576 19.5223V19.7694Z" fill="url(#paint12_radial_54_6925)"/>
<path d="M14.7864 19.9424C14.7864 20.4613 14.9819 20.9803 15.153 21.4251C15.2996 21.7711 15.3974 22.0923 15.3974 22.3641C15.3974 22.9819 14.8842 23.5009 14.2732 23.5009C13.6622 23.5009 13.1489 22.9819 13.1489 22.3641C13.1489 21.7711 13.8821 20.3131 14.6398 19.8683L14.7864 19.7941V19.9424Z" fill="url(#paint13_radial_54_6925)"/>
<path d="M15.1041 22.0429C15.1041 21.8205 15.0552 21.5734 14.9574 21.3016C15.1041 21.6723 15.2263 21.9935 15.2263 22.2653C15.2263 22.8337 14.7619 23.3032 14.1998 23.3032C14.1753 23.3032 14.1509 23.3032 14.1265 23.3032C14.6886 23.2785 15.1041 22.7101 15.1041 22.0429Z" fill="#D1DCEE"/>
<path d="M14.1268 20.8814C14.1024 20.8567 14.1268 20.8073 14.1513 20.7579C14.1757 20.7084 14.2001 20.7084 14.2246 20.7332C14.249 20.7579 14.2246 20.8073 14.2001 20.8567C14.1757 20.9061 14.1513 20.9061 14.1268 20.8814Z" fill="#F1E6DD"/>
<path d="M13.8089 21.4498C13.7845 21.4251 13.8089 21.3262 13.8578 21.2521C13.9067 21.1779 13.9555 21.1532 13.98 21.2027C14.0044 21.2274 13.98 21.3262 13.9311 21.4003C13.8822 21.4745 13.8333 21.4992 13.8089 21.4498Z" fill="#F1E6DD"/>
<path d="M10.4603 20.9308V21.2026C10.4603 22.0181 10.7536 22.8089 11.0224 23.5255C11.2424 24.1186 11.4624 24.6622 11.4624 25.1318C11.4624 26.2932 10.5336 27.2075 9.4094 27.2075C8.26072 27.2075 7.35645 26.2685 7.35645 25.1318C7.35645 24.0939 8.57844 21.6474 9.87376 20.8566L10.4848 20.486V20.9308H10.4603Z" fill="url(#paint14_radial_54_6925)"/>
<path d="M10.2162 21.2026C10.2162 22.0675 10.5339 22.883 10.8027 23.5996C11.0227 24.168 11.2182 24.687 11.2182 25.1071C11.2182 26.1202 10.4117 26.9357 9.38521 26.9357C8.38318 26.9357 7.57666 26.1202 7.57666 25.1071C7.57666 24.1433 8.77422 21.771 9.97177 21.0543L10.2162 20.9061V21.2026Z" fill="url(#paint15_radial_54_6925)"/>
<path d="M10.7292 24.6375C10.7292 24.2916 10.6314 23.8962 10.5092 23.4514C10.7292 24.0444 10.9492 24.5881 10.9492 25.0082C10.9492 25.9472 10.216 26.6886 9.28724 26.6886C9.23836 26.6886 9.21392 26.6886 9.16504 26.6886C10.0449 26.6392 10.7292 25.7248 10.7292 24.6375Z" fill="#D1DCEE"/>
<path d="M9.14049 22.7595C9.11605 22.7348 9.14049 22.6359 9.16493 22.5865C9.21381 22.5124 9.26269 22.4876 9.28713 22.5371C9.31157 22.5618 9.28713 22.6606 9.26269 22.71C9.21381 22.7595 9.16493 22.7842 9.14049 22.7595Z" fill="#F1E6DD"/>
<path d="M8.60268 23.6985C8.5538 23.6491 8.60268 23.5008 8.676 23.402C8.74932 23.3031 8.84708 23.2537 8.87152 23.3031C8.9204 23.3526 8.89596 23.5008 8.7982 23.5997C8.74932 23.6985 8.65156 23.748 8.60268 23.6985Z" fill="#F1E6DD"/>
<path d="M16.5214 11.5898V11.8617C16.5214 12.6771 16.8146 13.4679 17.0835 14.1846C17.3034 14.7776 17.5234 15.3213 17.5234 15.7908C17.5234 16.9523 16.5947 17.8666 15.4704 17.8666C14.3218 17.8666 13.4175 16.9276 13.4175 15.7908C13.4175 14.7529 14.6395 12.3065 15.9348 11.5157L16.5458 11.145V11.5898H16.5214Z" fill="url(#paint16_radial_54_6925)"/>
<path d="M16.2772 11.8617C16.2772 12.7266 16.5949 13.5421 16.8638 14.2587C17.0837 14.8271 17.2792 15.346 17.2792 15.7661C17.2792 16.7793 16.4727 17.5948 15.4462 17.5948C14.4442 17.5948 13.6377 16.7793 13.6377 15.7661C13.6377 14.8024 14.8353 12.43 16.0328 11.7134L16.2772 11.5651V11.8617Z" fill="url(#paint17_radial_54_6925)"/>
<path d="M16.7902 15.2966C16.7902 14.9506 16.6925 14.5552 16.5703 14.1104C16.7902 14.7035 17.0102 15.2472 17.0102 15.6672C17.0102 16.6063 16.277 17.3476 15.3483 17.3476C15.2994 17.3476 15.275 17.3476 15.2261 17.3476C16.1059 17.2735 16.7902 16.3839 16.7902 15.2966Z" fill="#D1DCEE"/>
<path d="M15.2015 13.3938C15.1771 13.3691 15.2015 13.2703 15.226 13.2208C15.2748 13.1467 15.3237 13.122 15.3482 13.1714C15.3726 13.1961 15.3482 13.295 15.3237 13.3444C15.2748 13.4185 15.226 13.4432 15.2015 13.3938Z" fill="#F1E6DD"/>
<path d="M14.6637 14.3329C14.6148 14.2834 14.6637 14.1352 14.737 14.0363C14.8104 13.9375 14.9081 13.8881 14.9326 13.9375C14.9814 13.9869 14.957 14.1352 14.8592 14.234C14.7859 14.3576 14.6882 14.3823 14.6637 14.3329Z" fill="#F1E6DD"/>
<defs>
<radialGradient id="paint0_radial_54_6925" cx="0" cy="0" r="1" gradientUnits="userSpaceOnUse" gradientTransform="translate(16.5088 16.6811) scale(18.8677 19.0775)">
<stop offset="0.005618" stop-color="#A9D1EF"/>
<stop offset="0.5393" stop-color="#1998D5"/>
<stop offset="1" stop-color="#0073BB"/>
</radialGradient>
<radialGradient id="paint1_radial_54_6925" cx="0" cy="0" r="1" gradientUnits="userSpaceOnUse" gradientTransform="translate(19.8378 4.77055) scale(11.9507 12.0836)">
<stop offset="0.005618" stop-color="#A9D1EF"/>
<stop offset="0.5393" stop-color="#1998D5"/>
<stop offset="1" stop-color="#0073BB"/>
</radialGradient>
<radialGradient id="paint2_radial_54_6925" cx="0" cy="0" r="1" gradientUnits="userSpaceOnUse" gradientTransform="translate(19.7693 5.55443) scale(14.3322 14.4887)">
<stop stop-color="#CBEBFB"/>
<stop offset="0.7767" stop-color="#BDCDDA"/>
<stop offset="1" stop-color="#B9C4D0"/>
</radialGradient>
<radialGradient id="paint3_radial_54_6925" cx="0" cy="0" r="1" gradientUnits="userSpaceOnUse" gradientTransform="translate(10.5177 11.7994) scale(12.2252 12.3611)">
<stop offset="0.005618" stop-color="#A9D1EF"/>
<stop offset="0.5393" stop-color="#1998D5"/>
<stop offset="1" stop-color="#0073BB"/>
</radialGradient>
<radialGradient id="paint4_radial_54_6925" cx="0" cy="0" r="1" gradientUnits="userSpaceOnUse" gradientTransform="translate(12.6743 4.08247) scale(7.74352 7.82963)">
<stop offset="0.005618" stop-color="#A9D1EF"/>
<stop offset="0.5393" stop-color="#1998D5"/>
<stop offset="1" stop-color="#0073BB"/>
</radialGradient>
<radialGradient id="paint5_radial_54_6925" cx="0" cy="0" r="1" gradientUnits="userSpaceOnUse" gradientTransform="translate(12.6502 4.66282) scale(9.28477 9.38801)">
<stop stop-color="#CBEBFB"/>
<stop offset="0.7767" stop-color="#BDCDDA"/>
<stop offset="1" stop-color="#B9C4D0"/>
</radialGradient>
<radialGradient id="paint6_radial_54_6925" cx="0" cy="0" r="1" gradientUnits="userSpaceOnUse" gradientTransform="translate(3.40852 14.5897) scale(9.19904 9.30133)">
<stop offset="0.005618" stop-color="#D3DFF2"/>
<stop offset="0.5393" stop-color="#1998D5"/>
<stop offset="1" stop-color="#0073BB"/>
</radialGradient>
<radialGradient id="paint7_radial_54_6925" cx="0" cy="0" r="1" gradientUnits="userSpaceOnUse" gradientTransform="translate(5.85584 16.6961) rotate(180) scale(3.38484 3.42248)">
<stop offset="0.005618" stop-color="#A9D1EF"/>
<stop offset="0.5393" stop-color="#1998D5"/>
<stop offset="1" stop-color="#0073BB"/>
</radialGradient>
<radialGradient id="paint8_radial_54_6925" cx="0" cy="0" r="1" gradientUnits="userSpaceOnUse" gradientTransform="translate(8.73783 11.1995) scale(5.53633 5.5979)">
<stop offset="0.005618" stop-color="#D3DFF2"/>
<stop offset="0.5393" stop-color="#1998D5"/>
<stop offset="1" stop-color="#0073BB"/>
</radialGradient>
<radialGradient id="paint9_radial_54_6925" cx="0" cy="0" r="1" gradientUnits="userSpaceOnUse" gradientTransform="translate(10.5549 12.3309) rotate(180) scale(2.03572 2.05835)">
<stop offset="0.005618" stop-color="#A9D1EF"/>
<stop offset="0.5393" stop-color="#1998D5"/>
<stop offset="1" stop-color="#0073BB"/>
</radialGradient>
<radialGradient id="paint10_radial_54_6925" cx="0" cy="0" r="1" gradientUnits="userSpaceOnUse" gradientTransform="translate(9.91428 16.8163) scale(4.13521 4.1812)">
<stop offset="0.005618" stop-color="#D3DFF2"/>
<stop offset="0.5393" stop-color="#1998D5"/>
<stop offset="1" stop-color="#0073BB"/>
</radialGradient>
<radialGradient id="paint11_radial_54_6925" cx="0" cy="0" r="1" gradientUnits="userSpaceOnUse" gradientTransform="translate(11.1045 17.6504) rotate(180) scale(1.52082 1.53773)">
<stop offset="0.005618" stop-color="#A9D1EF"/>
<stop offset="0.5393" stop-color="#1998D5"/>
<stop offset="1" stop-color="#0073BB"/>
</radialGradient>
<radialGradient id="paint12_radial_54_6925" cx="0" cy="0" r="1" gradientUnits="userSpaceOnUse" gradientTransform="translate(13.1383 20.7511) scale(4.13523 4.18121)">
<stop offset="0.005618" stop-color="#D3DFF2"/>
<stop offset="0.5393" stop-color="#1998D5"/>
<stop offset="1" stop-color="#0073BB"/>
</radialGradient>
<radialGradient id="paint13_radial_54_6925" cx="0" cy="0" r="1" gradientUnits="userSpaceOnUse" gradientTransform="translate(14.3285 21.5855) rotate(180) scale(1.52093 1.53784)">
<stop offset="0.005618" stop-color="#A9D1EF"/>
<stop offset="0.5393" stop-color="#1998D5"/>
<stop offset="1" stop-color="#0073BB"/>
</radialGradient>
<radialGradient id="paint14_radial_54_6925" cx="0" cy="0" r="1" gradientUnits="userSpaceOnUse" gradientTransform="translate(7.43285 22.4406) scale(6.71898 6.7937)">
<stop offset="0.005618" stop-color="#D3DFF2"/>
<stop offset="0.5393" stop-color="#1998D5"/>
<stop offset="1" stop-color="#0073BB"/>
</radialGradient>
<radialGradient id="paint15_radial_54_6925" cx="0" cy="0" r="1" gradientUnits="userSpaceOnUse" gradientTransform="translate(9.42966 23.9278) rotate(180) scale(2.47164 2.49912)">
<stop offset="0.005618" stop-color="#A9D1EF"/>
<stop offset="0.5393" stop-color="#1998D5"/>
<stop offset="1" stop-color="#0073BB"/>
</radialGradient>
<radialGradient id="paint16_radial_54_6925" cx="0" cy="0" r="1" gradientUnits="userSpaceOnUse" gradientTransform="translate(13.4887 13.0877) scale(6.71896 6.79367)">
<stop offset="0.005618" stop-color="#D3DFF2"/>
<stop offset="0.5393" stop-color="#1998D5"/>
<stop offset="1" stop-color="#0073BB"/>
</radialGradient>
<radialGradient id="paint17_radial_54_6925" cx="0" cy="0" r="1" gradientUnits="userSpaceOnUse" gradientTransform="translate(15.4852 14.5753) rotate(180) scale(2.47164 2.49913)">
<stop offset="0.005618" stop-color="#A9D1EF"/>
<stop offset="0.5393" stop-color="#1998D5"/>
<stop offset="1" stop-color="#0073BB"/>
</radialGradient>
</defs>
</svg>
