<svg width="35" height="35" viewBox="0 0 35 35" fill="none" xmlns="http://www.w3.org/2000/svg">
<g clip-path="url(#clip0_122_4431)">
<path d="M32.3036 21.9868C31.8222 21.9868 31.4319 22.377 31.4319 22.8584V30.598C31.4302 32.0417 30.2606 33.2117 28.8169 33.2131H4.35841C2.91468 33.2117 1.74507 32.0417 1.74336 30.598V7.88288C1.74507 6.4395 2.91468 5.26954 4.35841 5.26784H12.098C12.5795 5.26784 12.9697 4.87762 12.9697 4.39616C12.9697 3.91503 12.5795 3.52448 12.098 3.52448H4.35841C1.95243 3.5272 0.002724 5.47691 0 7.88288V30.5984C0.002724 33.0043 1.95243 34.954 4.35841 34.9568H28.8169C31.2229 34.954 33.1726 33.0043 33.1753 30.5984V22.8584C33.1753 22.377 32.7851 21.9868 32.3036 21.9868Z" fill="black"/>
<path d="M32.83 1.28162C31.2981 -0.250288 28.8145 -0.250288 27.2826 1.28162L11.7312 16.833C11.6247 16.9395 11.5477 17.0717 11.5075 17.2167L9.46247 24.5998C9.37837 24.9025 9.46383 25.2266 9.68584 25.449C9.90819 25.671 10.2323 25.7565 10.535 25.6727L17.9181 23.6273C18.0632 23.5871 18.1953 23.5102 18.3019 23.4036L33.8529 7.85192C35.3824 6.31899 35.3824 3.83742 33.8529 2.30449L32.83 1.28162ZM13.6305 17.3996L26.3581 4.67165L30.4628 8.77638L17.7349 21.5043L13.6305 17.3996ZM12.8106 19.0449L16.09 22.3246L11.5538 23.5813L12.8106 19.0449ZM32.6203 6.61931L31.6958 7.54377L27.5907 3.4387L28.5155 2.51424C29.3664 1.66333 30.7461 1.66333 31.5971 2.51424L32.6203 3.5371C33.4698 4.38903 33.4698 5.76772 32.6203 6.61931Z" fill="black"/>
</g>
<defs>
<clipPath id="clip0_122_4431">
<rect width="35" height="35" fill="white"/>
</clipPath>
</defs>
</svg>
