<svg width="39" height="39" viewBox="0 0 39 39" fill="none" xmlns="http://www.w3.org/2000/svg">
<path d="M38.1522 37.3038H32.1742C31.9834 34.4356 30.8439 31.8294 29.0592 29.7912L33.6646 25.1858C33.9961 24.8543 33.9961 24.3185 33.6646 23.987C33.3331 23.6555 32.7973 23.6555 32.4658 23.987L27.8604 28.5924C25.8222 26.8077 23.216 25.6682 20.3478 25.4775V19.4994C20.3478 19.0314 19.9688 18.6516 19.5 18.6516C19.0312 18.6516 18.6522 19.0314 18.6522 19.4994V25.4775C15.784 25.6682 13.1778 26.8077 11.1396 28.5924L6.5342 23.987C6.2027 23.6555 5.66687 23.6555 5.33537 23.987C5.00387 24.3185 5.00387 24.8543 5.33537 25.1858L9.94076 29.7912C8.15609 31.8294 7.01661 34.4356 6.82585 37.3038H0.847826C0.378978 37.3038 0 37.6836 0 38.1516C0 38.6196 0.378978 38.9994 0.847826 38.9994H7.62874C7.62959 38.9994 7.63043 38.9994 7.63043 38.9994H7.63213H31.367C31.3679 38.9994 31.3687 38.9994 31.3687 38.9994H31.3704H38.1522C38.621 38.9994 39 38.6196 39 38.1516C39 37.6836 38.621 37.3038 38.1522 37.3038ZM8.5215 37.3038C8.95728 31.6217 13.7093 27.1299 19.5 27.1299C25.2907 27.1299 30.0427 31.6217 30.4785 37.3038H8.5215Z" fill="black"/>
<path d="M25.1863 5.33486L20.1002 0.24875C20.0222 0.169903 19.9281 0.108011 19.8238 0.0647721C19.6169 -0.0208583 19.3829 -0.0208583 19.1761 0.0647721C19.0718 0.108011 18.9785 0.169903 18.8997 0.24875L13.8136 5.33486C13.4821 5.66636 13.4821 6.20219 13.8136 6.53369C14.1451 6.86519 14.6809 6.86519 15.0124 6.53369L18.6521 2.89397V14.4125C18.6521 14.8805 19.0311 15.2604 19.4999 15.2604C19.9688 15.2604 20.3478 14.8805 20.3478 14.4125V2.89397L23.9875 6.53369C24.1528 6.69901 24.3698 6.7821 24.5869 6.7821C24.8039 6.7821 25.021 6.69901 25.1863 6.53369C25.5178 6.20219 25.5178 5.66636 25.1863 5.33486Z" fill="black"/>
</svg>
