<svg width="27" height="33" viewBox="0 0 27 33" fill="none" xmlns="http://www.w3.org/2000/svg">
<path d="M8.03572 5.19834V5.89454C8.03572 7.98315 8.81633 10.0253 9.5051 11.8355C10.102 13.4135 10.6071 14.7131 10.6071 15.9663C10.6071 18.9367 8.21939 21.3502 5.28061 21.3502C2.38776 21.3502 0 18.9367 0 15.9663C0 13.3207 3.12245 7.00846 6.47449 5.01268L8.03572 4.08441V5.19834Z" fill="url(#paint0_radial_54_8743)"/>
<path d="M7.39307 5.89451C7.39307 8.12235 8.2196 10.211 8.90837 12.0675C9.45939 13.5527 9.96449 14.8523 9.96449 15.9662C9.96449 18.5654 7.85225 20.7004 5.28082 20.7004C2.70939 20.7004 0.643066 18.5654 0.643066 15.9662C0.643066 13.5063 3.67368 7.42615 6.79613 5.56961L7.39307 5.1983V5.89451Z" fill="url(#paint1_radial_54_8743)"/>
<path d="M8.72439 14.7131C8.72439 13.8313 8.4948 12.8102 8.17337 11.6498C8.77031 13.1815 9.32133 14.5739 9.32133 15.6878C9.32133 18.1013 7.39276 20.0043 5.05092 20.0043C4.95908 20.0043 4.82133 20.0043 4.72949 20.0043C6.93357 19.8186 8.72439 17.5444 8.72439 14.7131Z" fill="#D1DCEE"/>
<path d="M4.59174 9.88612C4.54583 9.79329 4.59174 9.56122 4.68358 9.42198C4.77542 9.23633 4.91317 9.18991 5.00501 9.28274C5.05093 9.37557 5.05093 9.60764 4.91317 9.74688C4.82134 9.88612 4.68358 9.97894 4.59174 9.88612Z" fill="#F1E6DD"/>
<path d="M3.21425 12.2532C3.12241 12.114 3.21425 11.7427 3.39792 11.4642C3.5816 11.1857 3.81119 11.0929 3.94895 11.2321C4.04078 11.3714 3.99486 11.7427 3.76527 12.0212C3.5816 12.346 3.35201 12.4389 3.21425 12.2532Z" fill="#F1E6DD"/>
<path d="M15.2448 0.649789V1.06751C15.2448 2.32068 15.704 3.57384 16.1172 4.64135C16.4846 5.56962 16.806 6.40506 16.806 7.14768C16.806 8.91139 15.3825 10.3966 13.5917 10.3966C11.8468 10.3966 10.3774 8.95781 10.3774 7.14768C10.3774 5.52321 12.2601 1.76371 14.2805 0.556962L15.1989 0V0.649789H15.2448Z" fill="url(#paint2_radial_54_8743)"/>
<path d="M14.8772 1.11395C14.8772 2.45994 15.3823 3.71311 15.7956 4.82703C16.117 5.70889 16.4385 6.49792 16.4385 7.19412C16.4385 8.77218 15.1528 10.0253 13.6374 10.0253C12.0762 10.0253 10.8364 8.72576 10.8364 7.19412C10.8364 5.70889 12.6732 2.04222 14.5558 0.928296L14.9232 0.696228V1.11395H14.8772Z" fill="url(#paint3_radial_54_8743)"/>
<path d="M15.6578 6.40506C15.6578 5.8481 15.52 5.24473 15.2904 4.54852C15.6578 5.47679 15.9792 6.31224 15.9792 6.96203C15.9792 8.40084 14.8313 9.56118 13.4078 9.56118C13.3619 9.56118 13.27 9.56118 13.2241 9.56118C14.6017 9.46836 15.6578 8.07595 15.6578 6.40506Z" fill="#D1DCEE"/>
<path d="M13.1787 3.48101C13.1328 3.43459 13.1787 3.29535 13.2246 3.20253C13.2705 3.1097 13.3624 3.06329 13.4083 3.1097C13.4542 3.15611 13.4083 3.29535 13.3624 3.38818C13.3164 3.48101 13.2246 3.52742 13.1787 3.48101Z" fill="#F1E6DD"/>
<path d="M12.352 4.91981C12.3061 4.82698 12.352 4.64133 12.4438 4.45567C12.5816 4.27002 12.7193 4.22361 12.7653 4.31643C12.8112 4.40926 12.7653 4.64133 12.6734 4.78057C12.5816 4.96622 12.3979 5.01264 12.352 4.91981Z" fill="#F1E6DD"/>
<path d="M16.0714 11.6034V11.9283C16.0714 12.8565 16.4387 13.7848 16.7143 14.6202C16.9898 15.3164 17.2194 15.9198 17.2194 16.4768C17.2194 17.8228 16.1632 18.8903 14.8316 18.8903C13.5 18.8903 12.4438 17.8228 12.4438 16.4768C12.4438 15.27 13.8673 12.4388 15.3826 11.5569L16.0714 11.1392V11.6034Z" fill="url(#paint4_radial_54_8743)"/>
<path d="M15.7958 11.9283C15.7958 12.9029 16.1631 13.8776 16.4845 14.7131C16.7601 15.3629 16.9437 15.9662 16.9437 16.4768C16.9437 17.6371 15.9794 18.6118 14.8315 18.6118C13.6835 18.6118 12.7192 17.6371 12.7192 16.4768C12.7192 15.3629 14.0968 12.6245 15.5203 11.789L15.7958 11.6498V11.9283Z" fill="url(#paint5_radial_54_8743)"/>
<path d="M16.3929 15.9198C16.3929 15.5021 16.301 15.038 16.1174 14.5274C16.3929 15.2236 16.6225 15.827 16.6225 16.3375C16.6225 17.405 15.75 18.2869 14.6939 18.2869C14.648 18.2869 14.6021 18.2869 14.5562 18.2869C15.5664 18.1941 16.3929 17.173 16.3929 15.9198Z" fill="#D1DCEE"/>
<path d="M14.5561 13.7383C14.5102 13.6919 14.5561 13.5991 14.602 13.5063C14.648 13.4135 14.6939 13.4135 14.7398 13.4599C14.7857 13.5063 14.7398 13.5991 14.6939 13.6919C14.648 13.7383 14.5561 13.7383 14.5561 13.7383Z" fill="#F1E6DD"/>
<path d="M13.9135 14.8059C13.8676 14.7595 13.9135 14.5738 14.0054 14.4346C14.0972 14.2953 14.189 14.2489 14.235 14.3418C14.2809 14.3882 14.235 14.5738 14.1431 14.7131C14.0513 14.8059 13.9594 14.8523 13.9135 14.8059Z" fill="#F1E6DD"/>
<path d="M22.1329 18.9831V19.308C22.1329 20.2363 22.5003 21.1646 22.7758 22C23.0513 22.6962 23.2809 23.2996 23.2809 23.8565C23.2809 25.2025 22.2248 26.27 20.8931 26.27C19.5615 26.27 18.5054 25.2025 18.5054 23.8565C18.5054 22.6498 19.9288 19.8186 21.4441 18.9367L22.1329 18.519V18.9831Z" fill="url(#paint6_radial_54_8743)"/>
<path d="M21.8573 19.308C21.8573 20.2827 22.2246 21.2574 22.5461 22.0928C22.8216 22.7426 23.0052 23.346 23.0052 23.8565C23.0052 25.0169 22.041 25.9916 20.893 25.9916C19.745 25.9916 18.7808 25.0169 18.7808 23.8565C18.7808 22.7426 20.1583 20.0042 21.5818 19.1688L21.8573 19.0295V19.308Z" fill="url(#paint7_radial_54_8743)"/>
<path d="M22.4544 23.2996C22.4544 22.8818 22.3626 22.4177 22.1789 21.9072C22.4544 22.6034 22.684 23.2067 22.684 23.7173C22.684 24.7848 21.8116 25.6667 20.7554 25.6667C20.7095 25.6667 20.6636 25.6667 20.6177 25.6667C21.6279 25.5738 22.4544 24.5527 22.4544 23.2996Z" fill="#D1DCEE"/>
<path d="M20.5718 21.1181C20.5258 21.0717 20.5718 20.9789 20.6177 20.886C20.6636 20.7932 20.7095 20.7932 20.7554 20.8396C20.8014 20.886 20.7554 20.9789 20.7095 21.0717C20.6636 21.1181 20.6177 21.1645 20.5718 21.1181Z" fill="#F1E6DD"/>
<path d="M19.975 22.1856C19.9291 22.1392 19.975 21.9536 20.0669 21.8143C20.1587 21.6751 20.2506 21.6287 20.2965 21.7215C20.3424 21.7679 20.2965 21.9536 20.2046 22.0928C20.1128 22.2321 20.021 22.2321 19.975 22.1856Z" fill="#F1E6DD"/>
<path d="M13.7296 21.2109V21.7215C13.7296 23.2531 14.2806 24.7384 14.7857 26.0843C15.199 27.1983 15.6122 28.2194 15.6122 29.1012C15.6122 31.2827 13.8673 33 11.7551 33C9.59693 33 7.89795 31.2362 7.89795 29.1012C7.89795 27.1519 10.1939 22.5569 12.6275 21.0717L13.7755 20.3755V21.2109H13.7296Z" fill="url(#paint8_radial_54_8743)"/>
<path d="M13.2702 21.7215C13.2702 23.3459 13.8671 24.8776 14.3722 26.2236C14.7855 27.2911 15.1529 28.2658 15.1529 29.0548C15.1529 30.9577 13.6375 32.4894 11.7549 32.4894C9.87224 32.4894 8.35693 30.9577 8.35693 29.0548C8.35693 27.2447 10.6069 22.789 12.8569 21.443L13.3161 21.1645V21.7215H13.2702Z" fill="url(#paint9_radial_54_8743)"/>
<path d="M14.2347 28.173C14.2347 27.5232 14.051 26.7806 13.8214 25.9451C14.2347 27.0591 14.6479 28.0801 14.6479 28.8692C14.6479 30.6329 13.2704 32.0253 11.5255 32.0253C11.4337 32.0253 11.3877 32.0253 11.2959 32.0253C12.903 31.8861 14.2347 30.2152 14.2347 28.173Z" fill="#D1DCEE"/>
<path d="M11.2041 24.5991C11.1582 24.5527 11.2041 24.3671 11.25 24.2742C11.3418 24.135 11.4337 24.0886 11.4796 24.1814C11.5255 24.2278 11.4796 24.4135 11.4337 24.5063C11.3878 24.6455 11.25 24.692 11.2041 24.5991Z" fill="#F1E6DD"/>
<path d="M10.1937 26.3628C10.1019 26.27 10.1937 25.9915 10.3315 25.8059C10.4692 25.6202 10.6529 25.5274 10.6988 25.6202C10.7906 25.713 10.7447 25.9915 10.5611 26.1772C10.4692 26.4092 10.2855 26.4557 10.1937 26.3628Z" fill="#F1E6DD"/>
<path d="M25.1173 3.62023V4.13078C25.1173 5.66243 25.6683 7.14766 26.1734 8.49365C26.5867 9.60757 26.9999 10.6287 26.9999 11.5105C26.9999 13.692 25.255 15.4093 23.1428 15.4093C20.9846 15.4093 19.2856 13.6455 19.2856 11.5105C19.2856 9.56116 21.5816 4.96622 24.0152 3.48099L25.1632 2.78479V3.62023H25.1173Z" fill="url(#paint10_radial_54_8743)"/>
<path d="M24.6579 4.13075C24.6579 5.75523 25.2549 7.28687 25.76 8.63286C26.1732 9.70038 26.5406 10.6751 26.5406 11.4641C26.5406 13.367 25.0253 14.9451 23.0967 14.9451C21.214 14.9451 19.6987 13.4135 19.6987 11.4641C19.6987 9.65396 21.9487 5.19826 24.1987 3.85227L24.6579 3.57379V4.13075Z" fill="url(#paint11_radial_54_8743)"/>
<path d="M25.6224 10.5823C25.6224 9.93249 25.4387 9.18987 25.2091 8.35443C25.6224 9.46836 26.0356 10.4895 26.0356 11.2785C26.0356 13.0422 24.6581 14.4346 22.9132 14.4346C22.8213 14.4346 22.7754 14.4346 22.6836 14.4346C24.2907 14.3418 25.6224 12.6709 25.6224 10.5823Z" fill="#D1DCEE"/>
<path d="M22.5918 7.05482C22.5459 7.00841 22.5918 6.82275 22.6377 6.72993C22.7295 6.59069 22.8214 6.54427 22.8673 6.6371C22.9132 6.68351 22.8673 6.86917 22.8214 6.96199C22.7295 7.05482 22.6377 7.10123 22.5918 7.05482Z" fill="#F1E6DD"/>
<path d="M21.5814 8.81852C21.4896 8.7257 21.5814 8.44721 21.7192 8.26156C21.8569 8.07591 22.0406 7.98308 22.0865 8.07591C22.1783 8.16873 22.1324 8.44721 21.9487 8.63287C21.8569 8.81852 21.6732 8.91135 21.5814 8.81852Z" fill="#F1E6DD"/>
<defs>
<radialGradient id="paint0_radial_54_8743" cx="0" cy="0" r="1" gradientUnits="userSpaceOnUse" gradientTransform="translate(0.450089 9.2816) scale(17.2832 17.4696)">
<stop offset="0.005618" stop-color="#D3DFF2"/>
<stop offset="0.5393" stop-color="#1998D5"/>
<stop offset="1" stop-color="#0073BB"/>
</radialGradient>
<radialGradient id="paint1_radial_54_8743" cx="0" cy="0" r="1" gradientUnits="userSpaceOnUse" gradientTransform="translate(5.04701 13.2373) rotate(180) scale(6.35955 6.42813)">
<stop offset="0.005618" stop-color="#A9D1EF"/>
<stop offset="0.5393" stop-color="#1998D5"/>
<stop offset="1" stop-color="#0073BB"/>
</radialGradient>
<radialGradient id="paint2_radial_54_8743" cx="0" cy="0" r="1" gradientUnits="userSpaceOnUse" gradientTransform="translate(10.4627 2.91398) scale(10.4017 10.5139)">
<stop offset="0.005618" stop-color="#D3DFF2"/>
<stop offset="0.5393" stop-color="#1998D5"/>
<stop offset="1" stop-color="#0073BB"/>
</radialGradient>
<radialGradient id="paint3_radial_54_8743" cx="0" cy="0" r="1" gradientUnits="userSpaceOnUse" gradientTransform="translate(13.8757 5.03868) rotate(180) scale(3.82474 3.86599)">
<stop offset="0.005618" stop-color="#A9D1EF"/>
<stop offset="0.5393" stop-color="#1998D5"/>
<stop offset="1" stop-color="#0073BB"/>
</radialGradient>
<radialGradient id="paint4_radial_54_8743" cx="0" cy="0" r="1" gradientUnits="userSpaceOnUse" gradientTransform="translate(12.6738 13.4628) scale(7.76891 7.85269)">
<stop offset="0.005618" stop-color="#D3DFF2"/>
<stop offset="0.5393" stop-color="#1998D5"/>
<stop offset="1" stop-color="#0073BB"/>
</radialGradient>
<radialGradient id="paint5_radial_54_8743" cx="0" cy="0" r="1" gradientUnits="userSpaceOnUse" gradientTransform="translate(14.9091 15.0296) rotate(180) scale(2.85743 2.88824)">
<stop offset="0.005618" stop-color="#A9D1EF"/>
<stop offset="0.5393" stop-color="#1998D5"/>
<stop offset="1" stop-color="#0073BB"/>
</radialGradient>
<radialGradient id="paint6_radial_54_8743" cx="0" cy="0" r="1" gradientUnits="userSpaceOnUse" gradientTransform="translate(18.7307 20.8537) scale(7.76921 7.85298)">
<stop offset="0.005618" stop-color="#D3DFF2"/>
<stop offset="0.5393" stop-color="#1998D5"/>
<stop offset="1" stop-color="#0073BB"/>
</radialGradient>
<radialGradient id="paint7_radial_54_8743" cx="0" cy="0" r="1" gradientUnits="userSpaceOnUse" gradientTransform="translate(20.9659 22.4201) rotate(180) scale(2.85737 2.88818)">
<stop offset="0.005618" stop-color="#A9D1EF"/>
<stop offset="0.5393" stop-color="#1998D5"/>
<stop offset="1" stop-color="#0073BB"/>
</radialGradient>
<radialGradient id="paint8_radial_54_8743" cx="0" cy="0" r="1" gradientUnits="userSpaceOnUse" gradientTransform="translate(8.01082 24.0269) scale(12.6241 12.7602)">
<stop offset="0.005618" stop-color="#D3DFF2"/>
<stop offset="0.5393" stop-color="#1998D5"/>
<stop offset="1" stop-color="#0073BB"/>
</radialGradient>
<radialGradient id="paint9_radial_54_8743" cx="0" cy="0" r="1" gradientUnits="userSpaceOnUse" gradientTransform="translate(11.7624 26.8201) rotate(180) scale(4.64386 4.69394)">
<stop offset="0.005618" stop-color="#A9D1EF"/>
<stop offset="0.5393" stop-color="#1998D5"/>
<stop offset="1" stop-color="#0073BB"/>
</radialGradient>
<radialGradient id="paint10_radial_54_8743" cx="0" cy="0" r="1" gradientUnits="userSpaceOnUse" gradientTransform="translate(19.3885 6.46072) scale(12.6242 12.7603)">
<stop offset="0.005618" stop-color="#D3DFF2"/>
<stop offset="0.5393" stop-color="#1998D5"/>
<stop offset="1" stop-color="#0073BB"/>
</radialGradient>
<radialGradient id="paint11_radial_54_8743" cx="0" cy="0" r="1" gradientUnits="userSpaceOnUse" gradientTransform="translate(23.1398 9.25467) rotate(180) scale(4.64387 4.69394)">
<stop offset="0.005618" stop-color="#A9D1EF"/>
<stop offset="0.5393" stop-color="#1998D5"/>
<stop offset="1" stop-color="#0073BB"/>
</radialGradient>
</defs>
</svg>
