<svg width="32" height="24" viewBox="0 0 32 24" fill="none" xmlns="http://www.w3.org/2000/svg">
<path d="M26.067 6.26393C26.0908 6.12317 26.0908 5.95894 26.0908 5.81818C26.0908 2.60411 23.3507 0 19.9434 0C17.2033 0 14.8682 1.73607 14.1057 4.10557C13.2241 3.47214 12.0804 3.09677 10.8652 3.09677C8.05361 3.09677 5.7662 5.09091 5.7662 7.53079C5.7662 7.74194 5.79002 7.95308 5.81385 8.16422C2.45421 8.68035 0 10.5103 0 12.6452C0 15.2023 3.50261 17.2903 7.81534 17.2903C9.34028 17.2903 10.7461 17.0323 11.9375 16.5865C13.2241 17.173 14.8206 17.5015 16.5361 17.5015C18.1802 17.5015 19.7051 17.1965 20.968 16.6569C22.0879 17.2669 23.446 17.5953 24.8995 17.5953C28.831 17.5953 32 15.0381 32 11.871C32 9.07918 29.4267 6.73314 26.067 6.26393Z" fill="url(#paint0_radial_54_7963)"/>
<path d="M14.6063 4.50442L14.4156 5.06747L13.9153 4.71556C13.129 4.15251 12.1282 3.84753 11.1036 3.84753C8.69709 3.84753 6.71943 5.53668 6.71943 7.60119C6.71943 7.76542 6.74326 7.9531 6.76709 8.14078L6.83857 8.56307L6.4335 8.63345C3.43127 9.10266 1.33447 10.6745 1.33447 12.434C1.33447 14.6159 4.45584 16.3988 8.2682 16.3988C9.60253 16.3988 10.8892 16.1877 12.0091 15.7654L12.1759 15.695L12.3427 15.7654C13.5579 16.305 14.9875 16.5865 16.5124 16.5865C17.9659 16.5865 19.3479 16.3285 20.5154 15.8358L20.706 15.7654L20.8966 15.8593C21.9212 16.4223 23.1364 16.7038 24.3993 16.7038C27.8542 16.7038 30.6658 14.4751 30.6658 11.7302C30.6658 9.29034 28.4737 7.24929 25.4477 6.827L25.0426 6.78008L25.0664 5.98243C25.0664 3.19064 22.6599 0.914978 19.7053 0.914978C17.3702 0.914978 15.2972 2.36952 14.6063 4.50442Z" fill="url(#paint1_radial_54_7963)"/>
<path d="M29.8553 11.566C29.8553 9.59533 27.9968 7.90618 25.4234 7.57773L24.1844 7.41351C24.1844 7.41351 24.2559 5.86512 24.2559 5.8182C24.2559 3.51908 22.2782 1.66571 19.824 1.66571C18.5612 1.66571 17.4175 2.15838 16.5835 2.97949C17.2745 2.55721 18.1084 2.29914 18.99 2.29914C21.4204 2.29914 23.4219 4.15251 23.4219 6.45163C23.4219 6.49856 23.3504 8.04694 23.3504 8.04694L24.5895 8.21117C27.1628 8.56307 29.0213 10.2288 29.0213 12.1994C29.0213 13.1379 28.5924 13.9824 27.9014 14.6862C29.0928 13.9355 29.8553 12.8094 29.8553 11.566Z" fill="white"/>
<path d="M16.8935 5.58358C16.8935 5.48973 16.9173 5.39589 16.9173 5.27859C16.9173 3.19061 15.1303 1.50146 12.9382 1.50146C11.1512 1.50146 9.65004 2.62756 9.14966 4.17595C8.57781 3.75366 7.83917 3.51906 7.05287 3.51906C5.21817 3.51906 3.74088 4.80938 3.74088 6.38123C3.74088 6.52199 3.76471 6.66275 3.76471 6.80352C1.59643 7.15542 0 8.32844 0 9.73607C0 11.4018 2.26359 12.739 5.05138 12.739C6.0283 12.739 6.95756 12.5748 7.72003 12.2933C8.55398 12.6686 9.57856 12.8798 10.6984 12.8798C11.7707 12.8798 12.7476 12.6686 13.5577 12.3402C14.2964 12.739 15.1541 12.9501 16.1072 12.9501C18.6567 12.9501 20.7059 11.2845 20.7059 9.2434C20.7297 7.41349 19.0618 5.88856 16.8935 5.58358Z" fill="url(#paint2_radial_54_7963)"/>
<path d="M9.48337 4.45747L9.36424 4.83283L9.05448 4.59823C8.55411 4.22286 7.88695 4.03518 7.24361 4.03518C5.67101 4.03518 4.40817 5.13782 4.40817 6.47506C4.40817 6.59237 4.40817 6.70967 4.432 6.82697L4.47965 7.10849L4.19373 7.15542C2.21606 7.41348 0.85791 8.44574 0.85791 9.5953C0.85791 11.0029 2.88323 12.1525 5.36126 12.1525C6.21904 12.1525 7.053 12.0117 7.79164 11.7302L7.91078 11.6833L8.00608 11.7302C8.79238 12.0821 9.72165 12.2698 10.6986 12.2698C11.6278 12.2698 12.5333 12.1056 13.2957 11.7771L13.4149 11.7302L13.534 11.8006C14.2012 12.1525 14.9875 12.3402 15.7976 12.3402C18.0374 12.3402 19.8721 10.8856 19.8721 9.12609C19.8721 7.55424 18.4424 6.217 16.4886 5.95893L16.2265 5.93547L16.2503 5.41935C16.2503 3.61289 14.7015 2.13489 12.7954 2.13489C11.2466 2.13489 9.91227 3.04984 9.48337 4.45747Z" fill="url(#paint3_radial_54_7963)"/>
<path d="M19.3479 9.00878C19.3479 7.74192 18.1327 6.63928 16.4887 6.42813L15.7024 6.31083C15.7024 6.31083 15.75 5.30203 15.75 5.27857C15.75 3.80057 14.4633 2.58063 12.8907 2.58063C12.0806 2.58063 11.3181 2.90907 10.7939 3.4252C11.2467 3.14368 11.7947 3.00291 12.3665 3.00291C13.9391 3.00291 15.2258 4.1994 15.2258 5.70086C15.2258 5.74778 15.1782 6.73312 15.1782 6.73312L15.9645 6.85042C17.6324 7.06157 18.8237 8.16421 18.8237 9.43107C18.8237 10.041 18.5616 10.5806 18.1089 11.0264C18.8476 10.5572 19.3479 9.82989 19.3479 9.00878Z" fill="white"/>
<defs>
<radialGradient id="paint0_radial_54_7963" cx="0" cy="0" r="1" gradientUnits="userSpaceOnUse" gradientTransform="translate(21.8384 21.4788) scale(25.1422 24.7551)">
<stop stop-color="white"/>
<stop offset="0.4978" stop-color="#DEE3E9"/>
<stop offset="1" stop-color="#B9C4D0"/>
</radialGradient>
<radialGradient id="paint1_radial_54_7963" cx="0" cy="0" r="1" gradientUnits="userSpaceOnUse" gradientTransform="translate(26.2746 6.02434) scale(15.9244 15.6793)">
<stop stop-color="white"/>
<stop offset="0.4978" stop-color="#DEE3E9"/>
<stop offset="1" stop-color="#B9C4D0"/>
</radialGradient>
<radialGradient id="paint2_radial_54_7963" cx="0" cy="0" r="1" gradientUnits="userSpaceOnUse" gradientTransform="translate(14.1546 15.4487) scale(16.2931 16.0423)">
<stop stop-color="white"/>
<stop offset="0.4978" stop-color="#DEE3E9"/>
<stop offset="1" stop-color="#B9C4D0"/>
</radialGradient>
<radialGradient id="paint3_radial_54_7963" cx="0" cy="0" r="1" gradientUnits="userSpaceOnUse" gradientTransform="translate(17.0294 5.43358) scale(10.3197 10.1608)">
<stop stop-color="white"/>
<stop offset="0.4978" stop-color="#DEE3E9"/>
<stop offset="1" stop-color="#B9C4D0"/>
</radialGradient>
</defs>
</svg>
