<svg width="25" height="25" viewBox="0 0 25 25" fill="none" xmlns="http://www.w3.org/2000/svg">
<path d="M14.6811 13.7786V3.27972C14.6811 1.46836 13.2128 0 11.4014 0C9.59003 0 8.12168 1.46836 8.12168 3.27972V13.7739C5.28689 15.5825 4.45495 19.3468 6.26358 22.1816C7.37972 23.9309 9.30996 24.9914 11.3851 24.9953L11.4177 25C14.7804 24.9937 17.5012 22.2626 17.4949 18.9001C17.491 16.8249 16.4305 14.8947 14.6811 13.7786ZM8.83962 23.3794C6.37121 21.9543 5.52552 18.7979 6.95064 16.3295C7.40361 15.545 8.05507 14.8935 8.83962 14.4406C8.98444 14.3569 9.07337 14.2022 9.07273 14.035V3.27972C9.07273 1.98333 10.1237 0.932401 11.42 0.932401C12.7164 0.932401 13.7674 1.98333 13.7674 3.27972V14.035C13.7667 14.2022 13.8556 14.3569 14.0005 14.4406C16.4689 15.8657 17.3146 19.022 15.8894 21.4904C14.4643 23.9588 11.308 24.8045 8.83962 23.3794Z" fill="black"/>
<path d="M11.884 15.5595V8.4872C11.884 8.22974 11.6752 8.021 11.4178 8.021C11.1603 8.021 10.9516 8.22974 10.9516 8.4872V15.5595C9.19044 15.812 7.96748 17.4444 8.22005 19.2056C8.44802 20.7952 9.81189 21.9741 11.4178 21.9697C13.1969 21.9746 14.6432 20.5363 14.6481 18.7572C14.6526 17.1513 13.4736 15.7874 11.884 15.5595ZM11.4178 21.0327C10.1536 21.0327 9.12873 20.0078 9.12873 18.7436C9.13129 17.4805 10.1546 16.4571 11.4178 16.4546C12.682 16.4546 13.7068 17.4794 13.7068 18.7436C13.7068 20.0078 12.6819 21.0327 11.4178 21.0327Z" fill="black"/>
<path d="M19.2266 3.20514H16.3129C16.0554 3.20514 15.8467 3.41388 15.8467 3.67134C15.8467 3.9288 16.0554 4.13754 16.3129 4.13754H19.2266C19.4841 4.13754 19.6928 3.9288 19.6928 3.67134C19.6928 3.41388 19.4841 3.20514 19.2266 3.20514Z" fill="black"/>
<path d="M18.6064 5.53613H16.8954C16.6379 5.53613 16.4292 5.74487 16.4292 6.00233C16.4292 6.25979 16.6379 6.46853 16.8954 6.46853H18.6064C18.8638 6.46853 19.0726 6.25979 19.0726 6.00233C19.0726 5.74487 18.8638 5.53613 18.6064 5.53613Z" fill="black"/>
<path d="M19.2266 7.86713H16.3129C16.0554 7.86713 15.8467 8.07587 15.8467 8.33333C15.8467 8.59079 16.0554 8.79953 16.3129 8.79953H19.2266C19.4841 8.79953 19.6928 8.59079 19.6928 8.33333C19.6928 8.07587 19.4841 7.86713 19.2266 7.86713Z" fill="black"/>
<path d="M18.6064 10.1981H16.8954C16.6379 10.1981 16.4292 10.4069 16.4292 10.6643C16.4292 10.9218 16.6379 11.1305 16.8954 11.1305H18.6064C18.8638 11.1305 19.0726 10.9218 19.0726 10.6643C19.0726 10.4069 18.8638 10.1981 18.6064 10.1981Z" fill="black"/>
<path d="M19.2266 12.5292H16.3129C16.0554 12.5292 15.8467 12.7379 15.8467 12.9954C15.8467 13.2528 16.0554 13.4616 16.3129 13.4616H19.2266C19.4841 13.4616 19.6928 13.2528 19.6928 12.9954C19.6928 12.7379 19.4841 12.5292 19.2266 12.5292Z" fill="black"/>
</svg>
