<svg width="41" height="41" viewBox="0 0 41 41" fill="none" xmlns="http://www.w3.org/2000/svg">
<g clip-path="url(#clip0_122_4519)">
<path d="M40.8482 20.9852C40.5253 21.455 32.7659 32.4586 20.4999 32.4586C9.97467 32.4586 0.595771 21.5182 0.201139 21.0518C-0.0670465 20.7341 -0.0670465 20.2677 0.201139 19.9482C0.595771 19.4819 9.97467 8.54149 20.4999 8.54149C31.0251 8.54149 40.4039 19.4819 40.7986 19.9482C41.0463 20.242 41.0685 20.6674 40.8482 20.9852ZM20.4999 10.2498C12.0623 10.2498 4.03982 18.2962 2.0018 20.5C4.03646 22.7054 12.0504 30.7501 20.4999 30.7501C30.3725 30.7501 37.3409 22.7157 39.0424 20.5461C37.0778 18.4124 29.0092 10.2498 20.4999 10.2498Z" fill="black"/>
<path d="M20.4999 27.3335C16.7313 27.3335 13.6665 24.2687 13.6665 20.5001C13.6665 16.7315 16.7313 13.6667 20.4999 13.6667C24.2685 13.6667 27.3333 16.7315 27.3333 20.5001C27.3333 24.2687 24.2685 27.3335 20.4999 27.3335ZM20.4999 15.3749C17.6743 15.3749 15.3748 17.6744 15.3748 20.5C15.3748 23.3256 17.6743 25.6251 20.4999 25.6251C23.3255 25.6251 25.625 23.3256 25.625 20.5C25.625 17.6744 23.3255 15.3749 20.4999 15.3749Z" fill="black"/>
</g>
<defs>
<clipPath id="clip0_122_4519">
<rect width="41" height="41" fill="white" transform="matrix(1 0 0 -1 0 41)"/>
</clipPath>
</defs>
</svg>
