<svg width="25" height="25" viewBox="0 0 25 25" fill="none" xmlns="http://www.w3.org/2000/svg">
<g clip-path="url(#clip0_122_4651)">
<path d="M10.9196 6.15044L9.54313 4.7589C9.38083 4.56489 9.09201 4.53923 8.898 4.70153C8.70399 4.86383 8.67832 5.15265 8.84063 5.34666C8.85686 5.36603 8.87466 5.38409 8.89391 5.40057L10.2704 6.79211C10.4624 6.95668 10.7515 6.93435 10.9161 6.74229C11.0617 6.57237 11.0632 6.32206 10.9196 6.15044Z" fill="black"/>
<path d="M22.5897 4.83092C22.4273 4.63691 22.1385 4.61125 21.9445 4.77355C21.9251 4.78978 21.9071 4.80758 21.8906 4.82683L20.4991 6.20328C20.3051 6.36558 20.2794 6.6544 20.4417 6.84841C20.604 7.04242 20.8928 7.06809 21.0868 6.90578C21.1062 6.88955 21.1243 6.87175 21.1407 6.8525L22.5323 5.47605C22.7262 5.31375 22.752 5.02493 22.5897 4.83092Z" fill="black"/>
<path d="M14.2964 4.54427C14.2936 4.53093 14.2902 4.51779 14.2862 4.50476L13.7829 2.61247C13.7306 2.36643 13.4887 2.20941 13.2427 2.26169C12.9966 2.31397 12.8396 2.55591 12.8919 2.80195C12.8947 2.81529 12.8981 2.82843 12.9021 2.84146L13.4054 4.73375C13.4577 4.97979 13.6996 5.13681 13.9457 5.08453C14.1917 5.03225 14.3488 4.79031 14.2964 4.54427Z" fill="black"/>
<path d="M20.5544 14.2883C20.4688 14.2028 20.3799 14.1189 20.2876 14.0367L20.3631 13.9008C20.4568 13.7286 20.5408 13.5513 20.6148 13.3698C21.6867 10.6928 20.3854 7.65358 17.7083 6.58168C17.7033 6.57966 17.6983 6.57765 17.6933 6.5757C15.273 5.611 12.512 6.57721 11.2212 8.84042C8.06635 7.95932 4.79453 9.80254 3.91336 12.9575C3.76672 13.4825 3.69318 14.0251 3.69482 14.5701C3.69482 14.6456 3.69482 14.7245 3.69482 14.8067C1.50452 14.962 -0.145195 16.8635 0.010127 19.0538C0.156893 21.1239 1.87122 22.7329 3.94645 22.7483H3.95904H17.0441C19.7805 22.753 22.0026 20.5386 22.0074 17.8022C22.0096 16.4843 21.4867 15.2197 20.5544 14.2883ZM14.1729 7.42623C15.1934 7.0204 16.3305 7.0204 17.351 7.42623C19.5634 8.3089 20.6431 10.8163 19.7642 13.0301C19.7006 13.1826 19.6283 13.3313 19.5478 13.4755V13.5158C18.2846 12.7814 16.7617 12.6415 15.3858 13.1333C15.1318 12.1201 14.6144 11.1921 13.886 10.4433C14.3949 9.49857 15.5286 9.0818 16.5282 9.47202C16.7671 9.55059 17.0246 9.42056 17.1031 9.18163C17.1752 8.96246 17.072 8.72397 16.8629 8.62653C15.5056 8.08268 13.9538 8.58935 13.1789 9.82934C12.8355 9.57116 12.4652 9.35092 12.0743 9.17257C12.5657 8.3781 13.3023 7.76512 14.1729 7.42623ZM18 21.7217C17.6885 21.7961 17.3693 21.8333 17.0491 21.8324H3.96407C2.27277 21.8309 0.902928 20.4585 0.904438 18.7672C0.905193 17.9566 1.22722 17.1795 1.80001 16.6059L1.79497 16.6085C2.36851 16.034 3.14726 15.7116 3.95904 15.7126H4.06975H4.16789C4.41884 15.7297 4.63619 15.5401 4.65323 15.2892C4.65594 15.2499 4.65348 15.2103 4.646 15.1716C4.63593 15.0844 4.62757 14.9896 4.62084 14.8873C4.62084 14.7916 4.62084 14.686 4.62084 14.5677C4.65814 11.7968 6.93462 9.58079 9.70556 9.61809C12.1403 9.65087 14.2001 11.427 14.5906 13.8304C14.6267 14.0793 14.8577 14.252 15.1067 14.2159C15.1547 14.2089 15.2014 14.1943 15.2449 14.1726C15.5235 14.0333 15.8173 13.9269 16.1206 13.8556C18.2927 13.3366 20.4743 14.6768 20.9933 16.849C21.5123 19.0211 20.1721 21.2027 18 21.7217Z" fill="black"/>
<path d="M24.98 9.14667C24.9105 8.9214 24.6806 8.78639 24.45 8.8354L22.5577 9.33867C22.3148 9.40158 22.1685 9.64912 22.2306 9.89227C22.2933 10.1358 22.5416 10.2825 22.7852 10.2198C22.7857 10.2196 22.7863 10.2195 22.7867 10.2194L24.679 9.71612C24.9194 9.64202 25.0542 9.38705 24.98 9.14667Z" fill="black"/>
<path d="M24.6584 13.5989L22.7712 13.083C22.5287 13.0135 22.2758 13.1538 22.2063 13.3963C22.1368 13.6388 22.277 13.8917 22.5196 13.9613L24.4068 14.4771C24.6493 14.5466 24.9022 14.4063 24.9717 14.1638C25.0412 13.9213 24.901 13.6684 24.6584 13.5989Z" fill="black"/>
<path d="M18.2279 2.30674C17.9853 2.23722 17.7325 2.37751 17.6629 2.62002L17.1471 4.50729C17.0751 4.74829 17.2121 5.00207 17.4531 5.07403C17.4584 5.07561 17.4638 5.07712 17.4692 5.0785C17.7105 5.14952 17.9637 5.0115 18.0347 4.77018C18.0359 4.76647 18.0369 4.7627 18.0379 4.75892L18.5411 2.87166C18.6106 2.62915 18.4704 2.37625 18.2279 2.30674Z" fill="black"/>
</g>
<defs>
<clipPath id="clip0_122_4651">
<rect width="25" height="25" fill="white"/>
</clipPath>
</defs>
</svg>
