<?xml version="1.0" encoding="UTF-8"?>
<svg xmlns="http://www.w3.org/2000/svg" xmlns:xlink="http://www.w3.org/1999/xlink" width="20px" height="28px" viewBox="0 0 20 28" version="1.1">
<g id="surface1">
<path style=" stroke:none;fill-rule:nonzero;fill:rgb(0%,0%,0%);fill-opacity:1;" d="M 9.925781 6.109375 C 7.945312 6.109375 6.335938 7.707031 6.335938 9.671875 C 6.335938 11.636719 7.945312 13.238281 9.925781 13.238281 C 11.90625 13.238281 13.515625 11.636719 13.515625 9.671875 C 13.515625 7.707031 11.90625 6.109375 9.925781 6.109375 Z M 9.925781 12.21875 C 8.511719 12.21875 7.359375 11.078125 7.359375 9.671875 C 7.359375 8.269531 8.511719 7.128906 9.925781 7.128906 C 11.339844 7.128906 12.488281 8.269531 12.488281 9.671875 C 12.488281 11.078125 11.339844 12.21875 9.925781 12.21875 Z M 9.925781 12.21875 "/>
<path style=" stroke:none;fill-rule:nonzero;fill:rgb(0%,0%,0%);fill-opacity:1;" d="M 16.789062 2.859375 C 14.929688 1.015625 12.460938 0 9.835938 0 C 7.207031 0 4.738281 1.015625 2.878906 2.859375 C -0.558594 6.273438 -0.984375 12.691406 1.957031 16.582031 L 9.835938 27.875 L 17.703125 16.597656 C 20.652344 12.691406 20.226562 6.273438 16.789062 2.859375 Z M 16.871094 16 L 9.835938 26.085938 L 2.789062 15.984375 C 0.121094 12.457031 0.503906 6.660156 3.605469 3.578125 C 5.269531 1.929688 7.480469 1.019531 9.835938 1.019531 C 12.1875 1.019531 14.398438 1.929688 16.0625 3.578125 C 19.164062 6.660156 19.546875 12.457031 16.871094 16 Z M 16.871094 16 "/>
</g>
</svg>
