<svg width="36" height="50" viewBox="0 0 36 50" fill="none" xmlns="http://www.w3.org/2000/svg">
<path d="M8.43163 32.9249V33.4817C8.43163 35.1521 9.05485 36.7854 9.60475 38.233C10.0813 39.4951 10.4846 40.5344 10.4846 41.5367C10.4846 43.9123 8.57827 45.8425 6.23204 45.8425C3.88581 45.8425 1.97949 43.9123 1.97949 41.5367C1.97949 39.4208 4.47236 34.3726 7.14854 32.7764L8.39497 32.0341V32.9249H8.43163Z" fill="url(#paint0_radial_54_6924)"/>
<path d="M7.91834 33.4817C7.91834 35.2635 8.57822 36.9338 9.12811 38.4186C9.56803 39.6065 9.97129 40.6458 9.97129 41.5367C9.97129 43.6154 8.28494 45.3229 6.23198 45.3229C4.17903 45.3229 2.49268 43.6154 2.49268 41.5367C2.49268 39.5693 4.94889 34.7067 7.44176 33.1848L7.91834 32.8878V33.4817Z" fill="url(#paint1_radial_54_6924)"/>
<path d="M8.9814 40.5344C8.9814 39.8291 8.7981 39.0125 8.54148 38.0845C9.01806 39.3095 9.45798 40.4231 9.45798 41.3139C9.45798 43.207 7.91826 44.766 6.04861 44.766C5.97529 44.766 5.86531 44.766 5.79199 44.766C7.55167 44.6176 8.9814 42.7987 8.9814 40.5344Z" fill="#D1DCEE"/>
<path d="M5.71919 36.674C5.68253 36.5998 5.68253 36.4142 5.79251 36.3028C5.86583 36.1544 5.97581 36.1172 6.04913 36.1915C6.08579 36.2657 6.08579 36.4513 5.97581 36.5627C5.86583 36.674 5.75585 36.7483 5.71919 36.674Z" fill="#F1E6DD"/>
<path d="M4.58247 38.5672C4.50915 38.4558 4.58247 38.1589 4.72911 37.9362C4.87575 37.7134 5.05905 37.6392 5.16903 37.7506C5.24235 37.8619 5.20569 38.1589 5.02239 38.3816C4.87575 38.6043 4.69245 38.6785 4.58247 38.5672Z" fill="#F1E6DD"/>
<path d="M23.6091 21.5664V21.9005C23.6091 22.9027 23.9757 23.905 24.3056 24.7587C24.5989 25.5011 24.8555 26.1692 24.8555 26.7632C24.8555 28.1737 23.7191 29.3615 22.2893 29.3615C20.8963 29.3615 19.7231 28.2108 19.7231 26.7632C19.7231 25.464 21.2262 22.4573 22.8392 21.4922L23.5724 21.0468V21.5664H23.6091Z" fill="url(#paint2_radial_54_6924)"/>
<path d="M23.2788 21.9005C23.2788 22.9769 23.6821 23.9792 24.012 24.87C24.2686 25.5753 24.5252 26.2063 24.5252 26.7631C24.5252 28.0252 23.4988 29.0274 22.289 29.0274C21.0426 29.0274 20.0527 27.9881 20.0527 26.7631C20.0527 25.5753 21.5191 22.6429 23.0222 21.752L23.3155 21.5664V21.9005H23.2788Z" fill="url(#paint3_radial_54_6924)"/>
<path d="M23.9391 26.1322C23.9391 25.6867 23.8291 25.2042 23.6458 24.6474C23.9391 25.3898 24.1957 26.0579 24.1957 26.5776C24.1957 27.7283 23.2792 28.6563 22.1427 28.6563C22.1061 28.6563 22.0328 28.6563 21.9961 28.6563C23.0592 28.6192 23.9391 27.5056 23.9391 26.1322Z" fill="#D1DCEE"/>
<path d="M21.9595 23.7936C21.9229 23.7565 21.9595 23.6451 21.9962 23.5709C22.0328 23.4966 22.1062 23.4595 22.1428 23.4966C22.1795 23.5337 22.1428 23.6451 22.1062 23.7193C22.0328 23.8307 21.9595 23.8678 21.9595 23.7936Z" fill="#F1E6DD"/>
<path d="M21.2995 24.9443C21.2629 24.8701 21.2995 24.7216 21.3729 24.5731C21.4828 24.4246 21.5928 24.3875 21.6295 24.4617C21.6661 24.536 21.6295 24.7216 21.5562 24.8329C21.4462 24.9814 21.3362 25.0185 21.2995 24.9443Z" fill="#F1E6DD"/>
<path d="M24.2316 30.3267V30.5865C24.2316 31.3289 24.5249 32.0713 24.7448 32.7395C24.9648 33.2963 25.1481 33.7788 25.1481 34.2243C25.1481 35.3007 24.3049 36.1545 23.2418 36.1545C22.1786 36.1545 21.3354 35.3007 21.3354 34.2243C21.3354 33.2591 22.4719 30.9949 23.6817 30.2896L24.2316 29.9555V30.3267Z" fill="url(#paint4_radial_54_6924)"/>
<path d="M24.0114 30.5494C24.0114 31.329 24.3047 32.1085 24.5613 32.7766C24.7812 33.2963 24.9279 33.7788 24.9279 34.1872C24.9279 35.1151 24.158 35.8946 23.2415 35.8946C22.325 35.8946 21.5552 35.1151 21.5552 34.1872C21.5552 33.2963 22.655 31.1062 23.7914 30.4381L24.0114 30.3267V30.5494Z" fill="url(#paint5_radial_54_6924)"/>
<path d="M24.4884 33.7418C24.4884 33.4077 24.415 33.0365 24.2684 32.6282C24.4884 33.185 24.6717 33.6675 24.6717 34.0758C24.6717 34.9296 23.9751 35.6349 23.132 35.6349C23.0953 35.6349 23.0586 35.6349 23.022 35.6349C23.8651 35.5606 24.4884 34.744 24.4884 33.7418Z" fill="#D1DCEE"/>
<path d="M23.0215 31.997C22.9849 31.9599 23.0215 31.8857 23.0582 31.8114C23.0949 31.7372 23.1315 31.7372 23.1682 31.7743C23.2048 31.8114 23.1682 31.8857 23.1315 31.9599C23.0949 31.997 23.0215 32.0342 23.0215 31.997Z" fill="#F1E6DD"/>
<path d="M22.5085 32.8508C22.4719 32.8137 22.5085 32.6652 22.5818 32.5538C22.6552 32.4425 22.7285 32.4054 22.7651 32.4796C22.8018 32.5167 22.7651 32.6652 22.6918 32.7766C22.6552 32.8879 22.5452 32.925 22.5085 32.8508Z" fill="#F1E6DD"/>
<path d="M18.0368 30.7349V30.9947C18.0368 31.7371 18.33 32.4795 18.55 33.1477C18.77 33.7045 18.9533 34.187 18.9533 34.6325C18.9533 35.7089 18.1101 36.5627 17.0469 36.5627C15.9838 36.5627 15.1406 35.7089 15.1406 34.6325C15.1406 33.6673 16.2771 31.4031 17.4869 30.6978L18.0368 30.3637V30.7349Z" fill="url(#paint6_radial_54_6924)"/>
<path d="M17.8166 30.9948C17.8166 31.7743 18.1098 32.5538 18.3665 33.2219C18.5864 33.7416 18.7331 34.2241 18.7331 34.6325C18.7331 35.5605 17.9632 36.34 17.0467 36.34C16.1302 36.34 15.3604 35.5605 15.3604 34.6325C15.3604 33.7416 16.4601 31.5515 17.5966 30.8834L17.8166 30.772V30.9948Z" fill="url(#paint7_radial_54_6924)"/>
<path d="M18.2935 34.187C18.2935 33.8529 18.2202 33.4817 18.0736 33.0734C18.2935 33.6302 18.4768 34.1127 18.4768 34.521C18.4768 35.3748 17.7803 36.08 16.9371 36.08C16.9005 36.08 16.8638 36.08 16.8271 36.08C17.6703 36.0058 18.2935 35.1892 18.2935 34.187Z" fill="#D1DCEE"/>
<path d="M16.8267 32.4424C16.79 32.4053 16.8267 32.3311 16.8634 32.2568C16.9 32.1826 16.9367 32.1826 16.9733 32.2197C17.01 32.2568 16.9733 32.3311 16.9367 32.4053C16.9 32.4424 16.8267 32.4795 16.8267 32.4424Z" fill="#F1E6DD"/>
<path d="M16.3137 33.2962C16.277 33.2591 16.3137 33.1106 16.387 32.9993C16.4603 32.8879 16.5337 32.8508 16.5703 32.925C16.607 32.9622 16.5703 33.1106 16.497 33.222C16.4603 33.3333 16.3504 33.3333 16.3137 33.2962Z" fill="#F1E6DD"/>
<path d="M5.79207 21.1953V21.6036C5.79207 22.8285 6.23199 24.0163 6.63525 25.0928C6.96519 25.9837 7.29513 26.8003 7.29513 27.5056C7.29513 29.2502 5.90205 30.6236 4.2157 30.6236C2.49268 30.6236 1.09961 29.2131 1.09961 27.4685C1.09961 25.9094 2.9326 22.2346 4.87558 21.0468L5.79207 20.49V21.1953Z" fill="url(#paint8_radial_54_6924)"/>
<path d="M5.42558 21.6036C5.42558 22.9028 5.90215 24.1277 6.30541 25.2042C6.63535 26.0579 6.92863 26.8374 6.92863 27.4685C6.92863 28.9904 5.71885 30.2153 4.17914 30.2153C2.67608 30.2524 1.46631 29.0275 1.46631 27.4685C1.46631 26.0208 3.26264 22.4573 5.05898 21.3809L5.42558 21.1581V21.6036Z" fill="url(#paint9_radial_54_6924)"/>
<path d="M6.19535 26.7632C6.19535 26.2436 6.04871 25.6497 5.86541 24.9815C6.19535 25.8724 6.52529 26.689 6.52529 27.32C6.52529 28.7306 5.4255 29.8442 4.03242 29.8442C3.9591 29.8442 3.92244 29.8442 3.84912 29.8442C5.16888 29.7328 6.19535 28.3965 6.19535 26.7632Z" fill="#D1DCEE"/>
<path d="M3.77544 23.9049C3.73878 23.8678 3.77544 23.7193 3.8121 23.6451C3.84876 23.5709 3.95874 23.4966 3.9954 23.5709C4.03206 23.608 3.9954 23.7565 3.95874 23.8307C3.92208 23.9421 3.8121 23.9792 3.77544 23.9049Z" fill="#F1E6DD"/>
<path d="M2.96883 25.3155C2.93217 25.2412 2.96883 25.0185 3.0788 24.87C3.18878 24.7216 3.33542 24.6473 3.37208 24.7216C3.4454 24.7958 3.40874 25.0185 3.2621 25.167C3.18878 25.3526 3.04215 25.4268 2.96883 25.3155Z" fill="#F1E6DD"/>
<path d="M31.4537 23.9421V24.3505C31.4537 25.5754 31.8936 26.7632 32.2968 27.8397C32.6268 28.7306 32.9567 29.5472 32.9567 30.2525C32.9567 31.9971 31.5636 33.3705 29.8773 33.3705C28.1543 33.3705 26.7979 31.96 26.7979 30.2525C26.7979 28.6934 28.6308 25.0186 30.5738 23.8308L31.4903 23.274V23.9421H31.4537Z" fill="url(#paint10_radial_54_6924)"/>
<path d="M31.0867 24.3505C31.0867 25.6497 31.5633 26.8747 31.9665 27.9511C32.2965 28.842 32.5898 29.5844 32.5898 30.2154C32.5898 31.7373 31.38 32.9994 29.8403 32.9994C28.3372 32.9994 27.1274 31.7744 27.1274 30.2154C27.1274 28.7678 28.9238 25.2043 30.7201 24.1278L31.0867 23.9051V24.3505Z" fill="url(#paint11_radial_54_6924)"/>
<path d="M31.857 29.5101C31.857 28.9904 31.7103 28.3965 31.527 27.7283C31.857 28.6192 32.1869 29.4358 32.1869 30.0669C32.1869 31.4774 31.0871 32.591 29.694 32.591C29.6207 32.591 29.5841 32.591 29.5107 32.591C30.8305 32.4796 31.857 31.1433 31.857 29.5101Z" fill="#D1DCEE"/>
<path d="M29.4375 26.6519C29.4009 26.6148 29.4375 26.4663 29.4742 26.392C29.5475 26.2807 29.6208 26.2436 29.6575 26.3178C29.6942 26.3549 29.6575 26.5034 29.6208 26.5776C29.5842 26.689 29.4742 26.7261 29.4375 26.6519Z" fill="#F1E6DD"/>
<path d="M28.6311 28.0624C28.5578 27.9881 28.6311 27.7654 28.7411 27.6169C28.851 27.4685 28.9977 27.3942 29.0343 27.4685C29.1076 27.5427 29.071 27.7654 28.9244 27.9139C28.851 28.0995 28.7044 28.1366 28.6311 28.0624Z" fill="#F1E6DD"/>
<path d="M29.3279 7.27543C29.3279 7.08983 29.3646 6.94135 29.3646 6.75575C29.3646 3.00668 26.2851 0 22.4725 0C19.3564 0 16.7536 2.00445 15.8737 4.7513C14.8839 4.00891 13.6008 3.56347 12.2077 3.56347C9.05499 3.56347 6.4888 5.86488 6.4888 8.68597C6.4888 8.94581 6.52546 9.16852 6.56212 9.42836C2.78615 10.0594 0 12.1381 0 14.6622C0 17.6318 3.92261 20.0445 8.79837 20.0445C10.5214 20.0445 12.0978 19.7476 13.4542 19.2279C14.9206 19.8961 16.6802 20.3044 18.6232 20.3044C20.4929 20.3044 22.1792 19.9332 23.609 19.3393C24.8921 20.0445 26.3951 20.4529 28.0081 20.4529C32.4073 20.4529 36 17.4833 36 13.8456C36 10.5048 33.1405 7.7951 29.3279 7.27543Z" fill="url(#paint12_radial_54_6924)"/>
<path d="M16.4602 5.2338L16.2402 5.90195L15.6903 5.49364C14.8105 4.82549 13.674 4.45429 12.5376 4.45429C9.82472 4.45429 7.62513 6.42163 7.62513 8.79728C7.62513 8.98288 7.62513 9.20559 7.66179 9.42831L7.73511 9.91086L7.25853 9.9851C3.88582 10.5419 1.50293 12.3608 1.50293 14.4023C1.50293 16.9265 5.02228 18.968 9.31148 18.968C10.8145 18.968 12.2809 18.7082 13.5274 18.2256L13.7107 18.1514L13.894 18.2256C15.2504 18.8567 16.8634 19.1907 18.5864 19.1907C20.1995 19.1907 21.7758 18.8938 23.0956 18.2999L23.3156 18.1885L23.5355 18.2999C24.7086 18.9309 26.065 19.265 27.4581 19.265C31.3441 19.265 34.5335 16.7037 34.5335 13.5115C34.5335 10.6904 32.0773 8.31472 28.6679 7.83217L28.228 7.75793L28.2646 6.82994C28.228 3.7119 25.5151 1.07642 22.2158 1.07642C19.5396 1.07642 17.23 2.7468 16.4602 5.2338Z" fill="url(#paint13_radial_54_6924)"/>
<path d="M33.5807 13.3631C33.5807 11.0988 31.4911 9.1315 28.595 8.72318L27.2019 8.53758C27.2019 8.53758 27.2752 6.75585 27.2752 6.68161C27.2752 4.04612 25.039 1.89319 22.2895 1.89319C20.8597 1.89319 19.5767 2.44998 18.6602 3.41509C19.43 2.93254 20.3832 2.63558 21.373 2.63558C24.1591 2.6727 26.3954 4.82563 26.3954 7.46112C26.3954 7.53536 26.3221 9.31709 26.3221 9.31709L27.7151 9.50269C30.6113 9.91101 32.7009 11.8412 32.7009 14.1426C32.7009 15.2191 32.2243 16.2213 31.4545 17.0008C32.7375 16.11 33.5807 14.8108 33.5807 13.3631Z" fill="url(#paint14_radial_54_6924)"/>
<path d="M10.6679 14.1426C9.75142 14.2168 8.90824 14.9963 8.7616 15.9243L7.44185 25.2413C7.29521 26.1693 7.95509 26.8003 8.83492 26.689L11.6577 26.3178C12.5742 26.2064 12.9775 26.7632 12.5376 27.5798L7.95509 36.4885C7.51517 37.3052 7.66181 37.4165 8.24836 36.6741L18.9164 23.7194C19.5029 23.0141 19.2463 22.4574 18.3298 22.4945L14.9938 22.6801C14.0773 22.7172 13.6374 22.0862 14.004 21.2324L16.5335 15.2562C16.9001 14.4024 16.4602 13.7714 15.5437 13.8085L10.6679 14.1426Z" fill="url(#paint15_radial_54_6924)"/>
<path d="M15.5803 14.6622L10.7045 14.9963C10.1913 15.0334 9.64138 15.516 9.56806 16.0357L8.21165 25.3898C8.17499 25.5754 8.21165 25.7239 8.28497 25.7981C8.35829 25.8723 8.50493 25.9094 8.68823 25.8723L11.511 25.5011C12.2442 25.3898 12.9041 25.6496 13.2341 26.1322C13.4174 26.392 13.4907 26.689 13.4907 26.9859C13.4907 27.32 13.4174 27.6541 13.2341 27.9881C13.2341 27.9881 12.3176 29.807 11.4744 31.4403C14.5538 27.6912 17.9632 23.608 18.1465 23.3853C17.7432 23.3853 15.0304 23.5338 15.0304 23.5338C14.2972 23.5709 13.674 23.3111 13.3074 22.7914C13.1241 22.4945 13.0141 22.1604 13.0141 21.7892C13.0141 21.4922 13.0874 21.1953 13.1974 20.8983L15.7636 14.9221C15.8002 14.8107 15.8369 14.7365 15.8369 14.6994C15.8002 14.6622 15.7269 14.6622 15.5803 14.6622Z" fill="url(#paint16_radial_54_6924)"/>
<path d="M19.0265 6.45881C19.0265 6.34745 19.0265 6.23609 19.0265 6.12473C19.0265 3.71196 17.0102 1.74463 14.554 1.74463C12.5377 1.74463 10.8513 3.04381 10.2648 4.82555C9.60489 4.343 8.79837 4.04604 7.88187 4.04604C5.82892 4.04604 4.17923 5.53082 4.17923 7.3868C4.17923 7.53527 4.17923 7.72087 4.21589 7.86935C1.79633 8.27767 0 9.65109 0 11.2472C0 13.1774 2.56619 14.7365 5.68228 14.7365C6.78208 14.7365 7.80855 14.5509 8.68839 14.2168C9.64155 14.6622 10.778 14.9221 12.0611 14.9221C13.2709 14.9221 14.3707 14.6993 15.2872 14.291C16.0937 14.7365 17.0835 14.9963 18.1466 14.9963C21.0061 14.9963 23.3157 13.0661 23.3157 10.7276C23.3523 8.57462 21.4827 6.79288 19.0265 6.45881Z" fill="url(#paint17_radial_54_6924)"/>
<path d="M10.668 5.15962L10.5214 5.56793L10.1548 5.3081C9.56823 4.89978 8.83504 4.63995 8.10184 4.63995C6.34216 4.63995 4.91243 5.90201 4.91243 7.46103C4.91243 7.60951 4.91243 7.72087 4.94909 7.86934L4.98575 8.20342L4.65581 8.24054C2.45622 8.61174 0.916504 9.76244 0.916504 11.0987C0.916504 12.732 3.18942 14.0683 5.97557 14.0683C6.92872 14.0683 7.88188 13.9198 8.72506 13.5857L8.83504 13.5486L8.94502 13.5857C9.82485 13.9941 10.888 14.2168 11.9878 14.2168C13.0509 14.2168 14.0407 14.0312 14.9206 13.66L15.0672 13.5857L15.2139 13.66C15.9837 14.0683 16.8635 14.291 17.78 14.291C20.3096 14.291 22.3625 12.6206 22.3625 10.5791C22.3625 8.76021 20.7495 7.20119 18.5499 6.90424L18.2566 6.86712L18.2933 6.27321C18.2933 4.19451 16.5336 2.48701 14.4073 2.48701C12.6843 2.4499 11.1813 3.52636 10.668 5.15962Z" fill="url(#paint18_radial_54_6924)"/>
<path d="M21.7758 10.4306C21.7758 8.94584 20.4194 7.68377 18.5498 7.42394L17.6699 7.31258C17.6699 7.31258 17.7066 6.16187 17.7066 6.12475C17.7066 4.41726 16.2402 3.00671 14.4805 3.00671C13.564 3.00671 12.7208 3.37791 12.1343 3.97182C12.6475 3.63775 13.2341 3.45215 13.894 3.45215C15.6903 3.45215 17.12 4.86269 17.12 6.57019C17.12 6.60731 17.0834 7.75801 17.0834 7.75801L17.9632 7.86937C19.8329 8.12921 21.1893 9.39127 21.1893 10.8761C21.1893 11.5813 20.896 12.2124 20.3828 12.732C21.2259 12.2124 21.7758 11.3957 21.7758 10.4306Z" fill="url(#paint19_radial_54_6924)"/>
<defs>
<radialGradient id="paint0_radial_54_6924" cx="0" cy="0" r="1" gradientUnits="userSpaceOnUse" gradientTransform="translate(2.37611 36.1823) scale(13.7987 13.9717)">
<stop offset="0.005618" stop-color="#D3DFF2"/>
<stop offset="0.5393" stop-color="#1998D5"/>
<stop offset="1" stop-color="#0073BB"/>
</radialGradient>
<radialGradient id="paint1_radial_54_6924" cx="0" cy="0" r="1" gradientUnits="userSpaceOnUse" gradientTransform="translate(6.04638 39.3466) rotate(180) scale(5.07732 5.14098)">
<stop offset="0.005618" stop-color="#A9D1EF"/>
<stop offset="0.5393" stop-color="#1998D5"/>
<stop offset="1" stop-color="#0073BB"/>
</radialGradient>
<radialGradient id="paint2_radial_54_6924" cx="0" cy="0" r="1" gradientUnits="userSpaceOnUse" gradientTransform="translate(19.7688 23.3538) scale(8.30428 8.40841)">
<stop offset="0.005618" stop-color="#D3DFF2"/>
<stop offset="0.5393" stop-color="#1998D5"/>
<stop offset="1" stop-color="#0073BB"/>
</radialGradient>
<radialGradient id="paint3_radial_54_6924" cx="0" cy="0" r="1" gradientUnits="userSpaceOnUse" gradientTransform="translate(22.4944 25.0533) rotate(180) scale(3.05349 3.09178)">
<stop offset="0.005618" stop-color="#A9D1EF"/>
<stop offset="0.5393" stop-color="#1998D5"/>
<stop offset="1" stop-color="#0073BB"/>
</radialGradient>
<radialGradient id="paint4_radial_54_6924" cx="0" cy="0" r="1" gradientUnits="userSpaceOnUse" gradientTransform="translate(21.5334 31.7907) scale(6.20249 6.28027)">
<stop offset="0.005618" stop-color="#D3DFF2"/>
<stop offset="0.5393" stop-color="#1998D5"/>
<stop offset="1" stop-color="#0073BB"/>
</radialGradient>
<radialGradient id="paint5_radial_54_6924" cx="0" cy="0" r="1" gradientUnits="userSpaceOnUse" gradientTransform="translate(23.3185 33.0438) rotate(180) scale(2.28128 2.30989)">
<stop offset="0.005618" stop-color="#A9D1EF"/>
<stop offset="0.5393" stop-color="#1998D5"/>
<stop offset="1" stop-color="#0073BB"/>
</radialGradient>
<radialGradient id="paint6_radial_54_6924" cx="0" cy="0" r="1" gradientUnits="userSpaceOnUse" gradientTransform="translate(15.3386 32.2321) scale(6.20266 6.28042)">
<stop offset="0.005618" stop-color="#D3DFF2"/>
<stop offset="0.5393" stop-color="#1998D5"/>
<stop offset="1" stop-color="#0073BB"/>
</radialGradient>
<radialGradient id="paint7_radial_54_6924" cx="0" cy="0" r="1" gradientUnits="userSpaceOnUse" gradientTransform="translate(17.1234 33.4852) rotate(180) scale(2.28124 2.30984)">
<stop offset="0.005618" stop-color="#A9D1EF"/>
<stop offset="0.5393" stop-color="#1998D5"/>
<stop offset="1" stop-color="#0073BB"/>
</radialGradient>
<radialGradient id="paint8_radial_54_6924" cx="0" cy="0" r="1" gradientUnits="userSpaceOnUse" gradientTransform="translate(1.22781 23.4487) scale(10.0786 10.2049)">
<stop offset="0.005618" stop-color="#D3DFF2"/>
<stop offset="0.5393" stop-color="#1998D5"/>
<stop offset="1" stop-color="#0073BB"/>
</radialGradient>
<radialGradient id="paint9_radial_54_6924" cx="0" cy="0" r="1" gradientUnits="userSpaceOnUse" gradientTransform="translate(4.22371 25.6827) rotate(180) scale(3.70759 3.75408)">
<stop offset="0.005618" stop-color="#A9D1EF"/>
<stop offset="0.5393" stop-color="#1998D5"/>
<stop offset="1" stop-color="#0073BB"/>
</radialGradient>
<radialGradient id="paint10_radial_54_6924" cx="0" cy="0" r="1" gradientUnits="userSpaceOnUse" gradientTransform="translate(26.8944 26.1904) scale(10.0784 10.2047)">
<stop offset="0.005618" stop-color="#D3DFF2"/>
<stop offset="0.5393" stop-color="#1998D5"/>
<stop offset="1" stop-color="#0073BB"/>
</radialGradient>
<radialGradient id="paint11_radial_54_6924" cx="0" cy="0" r="1" gradientUnits="userSpaceOnUse" gradientTransform="translate(29.8889 28.4244) rotate(180) scale(3.70745 3.75394)">
<stop offset="0.005618" stop-color="#A9D1EF"/>
<stop offset="0.5393" stop-color="#1998D5"/>
<stop offset="1" stop-color="#0073BB"/>
</radialGradient>
<radialGradient id="paint12_radial_54_6924" cx="0" cy="0" r="1" gradientUnits="userSpaceOnUse" gradientTransform="translate(24.7638 25.0561) scale(28.3007 28.6555)">
<stop offset="0.005618" stop-color="#A9D1EF"/>
<stop offset="0.5393" stop-color="#1998D5"/>
<stop offset="1" stop-color="#0073BB"/>
</radialGradient>
<radialGradient id="paint13_radial_54_6924" cx="0" cy="0" r="1" gradientUnits="userSpaceOnUse" gradientTransform="translate(29.7567 7.16588) scale(17.9257 18.1505)">
<stop offset="0.005618" stop-color="#A9D1EF"/>
<stop offset="0.5393" stop-color="#1998D5"/>
<stop offset="1" stop-color="#0073BB"/>
</radialGradient>
<radialGradient id="paint14_radial_54_6924" cx="0" cy="0" r="1" gradientUnits="userSpaceOnUse" gradientTransform="translate(29.6542 8.3434) scale(21.498 21.7632)">
<stop stop-color="#CBEBFB"/>
<stop offset="0.7767" stop-color="#BDCDDA"/>
<stop offset="1" stop-color="#B9C4D0"/>
</radialGradient>
<radialGradient id="paint15_radial_54_6924" cx="0" cy="0" r="1" gradientUnits="userSpaceOnUse" gradientTransform="translate(13.7256 25.7319) scale(15.1631 8.99297)">
<stop stop-color="#FBB01C"/>
<stop offset="0.7007" stop-color="#FBAE1C"/>
<stop offset="0.9529" stop-color="#F9A71A"/>
<stop offset="1" stop-color="#F9A51A"/>
</radialGradient>
<radialGradient id="paint16_radial_54_6924" cx="0" cy="0" r="1" gradientUnits="userSpaceOnUse" gradientTransform="translate(15.7793 28.3736) scale(19.8854 20.1347)">
<stop offset="0.19" stop-color="#FFF100"/>
<stop offset="0.5752" stop-color="#FAC217"/>
<stop offset="1" stop-color="#F58A33"/>
</radialGradient>
<radialGradient id="paint17_radial_54_6924" cx="0" cy="0" r="1" gradientUnits="userSpaceOnUse" gradientTransform="translate(15.7767 17.7234) scale(18.3376 18.5675)">
<stop offset="0.005618" stop-color="#A9D1EF"/>
<stop offset="0.5393" stop-color="#1998D5"/>
<stop offset="1" stop-color="#0073BB"/>
</radialGradient>
<radialGradient id="paint18_radial_54_6924" cx="0" cy="0" r="1" gradientUnits="userSpaceOnUse" gradientTransform="translate(19.0121 6.13231) scale(11.6151 11.7607)">
<stop offset="0.005618" stop-color="#A9D1EF"/>
<stop offset="0.5393" stop-color="#1998D5"/>
<stop offset="1" stop-color="#005588"/>
</radialGradient>
<radialGradient id="paint19_radial_54_6924" cx="0" cy="0" r="1" gradientUnits="userSpaceOnUse" gradientTransform="translate(18.9759 7.00371) scale(13.9263 14.1009)">
<stop stop-color="#CBEBFB"/>
<stop offset="0.7767" stop-color="#BDCDDA"/>
<stop offset="1" stop-color="#B9C4D0"/>
</radialGradient>
</defs>
</svg>
