<svg width="305" height="306" viewBox="0 0 305 306" fill="none" xmlns="http://www.w3.org/2000/svg">
<g clip-path="url(#clip0_106_1238)">
<path d="M27.5999 25.5C27.5999 25.5 129.6 -34.2 228.4 29C327.2 92.2 301.2 221.7 301.2 221.7C301.2 221.7 285.3 205 256 210.4C256 210.4 256.5 170.4 213.3 174.1C213.3 174.1 191.6 123.6 144.6 137.5C144.6 137.5 135.8 92.4 79.0999 98.1C78.9999 98.1 66.3999 46.6 27.5999 25.5Z" fill="#8FA6E3"/>
<g opacity="0.4">
<g opacity="0.4">
<path opacity="0.4" d="M27.5999 25.5C27.5999 25.5 129.6 -34.2 228.4 29C327.2 92.2 301.2 221.7 301.2 221.7C301.2 221.7 285.3 205 256 210.4C256 210.4 256.5 170.4 213.3 174.1C213.3 174.1 191.6 123.6 144.6 137.5C144.6 137.5 135.8 92.4 79.0999 98.1C78.9999 98.1 66.3999 46.6 27.5999 25.5Z" fill="black"/>
</g>
</g>
<path d="M217.8 200.6C218.8 192.5 214 184 206.5 180.8C201 178.5 194.1 178.5 190.4 173.8C186.3 168.7 188.4 160.6 184.8 155.1C180.7 148.8 170.7 148.4 166.8 142.1C163.8 137.3 165.3 130.8 162.6 125.8C159.8 120.6 153.3 118.6 149.5 114.1C145.3 109.1 144.2 101.1 138.3 98.4C134.9 96.8 130.8 97.6 127.6 99.5C124.4 101.4 121.9 104.2 119.4 107.1C109.5 118.4 99.5998 129.6 89.7998 140.9C88.9998 141.8 88.0998 142.8 87.7998 144C86.7998 147.3 89.7998 150.3 92.1998 152.8C98.0998 159 101.8 167.2 102.6 175.7C103.1 181 102.8 187.3 106.9 190.7C110.1 193.3 115.1 193.2 117.9 196.3C121.9 200.7 118.7 207.8 119.7 213.7C120.7 219.2 125.5 223.2 130.5 225.7C135.5 228.2 141 229.7 145.6 232.8C150.2 235.9 154 241.4 152.8 246.8C162.8 242 172 235.6 180 228C177.6 224.5 175.2 221.1 172.9 217.6C177.1 220.2 181.3 222.9 185.6 225.5C187.3 222.5 190.6 221 193.4 219.1C196.2 217.1 198.7 213.8 197.5 210.6C196.1 206.7 190.2 205.5 189.7 201.5C195.2 202.8 200.2 206 203.7 210.4C209.1 208.2 214.8 205.9 217.8 200.6Z" fill="#263238"/>
<path d="M131.2 180.1C141.1 172.3 149.6 174.9 159 177.2C168.3 179.5 175.8 188.3 182.5 195.2C189.2 202.1 195.1 209.7 202.3 216.1C209.5 222.4 218.4 227.4 228 227.6C235.1 227.7 242.1 225.1 249.1 226.1C256 227.1 262.3 231.8 265.2 238.1C262.5 244.7 259.8 251.2 257.2 257.8C253.9 249.5 243.9 246.2 235 246C226.1 245.8 217.1 247.8 208.4 246C197.9 243.8 189.4 236.4 182.1 228.6C174.8 220.8 168.2 212.1 159.3 206.2C150.4 200.2 138.5 197.4 129 202.4" fill="#8FA6E3"/>
<g opacity="0.4">
<g opacity="0.4">
<path opacity="0.4" d="M131.2 180.1C141.1 172.3 149.6 174.9 159 177.2C168.3 179.5 175.8 188.3 182.5 195.2C189.2 202.1 195.1 209.7 202.3 216.1C209.5 222.4 218.4 227.4 228 227.6C235.1 227.7 242.1 225.1 249.1 226.1C256 227.1 262.3 231.8 265.2 238.1C262.5 244.7 259.8 251.2 257.2 257.8C253.9 249.5 243.9 246.2 235 246C226.1 245.8 217.1 247.8 208.4 246C197.9 243.8 189.4 236.4 182.1 228.6C174.8 220.8 168.2 212.1 159.3 206.2C150.4 200.2 138.5 197.4 129 202.4" fill="black"/>
</g>
</g>
<path d="M247.9 248.8C248 248.8 248.5 247.7 249.3 245.8C250.1 243.9 251 241.3 252 238.4C252.9 235.5 253.6 232.7 254.1 230.8C254.5 228.8 254.7 227.6 254.7 227.6C254.6 227.6 254.3 228.8 253.8 230.7C253.3 232.6 252.5 235.3 251.6 238.3C250.7 241.2 249.8 243.9 249.1 245.8C248.2 247.6 247.8 248.8 247.9 248.8Z" fill="#1F4DC5"/>
<path d="M231.399 245.5C231.499 245.5 231.899 244.5 232.499 242.9C233.099 241.2 233.899 238.9 234.599 236.3C235.299 233.7 235.899 231.3 236.199 229.6C236.499 227.9 236.699 226.8 236.599 226.8C236.499 226.8 236.299 227.8 235.799 229.6C235.399 231.3 234.799 233.7 234.099 236.3C233.399 238.9 232.599 241.2 232.099 242.9C231.599 244.4 231.299 245.5 231.399 245.5Z" fill="#1F4DC5"/>
<path d="M213.6 246.9C213.7 247 215.5 242.5 217.6 237C219.7 231.5 221.3 226.9 221.1 226.9C221 226.8 219.2 231.3 217.1 236.8C215.1 242.3 213.5 246.8 213.6 246.9Z" fill="#1F4DC5"/>
<path d="M200.5 241.7C200.6 241.7 201.1 240.6 201.8 238.6C202.5 236.7 203.5 234 204.5 231C205.5 228 206.3 225.3 206.8 223.3C207.3 221.3 207.6 220.1 207.5 220.1C207.4 220.1 207 221.3 206.4 223.2C205.7 225.3 204.9 227.9 204 230.8C203 233.7 202.2 236.3 201.5 238.4C200.9 240.5 200.5 241.7 200.5 241.7Z" fill="#1F4DC5"/>
<path d="M188.9 234.1C189 234.1 190.9 229 193.1 222.5C195.3 216.1 196.9 210.8 196.8 210.8C196.7 210.8 194.8 215.9 192.6 222.4C190.4 228.8 188.8 234.1 188.9 234.1Z" fill="#1F4DC5"/>
<path d="M182.1 211C182.2 211.1 183.4 208.5 184.8 205.3C186.1 202.1 187.1 199.5 187 199.4C186.9 199.3 185.7 201.9 184.3 205.1C182.9 208.3 181.9 210.9 182.1 211Z" fill="#1F4DC5"/>
<path d="M171 196.1C171.1 196.2 172.2 194.4 173.4 192.2C174.6 190 175.4 188.1 175.3 188C175.2 187.9 174.1 189.7 172.9 191.9C171.7 194.2 170.9 196.1 171 196.1Z" fill="#1F4DC5"/>
<path d="M155.7 186.9C155.8 186.9 156.7 184.9 157.7 182.4C158.7 179.9 159.6 177.9 159.5 177.8C159.4 177.7 158.3 179.7 157.2 182.2C156.1 184.7 155.5 186.8 155.7 186.9Z" fill="#1F4DC5"/>
<path d="M141.299 183.1C141.399 183.1 141.7 181.3 141.6 179C141.5 176.7 140.999 174.9 140.799 175C140.699 175 140.899 176.8 140.999 179.1C141.199 181.3 141.099 183.1 141.299 183.1Z" fill="#1F4DC5"/>
<path d="M153 277.7L167.9 193.7C153.8 182.1 138.6 182.9 138.6 182.9L89.4999 183.3C89.4999 183.3 86.3999 183.5 81.7999 184.9C75.7999 185.3 64.4999 187.6 55.9999 201.6C46.9999 216.5 33.8999 247 33.8999 247L31.0999 212.8L9.19992 206.1C-9.00008 254.6 2.6999 291.3 22.7999 294.3C39.4999 296.8 55.6999 276.5 55.6999 276.5L63.7999 262.6L65.5999 271.8L70.3999 294.7L52.8999 333.9C58.9999 333.9 63.0999 334.2 70.6999 333.9H164.4C163.7 326.8 154.7 317.9 154.7 317.9C148.3 306.9 150 290.3 153 277.7Z" fill="#FAC502"/>
<path d="M33.2997 262.4C33.5997 262.4 33.9997 258.7 34.0997 254.2C34.1997 249.6 34.0997 245.9 33.7997 245.9C33.4997 245.9 33.0997 249.6 32.9997 254.1C32.8997 258.7 32.9997 262.4 33.2997 262.4Z" fill="#263238"/>
<g opacity="0.2">
<g opacity="0.2">
<g opacity="0.2">
<path opacity="0.2" d="M157.6 321C158 321.1 160 324 159.4 325.3C158.9 326.6 157.4 327.3 156 327.3C154.6 327.4 153.3 326.9 151.9 326.5C136.2 321.2 120.6 315.8 104.9 310.5C97.6998 308.1 90.5998 305.6 83.3998 303.2C80.8998 302.4 78.0998 301.1 77.5998 298.6C77.3998 297.8 77.5998 296.9 77.2998 296.2C76.8998 295 75.5998 294.2 74.3998 293.8C73.1998 293.4 71.8998 293.1 70.7998 292.3C69.7998 291.5 68.9998 289 69.6998 287.9C69.5998 288.1 77.4998 289 81.3998 291C81.0998 292.6 80.0998 296.6 80.0998 296.6C80.0998 296.6 84.2998 297.7 85.7998 298.3C110.8 308.2 132.7 312.5 157.6 321Z" fill="black"/>
</g>
</g>
</g>
<path d="M31.2003 146.3L64.8003 200.7L38.4003 208.1L9.1003 162.9L31.2003 146.3Z" fill="#E9EEFA"/>
<path d="M33.3004 192.7L32.2004 200.7L27.5004 206.7L27.0004 211.6L10.2004 206.5L17.0004 182.5C17.0004 182.5 15.9004 175.5 16.3004 172.7L20.9004 178.8L22.2004 168.8L31.7004 161.2C32.7004 160.4 34.2004 160.7 34.9004 161.7C35.6004 162.6 35.5004 163.9 34.6004 164.7L27.0004 171.4L26.5004 179.7L32.0004 174.6C32.5004 174.1 33.2004 173.7 33.9004 173.6L41.6004 172.1C42.8004 171.9 43.9004 172.7 44.0004 173.9C44.1004 174.8 43.5004 175.7 42.6004 176L35.6004 178.1L28.5004 185.2L35.4004 182.6L44.8004 183.9C45.7004 184 46.4004 184.8 46.4004 185.7C46.4004 186.7 45.5004 187.6 44.5004 187.5L38.5004 187.2L35.0004 188.3L43.1004 190.4C43.8004 190.6 44.3004 191.3 44.3004 192.1C44.3004 193 43.5004 193.7 42.5004 193.6L33.3004 192.7Z" fill="#FFBE9D"/>
<path d="M64.8003 200.7C64.8003 200.7 67.1003 197.6 66.9003 197.1C66.7003 196.6 35.0003 144.3 35.0003 144.3L31.3003 146.3L64.8003 200.7Z" fill="#263238"/>
<path d="M22.8001 160C22.2001 159.4 21.1001 159.7 20.9001 160.5C20.7001 161.3 21.5001 162.1 22.3001 162C23.0001 161.8 23.4001 160.7 22.8001 160Z" fill="#263238"/>
<path d="M158.5 188C158.5 188 183.5 195.6 188.9 233C190.8 245.9 193.1 275.7 193.9 297.8C194.4 312.3 189 320.5 180.3 323.5C175.7 325.1 170.7 324.9 166 323.5L80.4001 296.9L87.8001 261L152.2 278.3L150.6 251.7L158.5 188Z" fill="#FAC502"/>
<path d="M164 292C164 292 163.8 290.3 162.3 287.5C160.7 284.8 157.6 281.1 152.4 278.2C137.9 274.5 115.2 268.8 88.8001 262.2L88.3001 262.1L88.2001 262.6C86.5001 269.9 84.7001 277.5 82.8001 285.4C81.9001 289.2 81.1001 292.9 80.2001 296.4L80.1001 296.9L80.6001 297.1C106.3 305.6 129.3 312.8 145.8 317.8C154.1 320.3 160.7 322.2 165.4 323.5C167.6 324.1 169.4 324.6 170.7 324.9C171.3 325 171.7 325.1 172.1 325.2C172.4 325.3 172.6 325.3 172.6 325.3C172.6 325.3 172.5 325.2 172.1 325.1C171.7 325 171.3 324.8 170.7 324.7C169.4 324.3 167.7 323.8 165.4 323.1C160.7 321.6 154.1 319.6 145.9 317C129.4 311.8 106.5 304.4 80.8001 295.9L81.2001 296.6C82.0001 293.1 82.9001 289.4 83.8001 285.6C85.6001 277.7 87.4001 270.1 89.1001 262.8L88.4001 263.2C114.9 269.7 137.6 275.2 152.1 278.8H152C157.1 281.6 160.3 285.1 161.9 287.7C163.6 290.3 163.9 292 164 292Z" fill="#263238"/>
<path d="M152.3 246C152 246 152 253.4 152.3 262.5C152.6 271.6 153.1 279 153.4 279C153.7 279 153.7 271.6 153.4 262.5C153.1 253.3 152.6 245.9 152.3 246Z" fill="#263238"/>
<path d="M43.1002 227.2C43.1002 227.2 43.7002 227.1 44.7002 227.1C45.8002 227.1 47.4002 227.4 49.2002 228.3C51.0002 229.2 53.0002 230.8 55.1002 232.8C56.1002 233.8 57.3002 234.9 58.5002 236C59.8002 237.1 61.3002 238.1 63.0002 238.8C66.5002 240.2 70.7002 240.2 75.0002 239.5C79.3002 238.8 83.7002 237.2 88.4002 236.3C90.8002 235.9 93.3002 235.6 95.8002 235.8C98.3002 236 100.8 236.8 103.1 238.1C107.7 240.6 111.7 244.5 116.3 247.7C118.6 249.3 121.1 250.6 123.8 251.4C126.4 252.2 129.2 252.5 131.9 252.4C134.6 252.3 137.2 251.7 139.6 250.8C142 249.9 144.2 248.6 146.2 247.2C150.2 244.4 153.6 241.2 157.1 238.8C160.6 236.3 164.3 234.6 167.9 234C171.5 233.4 174.9 233.6 177.7 234.3C180.5 235 182.8 236 184.6 237C188.2 239.1 189.6 240.9 189.7 240.8C189.7 240.8 189.6 240.7 189.4 240.5C189.2 240.3 188.9 240 188.5 239.6C188.1 239.2 187.6 238.8 187 238.3C186.3 237.8 185.6 237.3 184.7 236.8C182.9 235.7 180.6 234.7 177.8 234C175 233.3 171.6 233 167.9 233.6C166.1 233.9 164.2 234.5 162.3 235.3C160.4 236.1 158.6 237.2 156.8 238.4C153.2 240.9 149.8 244 145.8 246.8C143.8 248.2 141.7 249.5 139.3 250.4C137 251.3 134.4 251.9 131.8 251.9C129.2 252 126.5 251.7 123.9 250.9C121.3 250.1 118.9 248.8 116.6 247.3C112 244.1 108.1 240.2 103.3 237.7C101 236.4 98.4002 235.6 95.8002 235.4C93.2002 235.2 90.7002 235.4 88.3002 235.9C83.5002 236.8 79.1002 238.4 74.9002 239.1C70.7002 239.9 66.5002 239.8 63.1002 238.5C59.7002 237.2 57.4002 234.6 55.2002 232.7C53.1002 230.7 51.1002 229.1 49.2002 228.2C47.3002 227.3 45.7002 227 44.6002 227.1C43.6002 227 43.1002 227.2 43.1002 227.2Z" fill="#1F4DC5"/>
<path d="M55.9006 203.2C55.9006 203.2 56.0006 203.3 56.1006 203.5C56.3006 203.7 56.5006 204 56.8006 204.3C57.4006 205 58.4006 205.9 59.8006 206.8C61.2006 207.7 63.1006 208.7 65.4006 209.4C67.7006 210 70.6006 210.3 73.6006 209.8C76.6006 209.3 79.8006 208.3 83.3006 207.8C86.8006 207.2 90.6006 208 94.1006 209.9C97.6006 211.8 100.801 214.5 104.401 217.1C106.201 218.4 108.001 219.6 110.101 220.6C112.101 221.6 114.301 222.4 116.601 222.9C121.201 223.9 125.801 223.8 130.101 222.8C134.401 221.7 138.201 219.8 141.701 217.8C145.201 215.8 148.301 213.6 151.401 211.8C154.401 209.9 157.301 208.4 160.101 207.2C165.701 204.9 170.701 204.6 174.101 205.2C175.801 205.5 177.001 205.8 177.901 206.2C178.301 206.3 178.601 206.5 178.801 206.6C179.001 206.7 179.101 206.7 179.101 206.7C179.101 206.7 179.001 206.6 178.801 206.5C178.601 206.4 178.301 206.2 177.901 206.1C177.101 205.8 175.801 205.3 174.101 205C170.801 204.4 165.601 204.6 160.001 206.9C157.201 208 154.201 209.6 151.201 211.4C148.101 213.2 145.001 215.4 141.501 217.4C138.101 219.4 134.301 221.3 130.101 222.3C125.901 223.4 121.301 223.4 116.801 222.4C114.601 221.9 112.401 221.1 110.401 220.2C108.401 219.2 106.601 218 104.801 216.7C101.301 214.2 98.0006 211.4 94.5006 209.5C92.7006 208.5 90.9006 207.8 89.0006 207.5C88.1006 207.3 87.1006 207.2 86.2006 207.2C85.3006 207.2 84.4006 207.3 83.5006 207.4C79.9006 207.9 76.8006 209 73.8006 209.5C70.8006 210 68.1006 209.8 65.8006 209.2C63.5006 208.6 61.6006 207.6 60.2006 206.7C58.8006 205.8 57.8006 204.9 57.2006 204.3C56.9006 204 56.7006 203.7 56.5006 203.6C56.0006 203.3 55.9006 203.2 55.9006 203.2Z" fill="#1F4DC5"/>
<path d="M153.3 272.6C153.3 272.7 155.5 271.6 159.3 270.6C159.8 270.5 160.3 270.4 160.8 270.2C161.3 270.1 161.9 270 162.4 269.9C163.5 269.7 164.8 269.6 166 269.5C168.6 269.4 171.4 269.4 174.4 269.8C177.3 270.3 180.1 271 182.5 271.9C183.7 272.4 184.8 272.8 185.9 273.4C186.4 273.7 186.9 273.9 187.4 274.1C187.9 274.4 188.3 274.6 188.7 274.9C192 276.9 193.8 278.6 193.9 278.5C193.9 278.5 193.5 278.1 192.7 277.3C192.3 276.9 191.8 276.5 191.1 276C190.5 275.5 189.8 275 188.9 274.5C188.5 274.2 188 274 187.6 273.7C187.1 273.4 186.6 273.2 186.1 272.9C185.1 272.3 183.9 271.9 182.7 271.4C180.3 270.5 177.5 269.7 174.5 269.2C171.5 268.8 168.6 268.7 166 268.9C164.7 269 163.5 269.1 162.3 269.4C161.7 269.5 161.2 269.6 160.7 269.7C160.2 269.8 159.7 270 159.2 270.1C158.2 270.3 157.4 270.7 156.7 270.9C156 271.1 155.3 271.4 154.8 271.6C153.9 272.3 153.3 272.6 153.3 272.6Z" fill="#1F4DC5"/>
<path d="M129.9 273.4C129.9 273.4 130.5 273.8 131.2 274.9C132 276 132.7 277.7 132.9 280.1C133.2 282.4 132.8 285.2 132.9 288.3C132.9 289.9 133.1 291.5 133.7 293.2C134.3 294.8 135.3 296.3 136.4 297.7C138.7 300.5 141.5 302.6 143.7 304.7C146 306.8 147.8 308.9 148.7 311.1C149.7 313.2 149.9 315.1 149.9 316.4C149.8 317.7 149.6 318.4 149.6 318.4C149.6 318.4 149.7 318.2 149.8 317.9C149.9 317.6 150 317.1 150.1 316.4C150.2 315.1 150 313.1 149 310.9C148.1 308.7 146.2 306.5 144 304.3C141.7 302.1 139 300.1 136.8 297.3C135.7 295.9 134.8 294.5 134.2 292.9C133.6 291.4 133.4 289.7 133.4 288.2C133.3 285.1 133.7 282.3 133.3 279.9C133 277.5 132.2 275.7 131.4 274.7C130.6 273.7 129.9 273.4 129.9 273.4Z" fill="#1F4DC5"/>
<path d="M90.8006 299.2C90.8006 299.2 90.9006 298.7 91.0006 297.8C91.1006 296.9 91.5006 295.6 92.3006 294.3C93.1006 292.9 94.3006 291.4 95.7006 289.8C97.1006 288.2 98.8006 286.5 100.201 284.4C103.201 280.3 104.401 275.8 104.801 272.6C105.001 271 105.101 269.7 105.101 268.7C105.101 267.8 105.101 267.3 105.101 267.3C105.101 267.3 105.001 267.8 104.901 268.7C104.801 269.6 104.701 270.9 104.401 272.5C103.901 275.7 102.701 280.1 99.8006 284.1C98.3006 286.1 96.7006 287.8 95.3006 289.4C93.9006 291 92.7006 292.6 91.9006 294C91.1006 295.4 90.8006 296.8 90.7006 297.7C90.7006 298.2 90.7006 298.5 90.7006 298.8C90.8006 299.1 90.8006 299.2 90.8006 299.2Z" fill="#1F4DC5"/>
<path d="M35.5005 252.6C35.5005 252.6 35.6005 252.9 35.7005 253.5C35.8005 253.8 35.9005 254.2 36.1005 254.6C36.3005 255 36.4005 255.5 36.7005 256C37.2005 257 37.9005 258.1 38.7005 259.3C39.6005 260.5 40.7005 261.7 42.0005 262.8C43.3005 263.9 44.6005 264.8 45.9005 265.6C47.2005 266.3 48.4005 266.9 49.5005 267.2C50.6005 267.6 51.4005 267.8 52.0005 267.9C52.6005 268 53.0005 268.1 53.0005 268C53.0005 267.9 51.7005 267.6 49.6005 266.9C48.6005 266.5 47.4005 265.9 46.1005 265.2C44.9005 264.5 43.6005 263.5 42.3005 262.4C41.1005 261.3 40.0005 260.1 39.1005 259C38.2005 257.8 37.5005 256.8 37.0005 255.8C36.0005 253.9 35.5005 252.6 35.5005 252.6Z" fill="#1F4DC5"/>
<path d="M0.000396729 254.4C0.100397 254.5 1.30038 252.7 3.80038 250.3C5.00038 249.1 6.6004 247.8 8.5004 246.5C10.4004 245.2 12.6004 244.1 15.1004 243.1C18.7004 241.7 22.3004 241.1 25.3004 240.9C28.3004 240.7 30.7004 241.1 32.2004 241.3H32.4004L32.3004 241.1C31.7004 240.2 31.3004 239.8 31.3004 239.8C31.3004 239.8 31.6004 240.3 32.1004 241.2L32.2004 241C30.7004 240.7 28.3004 240.3 25.3004 240.4C22.2004 240.5 18.6004 241.1 14.9004 242.5C12.4004 243.5 10.1004 244.6 8.20041 245.9C6.30041 247.2 4.7004 248.5 3.5004 249.8C2.9004 250.4 2.40039 251 1.90039 251.5C1.70039 251.8 1.50038 252 1.30038 252.2C1.10038 252.4 1.00038 252.7 0.800385 252.9C0.200384 253.9 -0.0996033 254.4 0.000396729 254.4Z" fill="#1F4DC5"/>
<path d="M81.3999 94.6001C81.6999 98.6001 78.9999 102.2 76.2999 105.3C73.5999 108.3 70.5999 111.5 69.9999 115.5C68.9999 122.6 75.8999 129.2 74.4999 136.2C73.6999 140 70.5999 143 70.0999 146.8C69.5999 150.5 71.4999 154.1 73.9999 156.9C76.3999 159.7 79.3999 162 81.5999 165.1C83.8999 168.3 85.0999 172.1 86.7999 175.6C88.3999 179.2 90.5999 182.7 94.0999 184.6C99.2999 187.4 106.5 186.1 110.5 190.4C114.3 194.6 113.1 202.3 117.9 205.5" fill="#263238"/>
<path d="M143.4 100.7C143.5 97.0001 140.1 94.2001 136.7 92.9001C133.3 91.6001 129.5 91.1001 126.5 89.0001C123.8 87.2001 122 84.4001 119.7 82.1001C114.1 76.4001 105.4 74.1001 97.7001 76.2001C90.0001 78.3001 83.7001 84.7001 81.8001 92.5001C80.5001 97.7001 81.4001 103.9 85.5001 107.3C90.3001 111.3 97.3001 110.4 103.5 109.2C109.6 107.9 116.5 106.7 121.6 110.3C124.7 112.5 126.4 116 128.3 119.2C130.2 122.5 132.5 125.8 136.1 127C139.7 128.2 144.5 126.1 144.6 122.3" fill="#263238"/>
<path d="M129 101.5C132.2 101.8 134.5 104.5 134.5 107.7L130.8 190.4C130.6 200.2 116.5 200.9 106.1 200.6V199.6C95.5 199.4 95 200 94.9 190.7C94.7 175.2 94.7 169.3 94.7 169.4C94.7 169.4 81.4 167.2 78.6 149.7C77.2 141 77.7 126.8 78.5 115.2C79.2 104.8 86.1 91.9001 96.5 93.1001L129 101.5Z" fill="#FFBE9D"/>
<path d="M81.7001 125.3C81.7001 126.5 82.6001 127.5 83.8001 127.6C85.0001 127.7 86.1001 126.8 86.1001 125.6C86.1001 124.4 85.2001 123.4 84.0001 123.3C82.8001 123.2 81.8001 124.1 81.7001 125.3Z" fill="#263238"/>
<path d="M81.5001 122.7C81.8001 123 83.5001 121.7 85.9001 121.8C88.3001 121.8 90.1001 123 90.3001 122.7C90.4001 122.6 90.1001 122 89.4001 121.5C88.6001 120.9 87.4001 120.4 85.9001 120.4C84.4001 120.4 83.1001 121 82.4001 121.5C81.6001 122.1 81.4001 122.6 81.5001 122.7Z" fill="#263238"/>
<path d="M105.7 125.9C105.7 127.1 106.6 128.1 107.8 128.2C109 128.3 110.1 127.4 110.1 126.2C110.1 125 109.2 124 108 123.9C106.7 123.8 105.7 124.7 105.7 125.9Z" fill="#263238"/>
<path d="M105.1 123.2C105.4 123.5 107.1 122.2 109.5 122.3C111.9 122.3 113.7 123.5 113.9 123.2C114 123.1 113.8 122.5 113 122C112.2 121.4 111 120.9 109.5 120.9C108 120.9 106.7 121.5 106 122C105.2 122.6 105 123.1 105.1 123.2Z" fill="#263238"/>
<path d="M96.4 141C96.4 140.9 94.9 140.6 92.5 140.3C91.9 140.2 91.3 140.1 91.2 139.7C91.1 139.3 91.3 138.6 91.6 137.9C92.2 136.4 92.8 134.9 93.4 133.2C95.9 126.6 97.8 121.1 97.5 121C97.2 120.9 95 126.2 92.4 132.9C91.8 134.5 91.2 136.1 90.7 137.6C90.5 138.3 90.1 139.1 90.4 140C90.6 140.5 91 140.8 91.4 140.9C91.8 141 92.1 141 92.4 141C94.8 141.2 96.4 141.2 96.4 141Z" fill="#263238"/>
<path d="M94.5999 169.5C94.5999 169.5 106.3 170.3 117.9 163.3C117.9 163.3 112.2 175.3 94.7999 173.6L94.5999 169.5Z" fill="#EB996E"/>
<path d="M97.4002 146.8C98.3002 145.7 99.8002 145 101.3 145.2C102.3 145.3 103.4 145.8 104 146.7C104.6 147.6 104.8 148.8 104.2 149.6C103.5 150.5 102.2 150.7 101 150.4C99.9002 150.1 98.9002 149.3 97.9002 148.6C97.6002 148.4 97.4002 148.2 97.2002 147.9C97.0002 147.6 97.0002 147.2 97.2002 147" fill="#EB996E"/>
<path d="M103.4 142.7C103 142.7 103 145.3 100.8 147.1C98.6 149 95.8 148.7 95.8 149C95.8 149.2 96.4 149.5 97.6 149.5C98.8 149.5 100.4 149.2 101.8 148C103.2 146.9 103.8 145.4 103.8 144.3C103.9 143.4 103.6 142.7 103.4 142.7Z" fill="#263238"/>
<path d="M104.1 119C104.3 119.7 106.7 119.3 109.6 119.7C112.4 120 114.7 120.8 115.1 120.2C115.3 119.9 114.9 119.3 114 118.7C113.1 118.1 111.6 117.5 109.9 117.3C108.2 117.1 106.7 117.4 105.6 117.8C104.5 118.2 104 118.7 104.1 119Z" fill="#263238"/>
<path d="M82.3998 115.8C82.7998 116.3 84.4998 115.8 86.4998 115.8C88.4998 115.7 90.1998 116.2 90.5998 115.6C90.7998 115.3 90.4998 114.8 89.7998 114.3C89.0998 113.8 87.8998 113.4 86.4998 113.4C85.0998 113.4 83.8998 113.9 83.2998 114.5C82.3998 114.9 82.1998 115.5 82.3998 115.8Z" fill="#263238"/>
<path d="M140.9 184.8C141 180.4 141.1 175.9 139.4 171.8C137.6 167.8 133.5 164.3 128.9 164.6C125.6 164.8 122.8 166.7 119.8 168.1C114.8 170.4 109.1 171.2 103.7 170.4C101.4 170.1 99.2002 169.4 96.9002 169.4C94.6002 169.3 92.1002 170 90.6002 171.6C88.8002 173.6 88.9002 176.5 89.1002 179.1C89.4002 183.2 89.7002 187.3 91.0002 191.1C92.3002 195 94.7002 198.6 98.4002 200.8C103.5 203.8 110.1 203.3 116.2 202.5C121.9 201.8 127.7 200.8 132.7 198.1C137.7 195.3 141.6 190.3 141.3 184.9" fill="#8FA6E3"/>
<g opacity="0.4">
<g opacity="0.4">
<path opacity="0.4" d="M140.9 184.8C141 180.4 141.1 175.9 139.4 171.8C137.6 167.8 133.5 164.3 128.9 164.6C125.6 164.8 122.8 166.7 119.8 168.1C114.8 170.4 109.1 171.2 103.7 170.4C101.4 170.1 99.2002 169.4 96.9002 169.4C94.6002 169.3 92.1002 170 90.6002 171.6C88.8002 173.6 88.9002 176.5 89.1002 179.1C89.4002 183.2 89.7002 187.3 91.0002 191.1C92.3002 195 94.7002 198.6 98.4002 200.8C103.5 203.8 110.1 203.3 116.2 202.5C121.9 201.8 127.7 200.8 132.7 198.1C137.7 195.3 141.6 190.3 141.3 184.9" fill="black"/>
</g>
</g>
<path d="M129.3 199.4C129.3 199.4 129.4 199.4 129.6 199.2C129.8 199.1 130.1 198.8 130.4 198.5C131 197.8 131.4 196.4 131.6 194.8C131.9 191.6 132.5 187.1 132.5 182.1C132.5 179.6 132.4 177.2 132.1 175.1C131.8 173 131.3 171 130.4 169.6C129.6 168.2 128.5 167.2 127.8 166.8C127.4 166.6 127.1 166.4 126.9 166.3C126.7 166.2 126.5 166.2 126.5 166.2C126.5 166.2 127 166.4 127.7 166.9C128.4 167.4 129.4 168.3 130.1 169.8C131.7 172.6 131.9 177.2 132 182.1C132 187 131.5 191.5 131.2 194.8C131.1 196.4 130.7 197.7 130.2 198.4C129.7 199.1 129.2 199.4 129.3 199.4Z" fill="#1F4DC5"/>
<path d="M117.5 202.7C117.5 202.7 117.5 202.2 117.4 201.4C117.3 200.5 117.2 199.3 117 197.9C116.7 195 116.2 190.9 115.8 186.5C115.4 182 115 178 114.7 175C114.6 173.6 114.5 172.5 114.4 171.5C114.3 170.7 114.3 170.2 114.2 170.2C114.2 170.2 114.2 170.7 114.2 171.5C114.2 172.3 114.3 173.5 114.4 175C114.6 177.9 114.9 182 115.3 186.5C115.7 191 116.3 195 116.7 197.9C116.9 199.4 117.1 200.5 117.2 201.3C117.4 202.3 117.5 202.7 117.5 202.7Z" fill="#1F4DC5"/>
<path d="M100.2 170.6C100.2 170.6 100.1 170.6 99.8004 170.6C99.6004 170.7 99.2004 170.8 98.9004 171.1C98.2004 171.7 97.7004 173.1 97.5004 174.7C97.2004 176.3 97.2004 178.3 97.3004 180.4C97.4004 182.5 97.8004 184.9 98.1004 187.3C98.4004 189.7 98.9004 192.1 99.5004 194.1C100.1 196.2 101 197.9 101.9 199.3C102.8 200.7 103.7 201.6 104.4 202.2C104.7 202.5 105 202.7 105.2 202.8C105.4 202.9 105.5 203 105.5 203C105.6 202.9 103.8 201.8 102.1 199.1C101.3 197.7 100.4 196 99.8004 194C99.2004 192 98.8004 189.7 98.4004 187.2C98.1004 184.8 97.7004 182.4 97.6004 180.3C97.4004 178.2 97.4004 176.3 97.7004 174.7C97.9004 173.1 98.3004 171.9 98.9004 171.2C99.6004 170.6 100.2 170.7 100.2 170.6Z" fill="#1F4DC5"/>
<path d="M94.2 169.7C97.9 171.2 97.8 177.2 100.5 180C104.1 183.7 110.6 181.1 115.3 183.3C121.5 186.2 121.4 195.5 126.7 199.9C129.9 202.6 134.8 203.1 137.3 206.5C139.9 210 138.3 215.8 134.2 217.4C132.9 216.6 131.6 215.8 130.3 214.9C131.4 216.7 130.8 219.1 129.5 220.8C128.2 222.4 126.2 223.5 124.4 224.4C122 224.1 120.8 221.5 120.2 219.2C119.7 216.9 119.3 214.3 117.5 212.8C115.3 211 111.9 211.7 109.4 210.3C104.5 207.5 106.6 199.1 102.2 195.5C99.4 193.2 95.3 193.9 92 192.5C87.2 190.5 85.3 184.8 84.8 179.6C84.3 174.5 84.6 169 82 164.5" fill="#263238"/>
<path d="M141.1 158.8C136.3 159.8 131.1 158.3 127.5 155C123.9 151.7 122.1 146.6 122.7 141.7C123.2 137.4 125.5 133.1 124.1 129C122.1 123.6 114.6 122 112.6 116.7C111.4 113.6 112.5 110 111.2 106.9C110 104 107 102.4 104 101.3C101.1 100.2 97.9001 99.5001 95.5001 97.6001C93.0001 95.7001 91.5001 92.1001 93.1001 89.4001C106.1 91.0001 118.9 94.1001 131.2 98.6001C134 99.7001 137 100.9 138.7 103.5C140.5 106.2 140.4 109.6 140.2 112.8C139.5 128.4 138.7 144.1 138 159.7" fill="#263238"/>
<path d="M150.5 173.3C150.5 173.3 150.6 172.9 150.6 172.1C150.6 171.3 150.4 170.2 149.9 168.8C149.4 167.4 148.4 165.9 147 164.4C145.6 162.9 143.6 161.5 141.3 160.2C139 158.9 136.4 157.8 133.8 156.2C131.2 154.7 128.6 152.6 126.9 149.7C126.1 148.2 125.5 146.5 125.6 144.8C125.6 143 126 141.2 126.4 139.4C126.8 137.6 127.2 135.6 126.8 133.6C126.6 132.6 126.2 131.7 125.6 130.9C125 130.1 124.2 129.5 123.3 128.9C121.6 127.9 119.7 127.3 117.9 126.5C116.2 125.7 114.6 124.6 113.7 123C112.8 121.4 112.5 119.6 112.5 117.8C112.4 116 112.5 114.3 112.5 112.5C112.5 110.8 112.3 109.1 111.7 107.5C111.5 107.1 111.4 106.7 111.2 106.4C111 106 110.8 105.7 110.5 105.4C110 104.8 109.4 104.2 108.8 103.7C106.2 101.9 103.3 101.3 100.8 100.7C98.3001 100.1 96.0001 99.4001 94.3001 98.3001C92.6001 97.2001 91.6001 95.6001 91.2001 94.2001C90.8001 92.8001 90.9001 91.7001 91.1001 91.0001C91.3001 90.3001 91.6001 90.0001 91.6001 89.9001C91.6001 89.9001 91.3001 90.2001 91.0001 90.9001C90.7001 91.6001 90.6001 92.8001 91.0001 94.2001C91.4001 95.6001 92.4001 97.3001 94.1001 98.5001C95.8001 99.7001 98.1001 100.4 100.6 101.1C103.1 101.7 105.9 102.3 108.4 104.1C109 104.5 109.5 105.1 110 105.7C110.2 106 110.4 106.3 110.6 106.7C110.8 107 110.9 107.4 111.1 107.8C111.6 109.3 111.8 111 111.8 112.7C111.8 114.4 111.7 116.2 111.8 118C111.9 119.8 112.1 121.7 113.1 123.4C114 125.1 115.8 126.3 117.5 127.1C119.3 127.9 121.1 128.5 122.8 129.5C123.6 130 124.4 130.6 125 131.3C125.6 132 126 132.9 126.1 133.8C126.5 135.6 126.1 137.5 125.7 139.3C125.3 141.1 124.9 142.9 124.9 144.8C124.9 146.6 125.4 148.4 126.3 149.9C128.1 152.9 130.8 155 133.4 156.6C136.1 158.1 138.7 159.3 141 160.5C143.3 161.7 145.2 163.1 146.6 164.5C148 166 149 167.5 149.6 168.8C150.2 170.1 150.3 171.2 150.4 172C150.5 172.9 150.5 173.3 150.5 173.3Z" fill="#263238"/>
<path d="M99.8003 185.2C99.8003 185.1 98.6003 185.5 96.4003 185.5C94.2003 185.5 91.0003 184.8 87.7003 182.6C86.1003 181.5 84.5003 179.9 83.4003 177.9C82.2003 175.9 81.7003 173.5 81.2003 170.9C80.7003 168.3 80.3003 165.5 78.9003 163C77.4003 160.4 74.8003 158.8 72.6003 156.8C70.3003 154.8 68.9003 152.1 68.5003 149.4C68.3003 148 68.3003 146.6 68.6003 145.3C68.9003 144 69.4003 142.8 70.0003 141.6C71.3003 139.4 72.9003 137.4 73.6003 135.1C74.4003 132.9 74.5003 130.6 74.3003 128.6C73.9003 124.6 72.7003 121.6 71.9003 119.5C71.5003 118.5 71.1003 117.7 70.9003 117.2C70.7003 116.7 70.5003 116.4 70.5003 116.4C70.5003 116.4 70.6003 116.7 70.8003 117.2C71.0003 117.8 71.3003 118.6 71.7003 119.6C72.4003 121.7 73.6003 124.7 74.0003 128.6C74.2003 130.5 74.0003 132.7 73.3003 134.9C72.6003 137.1 71.0003 139 69.7003 141.3C69.0003 142.4 68.5003 143.7 68.2003 145.1C67.9003 146.5 67.9003 147.9 68.1003 149.4C68.3003 150.8 68.8003 152.3 69.5003 153.6C70.2003 154.9 71.2003 156.1 72.3003 157.1C74.6003 159.1 77.1003 160.8 78.5003 163.2C79.9003 165.6 80.3003 168.4 80.8003 171C81.3003 173.6 81.8003 176.1 83.1003 178.1C84.3003 180.2 85.9003 181.7 87.6003 182.8C90.9003 185.1 94.3003 185.7 96.5003 185.6C97.1003 185.6 97.6003 185.6 98.0003 185.5C98.4003 185.5 98.8003 185.4 99.1003 185.3C99.5003 185.3 99.8003 185.3 99.8003 185.2Z" fill="#263238"/>
<path d="M39.4999 291.5C47.4999 291.5 55.1999 287.4 59.6999 280.1L183.6 77.7001C184.2 76.7001 183.9 75.3001 182.9 74.7001C181.9 74.1001 180.5 74.4001 179.9 75.4001L56.0999 277.9C50.5999 286.9 38.9999 289.9 29.7999 284.6C25.0999 281.9 21.8999 277.6 20.5999 272.4C19.2999 267.2 20.1999 261.8 23.0999 257.3L26.8999 251.4C27.4999 250.4 27.2999 249 26.1999 248.4C25.1999 247.7 23.7999 248 23.1999 249.1L19.3999 255C15.8999 260.5 14.7999 267.1 16.2999 273.5C17.8999 279.9 21.8999 285.2 27.4999 288.5C31.2999 290.5 35.4999 291.5 39.4999 291.5Z" fill="#E9EEFA"/>
<path d="M27.7999 25.8001C27.7999 25.8001 71.2999 28.4001 92.3999 71.5001C92.3999 71.5001 140.3 67.5001 155 106.7C155 106.7 210.5 100.4 222.4 151.5C222.4 151.5 266.8 149.9 269.4 190.3C269.4 190.3 299.4 191.5 301.4 221.9C301.4 221.9 326.6 97.8001 233.9 32.7001C135.9 -36.0999 27.7999 25.8001 27.7999 25.8001Z" fill="#E9EEFA"/>
<path d="M81.4997 290.9L86.6997 267.7L81.0997 265.4C80.2997 264.8 77.3997 262.6 73.4997 258.5C72.2997 257.2 71.2997 255.7 70.5997 254.1C69.6997 252.2 68.6997 249.5 68.5997 247.9C68.4997 245.9 65.8997 245.1 64.9997 246.7C63.9997 248.2 64.2997 253.8 67.3997 259.4C69.4997 263.2 65.8997 262.7 62.2997 261.6C59.5997 260.8 56.6997 262.1 55.5997 264.7L52.2997 272.3C50.1997 277.1 52.5997 282.8 57.4997 284.6C59.0997 285.2 60.2997 285.6 60.2997 285.6L81.4997 290.9Z" fill="#FFBE9D"/>
<path d="M275.6 126.3C275.6 126.4 277.3 126.4 280 126.8C281.3 127 282.9 127.4 284.6 127.9C286.3 128.5 288.1 129.2 289.9 130.2C291.7 131.2 293.3 132.3 294.7 133.4C296.1 134.5 297.2 135.7 298.1 136.7C299.9 138.7 300.8 140.2 300.9 140.1C300.9 140.1 300.7 139.7 300.3 139.1C300.1 138.8 299.8 138.4 299.5 137.9C299.2 137.5 298.8 137 298.4 136.4C297.5 135.3 296.4 134.2 295 133C293.6 131.8 292 130.7 290.1 129.7C288.3 128.7 286.4 128 284.7 127.4C283 126.9 281.4 126.5 280 126.4C279.3 126.3 278.7 126.3 278.2 126.2C277.7 126.2 277.2 126.1 276.8 126.2C276 126.2 275.6 126.2 275.6 126.3Z" fill="#1F4DC5"/>
<path d="M236.5 105C236.5 105 237.2 104.8 238.5 104.3C239.8 103.9 241.6 103.4 244 103C246.4 102.7 249.2 102.6 252.3 103.1C255.4 103.6 258.8 104.6 261.9 106.4C265.1 108.2 267.7 110.5 269.7 112.9C271.7 115.3 273.2 117.8 274.1 120C275.1 122.2 275.6 124 275.9 125.4C276.2 126.7 276.3 127.4 276.4 127.4C276.4 127.4 276.4 127.2 276.4 126.9C276.3 126.6 276.3 126 276.2 125.4C276 124.1 275.5 122.2 274.6 119.9C273.7 117.7 272.3 115.1 270.2 112.7C268.2 110.2 265.5 107.9 262.3 106C259.1 104.2 255.7 103.2 252.5 102.7C249.3 102.3 246.4 102.4 244 102.7C241.6 103.1 239.7 103.6 238.5 104.1C237.9 104.3 237.4 104.6 237.1 104.7C236.6 104.9 236.5 104.9 236.5 105Z" fill="#1F4DC5"/>
<path d="M186 64.4C186 64.5 187 64.1 188.8 63.8C190.6 63.4 193.3 63.2 196.6 63.5C198.3 63.6 200 64 201.9 64.4C203.8 64.9 205.8 65.5 207.8 66.4C209.8 67.3 211.9 68.3 213.9 69.6C215.9 70.9 217.9 72.4 219.7 74.2C223.3 77.7 226.2 81.7 228.5 85.4C230.8 89.2 232.6 92.7 234 95.7C235.4 98.7 236.5 101.2 237.3 102.9C237.7 103.7 238 104.4 238.2 104.9C238.4 105.3 238.5 105.6 238.5 105.6C238.5 105.6 238.4 105.3 238.3 104.9C238.1 104.4 237.8 103.7 237.5 102.9C236.8 101.2 235.8 98.7 234.4 95.6C233 92.6 231.3 89 229 85.2C226.7 81.4 223.8 77.4 220.2 73.8C218.4 72 216.4 70.5 214.3 69.2C212.3 67.9 210.2 66.8 208.2 65.9C206.2 65 204.1 64.4 202.2 63.9C200.3 63.5 198.5 63.2 196.8 63.1C193.5 62.9 190.7 63.2 188.9 63.6C188 63.8 187.3 64 186.8 64.2C186.3 64.3 186 64.4 186 64.4Z" fill="#1F4DC5"/>
<path d="M137.9 34.6001C137.9 34.6001 138.8 34.4001 140.3 34.0001C141.8 33.6001 144.1 33.2001 147 33.1001C152.7 32.9001 160.8 34.5001 168 39.4001C169.8 40.6001 171.5 42.0001 173 43.3001C174.5 44.7001 175.9 46.2001 177.1 47.6001C179.5 50.5001 181.4 53.4001 182.7 55.9001C184.1 58.4001 185 60.5001 185.7 62.0001C186 62.7001 186.2 63.3001 186.4 63.7001C186.6 64.1001 186.7 64.3001 186.7 64.3001C186.7 64.3001 186.7 64.1001 186.5 63.7001C186.4 63.3001 186.2 62.7001 185.9 62.0001C185.3 60.5001 184.4 58.3001 183.1 55.8001C181.8 53.2001 179.9 50.3001 177.5 47.4001C176.3 45.9001 174.9 44.4001 173.4 43.0001C171.9 41.6001 170.2 40.2001 168.4 39.0001C161 34.0001 152.8 32.4001 147.1 32.7001C144.2 32.8001 141.9 33.3001 140.4 33.8001C139.6 34.0001 139 34.3001 138.6 34.4001C138.1 34.5001 137.9 34.6001 137.9 34.6001Z" fill="#1F4DC5"/>
<path d="M87.5998 11.5001C87.5998 11.5001 88.3998 11.3001 89.7998 10.8001C91.1998 10.4001 93.2998 9.80012 95.9998 9.50012C98.5998 9.20012 101.8 9.10012 105.3 9.50012C108.8 10.0001 112.5 11.0001 116.2 12.8001C119.8 14.6001 123 16.9001 125.5 19.4001C128 21.9001 129.9 24.4001 131.2 26.7001C132.6 29.0001 133.4 31.0001 134 32.4001C134.5 33.8001 134.8 34.6001 134.8 34.6001C134.8 34.6001 134.8 34.4001 134.7 34.0001C134.6 33.6001 134.5 33.1001 134.2 32.3001C133.7 30.9001 132.9 28.9001 131.6 26.5001C130.3 24.2001 128.4 21.5001 125.9 19.0001C123.4 16.5001 120.2 14.1001 116.5 12.3001C112.8 10.5001 109 9.50012 105.4 9.00012C101.9 8.60012 98.5998 8.70012 95.9998 9.10012C93.2998 9.50012 91.1998 10.1001 89.7998 10.6001C89.0998 10.8001 88.5998 11.1001 88.1998 11.2001C87.6998 11.4001 87.4998 11.5001 87.5998 11.5001Z" fill="#1F4DC5"/>
<path d="M70.7997 7.00002C70.7997 7.10002 71.4997 7.10002 72.5997 7.30002C73.6997 7.50002 75.1997 8.00002 76.6997 8.90002C78.1997 9.80002 79.2997 10.9 79.9997 11.8C80.6997 12.7 80.9997 13.3 81.0997 13.3C81.1997 13.3 80.8997 12.6 80.2997 11.6C79.6997 10.6 78.4997 9.40002 76.9997 8.40002C75.4997 7.50002 73.7997 7.00002 72.6997 6.90002C71.4997 6.90002 70.7997 7.00002 70.7997 7.00002Z" fill="#1F4DC5"/>
<path d="M273.4 167.4C273.4 167.5 275.6 167.3 279 167.7C279.4 167.8 279.9 167.8 280.3 167.9C280.8 168 281.2 168.1 281.7 168.2C282.7 168.4 283.7 168.7 284.8 169.1C286.9 169.8 289.2 170.9 291.5 172.2C293.7 173.6 295.7 175.2 297.3 176.8C298.1 177.6 298.9 178.4 299.5 179.2C299.8 179.6 300.1 180 300.4 180.3C300.7 180.7 300.9 181.1 301.2 181.4C303.1 184.3 303.9 186.3 304 186.2C304 186.2 303.8 185.7 303.5 184.8C303.3 184.3 303.1 183.8 302.7 183.2C302.4 182.6 302 181.9 301.5 181.2C301.3 180.8 301 180.5 300.7 180.1C300.4 179.7 300.1 179.3 299.8 178.9C299.2 178.1 298.4 177.3 297.6 176.4C296 174.8 294 173.1 291.7 171.7C289.4 170.3 287.1 169.3 284.9 168.6C283.8 168.3 282.7 167.9 281.7 167.8C281.2 167.7 280.7 167.6 280.2 167.5C279.7 167.4 279.3 167.4 278.8 167.3C277.9 167.2 277.1 167.2 276.5 167.2C275.8 167.2 275.2 167.2 274.7 167.2C273.9 167.3 273.4 167.4 273.4 167.4Z" fill="#1F4DC5"/>
<path d="M227.3 138.1C227.3 138.1 227.5 138.1 227.9 138C228.3 137.9 228.9 137.8 229.7 137.7C231.3 137.5 233.5 137.2 236.4 137.3C239.2 137.3 242.6 137.7 246.2 138.6C249.8 139.5 253.6 141.1 257.3 143.4C260.9 145.7 264 148.5 266.4 151.4C268.8 154.3 270.6 157.1 271.8 159.7C273 162.2 273.8 164.4 274.3 165.9C274.6 166.6 274.7 167.3 274.8 167.6C274.9 168 275 168.2 275 168.2C275 168.2 275 168 274.9 167.6C274.8 167.2 274.7 166.6 274.5 165.8C274.1 164.3 273.4 162.1 272.2 159.5C271 156.9 269.2 154 266.8 151.1C264.4 148.2 261.3 145.4 257.6 143C253.9 140.7 250 139.1 246.4 138.2C242.7 137.3 239.3 136.9 236.5 137C233.7 137 231.4 137.3 229.8 137.6C229 137.7 228.4 137.9 228 138C227.5 138 227.3 138.1 227.3 138.1Z" fill="#1F4DC5"/>
<path d="M163.2 94.4001C163.2 94.4001 163.5 94.4001 164.1 94.3001C164.7 94.2001 165.5 94.0001 166.6 93.9001C168.8 93.6001 172 93.3001 176 93.5001C178 93.6001 180.1 93.9001 182.4 94.4001C184.7 94.9001 187.1 95.6001 189.5 96.5001C194.4 98.4001 199.5 101.2 204.5 104.5C207 106.2 209.3 108 211.4 109.9C213.5 111.8 215.4 113.8 217.1 115.8C220.5 119.8 223 123.8 224.8 127.3C226.6 130.8 227.8 133.8 228.5 135.9C228.9 136.9 229.1 137.8 229.3 138.3C229.5 138.9 229.6 139.1 229.6 139.1C229.6 139.1 229.5 138.8 229.4 138.2C229.2 137.6 229 136.8 228.7 135.7C228 133.6 226.9 130.5 225.1 127C223.3 123.5 220.8 119.4 217.4 115.3C215.7 113.3 213.8 111.3 211.7 109.3C209.6 107.4 207.2 105.5 204.7 103.8C199.6 100.5 194.5 97.7001 189.6 95.8001C187.1 94.8001 184.7 94.1001 182.4 93.7001C180.1 93.2001 177.9 93.0001 175.9 92.9001C171.9 92.7001 168.7 93.1001 166.5 93.5001C165.4 93.7001 164.6 93.9001 164 94.0001C163.5 94.3001 163.2 94.4001 163.2 94.4001Z" fill="#1F4DC5"/>
<path d="M100.3 61.4C100.3 61.4 100.6 61.4 101.1 61.3C101.6 61.2 102.3 61.1 103.3 60.9C105.2 60.6 108 60.3 111.5 60.3C115 60.3 119.1 60.6 123.6 61.6C125.8 62.1 128.2 62.8 130.5 63.6C132.8 64.4 135.2 65.5 137.5 66.8C142.1 69.3 146.3 72.2 149.7 75.3C153.1 78.4 155.7 81.6 157.6 84.5C159.5 87.4 160.6 90 161.4 91.8C161.8 92.7 162 93.4 162.2 93.9C162.4 94.4 162.5 94.6 162.5 94.6C162.5 94.6 162.4 94.3 162.3 93.8C162.1 93.3 161.9 92.6 161.6 91.7C160.9 89.9 159.8 87.3 158 84.3C156.2 81.3 153.5 78 150.1 74.9C146.7 71.8 142.5 68.9 137.8 66.3C135.5 65 133.1 64 130.7 63.1C128.3 62.2 126 61.6 123.7 61.1C119.2 60.1 115 59.8 111.5 59.9C108 60 105.2 60.3 103.3 60.7C102.3 60.9 101.6 61.1 101.1 61.2C100.6 61.3 100.3 61.3 100.3 61.4Z" fill="#1F4DC5"/>
<path d="M53.8998 23.6001C53.8998 23.6001 54.0998 23.6001 54.5998 23.6001C54.9998 23.6001 55.6998 23.6001 56.4998 23.7001C58.1998 23.8001 60.5998 24.0001 63.4998 24.5001C69.2998 25.5001 77.2998 28.4001 84.3998 34.1001C91.4998 39.8001 95.7998 47.1001 97.9998 52.6001C99.0998 55.4001 99.7998 57.7001 100.2 59.3001C100.4 60.1001 100.5 60.7001 100.6 61.2001C100.7 61.6001 100.8 61.9001 100.8 61.8001C100.8 61.8001 100.8 61.6001 100.7 61.1001C100.6 60.7001 100.5 60.0001 100.4 59.2001C100.1 57.6001 99.3998 55.2001 98.2998 52.4001C96.1998 46.8001 91.7998 39.5001 84.6998 33.7001C77.5998 27.9001 69.4998 25.1001 63.5998 24.1001C60.5998 23.6001 58.1998 23.5001 56.4998 23.5001C55.6998 23.5001 54.9998 23.5001 54.5998 23.5001C54.1998 23.5001 53.8998 23.6001 53.8998 23.6001Z" fill="#1F4DC5"/>
<path d="M40.7 20.2C40.7 20.3 41.4 20.2 42.5 20.1C43.6 20.1 45.1 20.2 46.6 20.8C48.1 21.4 49.4 22.2 50.2 22.9C51 23.6 51.5 24.1 51.5 24.1C51.5 24.1 51.2 23.5 50.4 22.7C49.6 21.9 48.3 21 46.7 20.4C45.1 19.8 43.5 19.7 42.4 19.8C41.3 19.9 40.7 20.1 40.7 20.2Z" fill="#1F4DC5"/>
<path d="M268.2 81.9C268.3 82 268.8 81.6 269.7 81.1C270.6 80.7 272.1 80.2 273.6 80.3C275.2 80.4 276.6 80.9 277.5 81.3C278.5 81.7 279 82.1 279.1 82C279.1 82 278.6 81.5 277.7 81C276.8 80.5 275.3 79.9 273.6 79.8C271.9 79.7 270.4 80.2 269.5 80.8C268.6 81.4 268.1 81.9 268.2 81.9Z" fill="#1F4DC5"/>
<path d="M240.9 71.3001C240.9 71.4001 242.6 70.4001 245.7 69.8001C248.7 69.2001 253.2 69.1001 257.6 70.9001C262 72.7001 265.1 76.0001 266.7 78.6001C268.4 81.2001 268.9 83.1001 269 83.1001C269 83.1001 268.9 82.6001 268.6 81.8001C268.3 81.0001 267.8 79.8001 267 78.4001C265.4 75.7001 262.3 72.3001 257.8 70.4001C253.3 68.5001 248.7 68.7001 245.7 69.4001C244.2 69.8001 243 70.2001 242.2 70.6001C241.3 71.0001 240.9 71.2001 240.9 71.3001Z" fill="#1F4DC5"/>
<path d="M207.1 44.3C207.1 44.3 207.8 44.4 209 44.5C210.2 44.6 211.9 44.8 214 45.3C216.1 45.7 218.6 46.4 221.2 47.5C223.8 48.5 226.7 50.0001 229.3 51.9001C234.6 55.8001 238.1 60.7 240.1 64.5C241.1 66.4 241.7 68 242.1 69.2C242.5 70.3 242.7 71 242.8 71C242.8 71 242.8 70.8 242.7 70.5C242.6 70.2 242.5 69.7 242.3 69.2C242 68 241.3 66.4001 240.4 64.4001C238.5 60.5001 235 55.4 229.6 51.5C226.9 49.5 224 48.1 221.4 47.1C218.7 46.1 216.2 45.4 214.1 45C212 44.6 210.2 44.4001 209 44.4001C208.4 44.4001 207.9 44.4001 207.6 44.4001C207.3 44.3001 207.1 44.3 207.1 44.3Z" fill="#1F4DC5"/>
<path d="M180.4 19.9C180.4 20 182.5 20.3 185.8 21.4C186.6 21.7 187.5 22 188.4 22.5C189.3 22.9 190.3 23.4 191.3 24C193.3 25.2 195.3 26.6 197.3 28.4C199.2 30.2 200.9 32.1 202.2 33.9C202.8 34.9 203.5 35.7 203.9 36.6C204.1 37 204.4 37.5 204.6 37.9C204.8 38.3 205 38.7 205.2 39.1C206.6 42.2 207.1 44.4 207.2 44.3C207.2 44.3 207.1 43.8 206.9 42.8C206.8 42.3 206.6 41.7 206.4 41.1C206.2 40.4 205.9 39.7 205.6 38.9C205.4 38.5 205.2 38.1 205 37.6C204.8 37.2 204.5 36.7 204.3 36.3C203.8 35.4 203.2 34.5 202.6 33.5C201.3 31.6 199.6 29.7 197.7 27.8C195.7 26 193.6 24.6 191.6 23.4C190.6 22.9 189.6 22.3 188.7 22C187.8 21.6 186.9 21.3 186 21C185.2 20.7 184.4 20.5 183.7 20.4C183 20.2 182.4 20.1 182 20.1C180.9 20 180.4 19.9 180.4 19.9Z" fill="#1F4DC5"/>
<path d="M169 8.00002C169 8.10002 169.8 8.40002 171 9.00002C172.2 9.60002 173.8 10.7 175.3 12.2C176.8 13.7 177.8 15.4 178.4 16.6C179 17.9 179.2 18.7 179.3 18.7C179.4 18.7 179.2 17.8 178.7 16.5C178.2 15.2 177.2 13.4 175.7 11.9C174.2 10.3 172.5 9.30002 171.2 8.70002C169.9 8.10002 169 7.90002 169 8.00002Z" fill="#1F4DC5"/>
<path d="M234.8 33.4001C234.8 33.4001 235.2 33.8001 236 34.6001C236.8 35.4001 238.1 36.4001 239.6 37.9001C242.7 40.9001 246.9 45.4001 251.3 51.6001C255.8 57.8001 260.5 65.6001 264.6 74.8001C266.6 79.4001 268.6 84.3001 270.2 89.6001C271.8 94.9001 273 100.4 273.8 106.1C276.7 129.3 275 150.5 273.4 165.7C272.6 173.3 271.8 179.4 271.2 183.7C270.9 185.7 270.7 187.4 270.6 188.6C270.5 189.7 270.4 190.3 270.5 190.3C270.5 190.3 270.7 189.7 270.9 188.6C271.1 187.4 271.4 185.8 271.7 183.7C272.4 179.5 273.3 173.3 274.2 165.7C276 150.5 277.8 129.2 274.9 105.9C274.1 100.1 272.8 94.5001 271.2 89.2001C269.6 83.9001 267.6 78.9001 265.5 74.3001C261.3 65.1001 256.4 57.2001 251.9 51.1001C247.3 44.9001 243 40.4001 239.8 37.5001C238.2 36.0001 236.9 35.0001 236 34.3001C235.3 33.7001 234.9 33.3001 234.8 33.4001Z" fill="#263238"/>
<path d="M234.8 33.4C234.7 33.5 235.9 34.8 237.3 37.5C238.8 40.2 240.3 44.4 241.1 49.9C241.9 55.4 241.9 62 241.4 69.3C240.9 76.6 240.2 84.6 239 93C236.7 109.8 232.9 124.6 229.5 135.2C227.8 140.5 226.3 144.7 225.2 147.6C224.7 149 224.3 150.1 224 150.9C223.7 151.7 223.6 152.1 223.6 152.1C223.6 152.1 223.8 151.7 224.2 151C224.6 150.1 225.1 149.1 225.6 147.7C226.8 144.8 228.5 140.6 230.3 135.4C233.9 124.9 237.9 110 240.2 93.1C241.4 84.7 242.1 76.6 242.5 69.3C243 62 242.9 55.3 242 49.8C241.1 44.3 239.4 40 237.8 37.3C237 36 236.3 35 235.7 34.4C235.2 33.7 234.9 33.4 234.8 33.4Z" fill="#263238"/>
<path d="M230.9 30.6001C230.9 30.6001 230.4 30.3001 229.5 29.8001C228.6 29.3001 227.2 28.5001 225.4 27.7001C221.8 26.0001 216.5 23.6001 209.7 21.6001C202.9 19.6001 194.3 18.2001 184.9 18.7001C175.4 19.2001 165.2 21.5001 155 25.1001C134.3 32.3001 118 44.1001 107.5 53.5001C102.2 58.2001 98.1999 62.4001 95.4999 65.4001C94.1999 66.9001 93.1999 68.1001 92.4999 68.9001C91.7999 69.7001 91.4999 70.1001 91.4999 70.2001C91.4999 70.2001 91.8999 69.8001 92.5999 69.1001C93.2999 68.4001 94.3999 67.2001 95.6999 65.8001C98.3999 62.9001 102.5 58.9001 107.9 54.2001C118.6 45.0001 134.8 33.4001 155.3 26.2001C165.5 22.6001 175.6 20.3001 184.9 19.8001C194.2 19.3001 202.7 20.5001 209.5 22.4001C216.3 24.3001 221.6 26.5001 225.3 28.1001C227.1 28.9001 228.5 29.6001 229.4 30.0001C230.4 30.5001 230.9 30.7001 230.9 30.6001Z" fill="#263238"/>
<path d="M41.6001 27.9C41.6001 27.9 41.8001 27.9001 42.1001 27.7001C42.5001 27.5001 42.9001 27.3 43.5001 27.1C44.8001 26.5 46.5001 25.7001 48.7001 24.7001C49.8001 24.2001 51.1001 23.6 52.4001 22.9C53.8001 22.3 55.3001 21.7 57.0001 21.1C60.3001 19.8 64.0001 18.2 68.2001 16.9C70.3001 16.2 72.5001 15.5 74.8001 14.7C77.1001 14 79.6001 13.4 82.1001 12.7C87.1001 11.2 92.6001 10.2 98.4001 9.00005C110 7.00005 122.8 5.50005 136.4 5.40005C150 5.40005 162.8 6.80005 174.4 8.90005C180.1 10.2 185.6 11.2 190.6 12.9C193.1 13.7 195.5 14.3 197.8 15.1C200.1 16 202.2 16.8 204.3 17.6C208.5 19 212.1 20.9 215.3 22.4C216.9 23.2 218.4 23.8 219.7 24.5C221 25.2 222.2 25.9 223.3 26.6C225.4 27.8 227.1 28.7 228.3 29.4C228.8 29.7 229.3 29.9 229.6 30.1C229.9 30.3 230.1 30.3 230.1 30.3C230.1 30.3 230 30.2 229.7 30C229.4 29.8 228.9 29.5001 228.4 29.2001C227.2 28.5001 225.6 27.5001 223.5 26.2001C222.4 25.6001 221.2 24.8 219.9 24.1C218.6 23.4 217.1 22.7 215.5 21.9C212.3 20.4 208.7 18.4 204.5 16.9C202.4 16.1 200.2 15.2 198 14.3C195.7 13.5 193.3 12.8 190.8 12C185.8 10.3 180.3 9.20005 174.6 7.90005C163 5.70005 150 4.30005 136.4 4.30005C122.8 4.40005 109.8 5.90005 98.2001 8.00005C92.4001 9.30005 86.9001 10.3 81.9001 11.8C79.4001 12.5 76.9001 13.2 74.6001 13.9C72.3001 14.7 70.1001 15.5 68.0001 16.2C63.7001 17.6 60.1001 19.2 56.8001 20.6C55.2001 21.3 53.7001 21.9 52.3001 22.5C51.0001 23.2 49.7001 23.8 48.6001 24.4C46.4001 25.5 44.7001 26.4 43.5001 27C43.0001 27.3 42.5001 27.5001 42.2001 27.7001C41.8001 27.8001 41.6001 27.8 41.6001 27.9Z" fill="#263238"/>
<path d="M230.9 30.6001C230.9 30.6001 230.5 30.7001 229.9 30.9001C229.2 31.2001 228.2 31.5001 227 32.1001C224.5 33.2001 220.9 34.9001 216.7 37.4001C212.5 39.9001 207.6 43.1001 202.6 47.3001C197.6 51.5001 192.6 56.5001 187.6 62.0001C177.6 73.1001 169.7 84.1001 164.1 92.1001C161.3 96.1001 159.1 99.4001 157.6 101.7C156.9 102.8 156.4 103.6 155.9 104.3C155.5 104.9 155.3 105.2 155.4 105.3C155.4 105.3 155.7 105 156.1 104.5C156.6 103.8 157.2 103 158 102C159.7 99.7001 162 96.5001 164.8 92.7001C170.6 84.8001 178.5 73.9001 188.5 62.9001C193.5 57.4001 198.5 52.3001 203.4 48.2001C208.3 44.0001 213 40.7001 217.2 38.2001C221.4 35.7001 224.9 33.9001 227.3 32.6001C229.6 31.4001 230.9 30.7001 230.9 30.6001Z" fill="#263238"/>
</g>
<defs>
<clipPath id="clip0_106_1238">
<rect width="304.5" height="334" fill="white" transform="matrix(-1 0 0 1 304.5 0)"/>
</clipPath>
</defs>
</svg>
