<svg width="217" height="66" viewBox="0 0 217 66" fill="none" xmlns="http://www.w3.org/2000/svg">
<path d="M206.1 30.3C205.3 30.3 204.5 30.4 203.7 30.6C201.1 25.5 195.8 22.1 189.8 22.1C189.7 22.1 189.7 22.1 189.6 22.1C186.6 17.3 181.2 14.1 175.1 14.1C170.9 14.1 167 15.6 164.1 18.1C161.6 12.8 156.3 9.1 150 9.1C142.1 9.1 135.7 14.9 134.6 22.5C133.5 22.2 132.3 22.1 131.1 22.1C131 22.1 130.9 22.1 130.9 22.1C126.4 14.3 117.9 9.1 108.3 9.1C101.6 9.1 95.6 11.6 90.9 15.7C89.7 15.3 88.4 14.9 87.2 14.6C84.1 6 76 0 66.5 0C57.2 0 49.2 5.8 46 14C42.8 14 39.7 14.7 36.8 15.8C32.9 11.6 27.4 9 21.3 9C9.5 9 0 18.5 0 30.3C0 42 9.5 51.5 21.3 51.5C22.4 51.5 23.5 51.4 24.6 51.2C28.9 58.7 37 63.8 46.3 63.8C53 63.8 59 61.2 63.5 56.9C68.2 61.9 74.8 65.1 82.2 65.1C88.3 65.1 93.9 62.9 98.3 59.4C101.4 60.7 104.8 61.4 108.4 61.4C116.1 61.4 122.9 58.1 127.7 52.9C128.8 53.2 130 53.3 131.2 53.3C134.9 53.3 138.3 52 141 49.8C143.7 56.6 150.4 61.3 158.1 61.3C166.5 61.3 173.5 55.7 175.8 48.1C176.6 48.1 177.4 48 178.1 47.9C181 51.2 185.2 53.3 189.9 53.3C193.8 53.3 197.3 51.9 200.1 49.5C201.8 50.7 203.9 51.4 206.2 51.4C212.1 51.4 216.8 46.6 216.8 40.8C216.8 35 212 30.3 206.1 30.3Z" fill="white" fill-opacity="0.3"/>
</svg>
